G04*
G04 #@! TF.GenerationSoftware,Altium Limited,Altium Designer,22.10.1 (41)*
G04*
G04 Layer_Color=8421504*
%FSLAX42Y42*%
%MOMM*%
G71*
G04*
G04 #@! TF.SameCoordinates,D2B3F530-26F6-4905-BC13-EF821CD2D141*
G04*
G04*
G04 #@! TF.FilePolarity,Positive*
G04*
G01*
G75*
%ADD15R,1.81X2.07*%
%ADD16R,1.01X1.33*%
%ADD17O,0.25X1.55*%
%ADD18O,1.55X0.25*%
%ADD19R,0.67X0.72*%
%ADD20R,0.72X0.67*%
%ADD21R,1.25X1.60*%
%ADD22R,1.55X1.35*%
%ADD23R,1.20X1.80*%
%ADD24R,0.85X0.75*%
%ADD25R,1.35X1.55*%
G04:AMPARAMS|DCode=26|XSize=1.66mm|YSize=0.38mm|CornerRadius=0.19mm|HoleSize=0mm|Usage=FLASHONLY|Rotation=270.000|XOffset=0mm|YOffset=0mm|HoleType=Round|Shape=RoundedRectangle|*
%AMROUNDEDRECTD26*
21,1,1.66,0.00,0,0,270.0*
21,1,1.27,0.38,0,0,270.0*
1,1,0.38,0.00,-0.64*
1,1,0.38,0.00,0.64*
1,1,0.38,0.00,0.64*
1,1,0.38,0.00,-0.64*
%
%ADD26ROUNDEDRECTD26*%
%ADD27R,0.38X1.66*%
%ADD28R,3.30X2.70*%
%ADD29R,2.20X2.50*%
%ADD30R,1.60X1.25*%
%ADD31R,3.20X1.60*%
%ADD32R,1.60X3.00*%
%ADD33R,5.80X6.20*%
D15*
X9400Y8636D02*
D03*
X9167D02*
D03*
D16*
X8623Y8454D02*
D03*
Y8306D02*
D03*
D17*
X8563Y7002D02*
D03*
X8513D02*
D03*
X8613D02*
D03*
X8663D02*
D03*
X8713D02*
D03*
X8763D02*
D03*
X8813D02*
D03*
X8863D02*
D03*
X8913D02*
D03*
X8963D02*
D03*
X9013D02*
D03*
X9063D02*
D03*
Y7807D02*
D03*
X9013D02*
D03*
X8963D02*
D03*
X8913D02*
D03*
X8863D02*
D03*
X8813D02*
D03*
X8763D02*
D03*
X8713D02*
D03*
X8663D02*
D03*
X8613D02*
D03*
X8563D02*
D03*
X8513D02*
D03*
D18*
X9191Y7129D02*
D03*
Y7179D02*
D03*
Y7229D02*
D03*
Y7279D02*
D03*
Y7329D02*
D03*
Y7379D02*
D03*
Y7429D02*
D03*
Y7479D02*
D03*
Y7529D02*
D03*
Y7579D02*
D03*
Y7629D02*
D03*
Y7679D02*
D03*
X8386D02*
D03*
Y7629D02*
D03*
Y7579D02*
D03*
Y7529D02*
D03*
Y7479D02*
D03*
Y7429D02*
D03*
Y7379D02*
D03*
Y7329D02*
D03*
Y7279D02*
D03*
Y7229D02*
D03*
Y7179D02*
D03*
Y7129D02*
D03*
D19*
X10147Y8725D02*
D03*
X10935Y6553D02*
D03*
Y6649D02*
D03*
X9296Y5918D02*
D03*
Y6014D02*
D03*
X9931Y8821D02*
D03*
Y8725D02*
D03*
X10503Y6162D02*
D03*
Y6258D02*
D03*
X10719Y6162D02*
D03*
Y6258D02*
D03*
X10935Y6292D02*
D03*
Y6388D02*
D03*
X10147Y8821D02*
D03*
D20*
X11201Y6642D02*
D03*
X11106D02*
D03*
X9925Y7963D02*
D03*
X10020D02*
D03*
X9922Y8153D02*
D03*
X10017D02*
D03*
D21*
X11239Y6845D02*
D03*
X10900D02*
D03*
D22*
X9512Y6139D02*
D03*
Y5944D02*
D03*
X8318Y8268D02*
D03*
Y8463D02*
D03*
D23*
X8826Y6045D02*
D03*
Y6445D02*
D03*
X9067D02*
D03*
Y6045D02*
D03*
D24*
X8649Y6170D02*
D03*
Y6045D02*
D03*
X9246Y6274D02*
D03*
Y6399D02*
D03*
D25*
X7844Y6680D02*
D03*
X8039D02*
D03*
D26*
X9706Y8353D02*
D03*
X9641D02*
D03*
X9576D02*
D03*
X9511D02*
D03*
X9446D02*
D03*
X9381D02*
D03*
X9316D02*
D03*
X9251D02*
D03*
X9186D02*
D03*
X9121D02*
D03*
X9056D02*
D03*
X8991D02*
D03*
X8926D02*
D03*
X8861D02*
D03*
Y8919D02*
D03*
X8926D02*
D03*
X8991D02*
D03*
X9056D02*
D03*
X9121D02*
D03*
X9186D02*
D03*
X9251D02*
D03*
X9316D02*
D03*
X9381D02*
D03*
X9446D02*
D03*
X9511D02*
D03*
X9576D02*
D03*
X9641D02*
D03*
D27*
X9706D02*
D03*
D28*
X11125Y8637D02*
D03*
Y7899D02*
D03*
D29*
X10566Y7912D02*
D03*
Y8382D02*
D03*
D30*
X10224Y8316D02*
D03*
Y7976D02*
D03*
D31*
X10774Y7353D02*
D03*
X11274D02*
D03*
D32*
X9779Y6868D02*
D03*
X10236D02*
D03*
D33*
X10008Y6160D02*
D03*
M02*
