G04*
G04 #@! TF.GenerationSoftware,Altium Limited,Altium Designer,22.10.1 (41)*
G04*
G04 Layer_Physical_Order=1*
G04 Layer_Color=255*
%FSLAX42Y42*%
%MOMM*%
G71*
G04*
G04 #@! TF.SameCoordinates,D2B3F530-26F6-4905-BC13-EF821CD2D141*
G04*
G04*
G04 #@! TF.FilePolarity,Positive*
G04*
G01*
G75*
%ADD14C,0.25*%
%ADD16R,1.01X1.33*%
%ADD17O,0.25X1.55*%
%ADD18O,1.55X0.25*%
%ADD19R,0.67X0.72*%
%ADD20R,0.72X0.67*%
%ADD21R,1.25X1.60*%
%ADD22R,1.55X1.35*%
%ADD23R,1.20X1.80*%
%ADD24R,0.85X0.75*%
%ADD25R,1.35X1.55*%
G04:AMPARAMS|DCode=26|XSize=1.66mm|YSize=0.38mm|CornerRadius=0.19mm|HoleSize=0mm|Usage=FLASHONLY|Rotation=270.000|XOffset=0mm|YOffset=0mm|HoleType=Round|Shape=RoundedRectangle|*
%AMROUNDEDRECTD26*
21,1,1.66,0.00,0,0,270.0*
21,1,1.27,0.38,0,0,270.0*
1,1,0.38,0.00,-0.64*
1,1,0.38,0.00,0.64*
1,1,0.38,0.00,0.64*
1,1,0.38,0.00,-0.64*
%
%ADD26ROUNDEDRECTD26*%
%ADD27R,0.38X1.66*%
%ADD28R,3.30X2.70*%
%ADD29R,2.20X2.50*%
%ADD30R,1.60X1.25*%
%ADD31R,3.20X1.60*%
%ADD32R,1.60X3.00*%
%ADD33R,5.80X6.20*%
%ADD39R,5.18X3.10*%
%ADD48C,0.51*%
%ADD49C,1.52*%
%ADD50C,0.76*%
%ADD51C,1.27*%
%ADD52C,3.00*%
%ADD53C,1.60*%
%ADD54R,1.60X1.60*%
%ADD55R,1.60X1.60*%
%ADD56C,1.52*%
%ADD57C,0.46*%
G36*
X9089Y9573D02*
X9073Y9563D01*
X9055Y9545D01*
X9043Y9524D01*
X9036Y9499D01*
Y9474D01*
X9043Y9450D01*
X9055Y9428D01*
X9073Y9411D01*
X9089Y9401D01*
X9086Y9388D01*
X8984D01*
X8973Y9392D01*
Y9582D01*
X8984Y9585D01*
X9086D01*
X9089Y9573D01*
D02*
G37*
G36*
X8722Y9623D02*
X8717Y9619D01*
X8711Y9610D01*
X8709Y9599D01*
X8709Y9599D01*
Y9321D01*
X8546D01*
X8541Y9331D01*
X8531Y9341D01*
X8517Y9347D01*
X8501D01*
X8487Y9341D01*
X8477Y9331D01*
X8471Y9317D01*
Y9302D01*
X8477Y9288D01*
X8487Y9277D01*
X8501Y9271D01*
X8513D01*
X8521Y9266D01*
X8532Y9264D01*
X8532Y9264D01*
X8963D01*
Y9122D01*
X8950Y9118D01*
X8946Y9124D01*
X8946Y9124D01*
X8931Y9139D01*
X8922Y9145D01*
X8911Y9147D01*
X8911Y9147D01*
X8534D01*
X8531Y9151D01*
X8517Y9157D01*
X8501D01*
X8487Y9151D01*
X8477Y9140D01*
X8471Y9126D01*
Y9111D01*
X8477Y9097D01*
X8487Y9086D01*
X8501Y9081D01*
X8517D01*
X8531Y9086D01*
X8534Y9090D01*
X8898D01*
Y9012D01*
X8890Y9009D01*
X8885Y9008D01*
X8875Y9015D01*
X8861Y9017D01*
X8848Y9015D01*
X8836Y9007D01*
X8829Y8996D01*
X8826Y8982D01*
Y8855D01*
X8829Y8841D01*
X8833Y8836D01*
Y8664D01*
X8638D01*
X8627Y8662D01*
X8622Y8659D01*
X8613Y8668D01*
X8621Y8681D01*
X8634Y8711D01*
X8640Y8743D01*
Y8775D01*
X8634Y8807D01*
X8621Y8837D01*
X8603Y8864D01*
X8580Y8887D01*
X8553Y8905D01*
X8523Y8918D01*
X8491Y8924D01*
X8459D01*
X8427Y8918D01*
X8397Y8905D01*
X8370Y8887D01*
X8347Y8864D01*
X8329Y8837D01*
X8316Y8807D01*
X8310Y8775D01*
Y8743D01*
X8316Y8711D01*
X8329Y8681D01*
X8347Y8654D01*
X8370Y8631D01*
X8395Y8614D01*
X8394Y8601D01*
X8217D01*
X8206Y8599D01*
X8197Y8593D01*
X8197Y8593D01*
X8171Y8567D01*
X8165Y8558D01*
X8163Y8547D01*
X8163Y8547D01*
Y8474D01*
X8103D01*
X8099Y8478D01*
X8085Y8484D01*
X8070D01*
X8056Y8478D01*
X8045Y8467D01*
X8039Y8453D01*
Y8438D01*
X8045Y8424D01*
X8056Y8413D01*
X8070Y8407D01*
X8085D01*
X8099Y8413D01*
X8103Y8417D01*
X8192D01*
X8202Y8419D01*
X8212Y8425D01*
X8213Y8427D01*
X8226Y8424D01*
Y8380D01*
X8411D01*
Y8434D01*
X8455D01*
Y7990D01*
X8455Y7990D01*
X8457Y7982D01*
X8452Y7977D01*
X8447Y7973D01*
X8444Y7975D01*
X8433Y7977D01*
X8433Y7977D01*
X8383D01*
X8192Y8168D01*
Y8174D01*
X8186Y8188D01*
X8175Y8198D01*
X8161Y8204D01*
X8146D01*
X8132Y8198D01*
X8121Y8188D01*
X8115Y8174D01*
Y8159D01*
X8121Y8145D01*
X8132Y8134D01*
X8146Y8128D01*
X8151D01*
X8351Y7929D01*
X8351Y7929D01*
X8360Y7922D01*
X8371Y7920D01*
X8371Y7920D01*
X8421D01*
X8428Y7914D01*
X8428Y7914D01*
X8437Y7908D01*
X8448Y7905D01*
X8491D01*
X8495Y7893D01*
X8493Y7892D01*
X8487Y7882D01*
X8485Y7872D01*
Y7835D01*
X8144D01*
Y8075D01*
X8141Y8091D01*
X8132Y8104D01*
X8093Y8143D01*
Y8226D01*
X8226D01*
Y8185D01*
X8411D01*
Y8350D01*
X8226D01*
Y8309D01*
X8093D01*
X8090Y8322D01*
X8081Y8335D01*
X8068Y8344D01*
X8052Y8347D01*
X7842D01*
Y8401D01*
X7652D01*
Y8211D01*
X7842D01*
Y8264D01*
X8010D01*
Y8126D01*
X8014Y8110D01*
X8022Y8097D01*
X8061Y8058D01*
Y7807D01*
Y7722D01*
X8064Y7706D01*
X8073Y7692D01*
X8087Y7683D01*
X8103Y7680D01*
X8118Y7683D01*
X8132Y7692D01*
X8141Y7706D01*
X8144Y7722D01*
Y7778D01*
X8485D01*
Y7760D01*
X8472Y7750D01*
X8471Y7750D01*
X8471Y7750D01*
X8232D01*
X8221Y7748D01*
X8212Y7742D01*
X8212Y7742D01*
X8197Y7727D01*
X8191Y7718D01*
X8188Y7707D01*
X8188Y7707D01*
Y7623D01*
X7979D01*
Y7772D01*
X7977Y7783D01*
X7970Y7793D01*
X7970Y7793D01*
X7945Y7818D01*
X7936Y7824D01*
X7925Y7826D01*
X7925Y7826D01*
X7838D01*
X7836Y7835D01*
X7823Y7856D01*
X7805Y7874D01*
X7784Y7887D01*
X7760Y7893D01*
X7734D01*
X7710Y7887D01*
X7689Y7874D01*
X7671Y7856D01*
X7658Y7835D01*
X7652Y7810D01*
Y7785D01*
X7658Y7761D01*
X7671Y7739D01*
X7689Y7722D01*
X7710Y7709D01*
X7734Y7703D01*
X7760D01*
X7784Y7709D01*
X7805Y7722D01*
X7823Y7739D01*
X7836Y7761D01*
X7838Y7769D01*
X7913D01*
X7922Y7761D01*
Y7609D01*
X7922Y7609D01*
X7924Y7599D01*
X7930Y7589D01*
X7934Y7585D01*
X7929Y7572D01*
X7838D01*
X7836Y7581D01*
X7823Y7602D01*
X7805Y7620D01*
X7784Y7633D01*
X7760Y7639D01*
X7734D01*
X7710Y7633D01*
X7689Y7620D01*
X7671Y7602D01*
X7658Y7581D01*
X7652Y7556D01*
Y7531D01*
X7658Y7507D01*
X7671Y7485D01*
X7689Y7468D01*
X7710Y7455D01*
X7734Y7449D01*
X7760D01*
X7784Y7455D01*
X7805Y7468D01*
X7823Y7485D01*
X7836Y7507D01*
X7838Y7515D01*
X8253D01*
X8253Y7515D01*
X8264Y7517D01*
X8273Y7524D01*
X8280Y7531D01*
X8284Y7530D01*
X8293Y7526D01*
X8295Y7518D01*
X8298Y7513D01*
X8300Y7504D01*
X8298Y7495D01*
X8295Y7490D01*
X8293Y7479D01*
X8294Y7470D01*
X8291Y7464D01*
X8287Y7458D01*
X7927D01*
X7916Y7455D01*
X7907Y7449D01*
X7907Y7449D01*
X7892Y7434D01*
X7886Y7425D01*
X7884Y7414D01*
X7884Y7414D01*
Y7318D01*
X7838D01*
X7836Y7327D01*
X7823Y7348D01*
X7805Y7366D01*
X7784Y7379D01*
X7760Y7385D01*
X7734D01*
X7710Y7379D01*
X7689Y7366D01*
X7671Y7348D01*
X7658Y7327D01*
X7652Y7302D01*
Y7277D01*
X7658Y7253D01*
X7671Y7231D01*
X7689Y7214D01*
X7710Y7201D01*
X7734Y7195D01*
X7760D01*
X7784Y7201D01*
X7805Y7214D01*
X7823Y7231D01*
X7836Y7253D01*
X7838Y7261D01*
X7897D01*
X7897Y7261D01*
X7908Y7263D01*
X7917Y7270D01*
X7922Y7274D01*
X7934Y7269D01*
Y7225D01*
X7867Y7158D01*
X7867Y7158D01*
X7813Y7104D01*
X7805Y7112D01*
X7784Y7125D01*
X7760Y7131D01*
X7734D01*
X7710Y7125D01*
X7689Y7112D01*
X7671Y7094D01*
X7658Y7073D01*
X7652Y7048D01*
Y7023D01*
X7658Y6999D01*
X7671Y6977D01*
X7689Y6960D01*
X7710Y6947D01*
X7734Y6941D01*
X7760D01*
X7784Y6947D01*
X7805Y6960D01*
X7823Y6977D01*
X7836Y6999D01*
X7842Y7023D01*
Y7048D01*
X7841Y7053D01*
X7844Y7055D01*
X7907Y7117D01*
X7907Y7117D01*
X7907Y7117D01*
X7983Y7193D01*
X7989Y7203D01*
X7991Y7214D01*
X7991Y7214D01*
Y7350D01*
X8055D01*
X8060Y7337D01*
X8019Y7296D01*
X8013Y7287D01*
X8011Y7276D01*
X8011Y7276D01*
Y7175D01*
X7917Y7081D01*
X7911Y7072D01*
X7909Y7061D01*
X7909Y7061D01*
Y6874D01*
X7861D01*
X7850Y6872D01*
X7841Y6865D01*
X7841Y6865D01*
X7824Y6848D01*
X7818Y6839D01*
X7816Y6828D01*
X7816Y6828D01*
Y6773D01*
X7761D01*
Y6593D01*
X7749Y6589D01*
X7747Y6591D01*
X7569Y6934D01*
X7442Y7455D01*
Y7963D01*
X7557Y8446D01*
X7785Y8877D01*
X8026Y9182D01*
X8331Y9436D01*
X8714Y9634D01*
X8722Y9623D01*
D02*
G37*
G36*
X9373Y9392D02*
X9398D01*
X9405Y9394D01*
X9418Y9384D01*
Y9012D01*
X9410Y9009D01*
X9405Y9008D01*
X9395Y9015D01*
X9381Y9017D01*
X9368Y9015D01*
X9357Y9008D01*
X9353Y9009D01*
X9345Y9012D01*
Y9386D01*
X9353Y9395D01*
X9357Y9396D01*
X9373Y9392D01*
D02*
G37*
G36*
X11190Y8800D02*
X11185Y8787D01*
X11141D01*
X11129Y8788D01*
X11125Y8812D01*
X11116Y8834D01*
X11102Y8854D01*
X11102Y8854D01*
X10784Y9171D01*
X10765Y9186D01*
X10743Y9195D01*
X10719Y9198D01*
X10567D01*
X10229Y9535D01*
X10224Y9545D01*
X10206Y9563D01*
X10184Y9576D01*
X10160Y9582D01*
X10135D01*
X10111Y9576D01*
X10089Y9563D01*
X10071Y9545D01*
X10059Y9524D01*
X10052Y9499D01*
Y9474D01*
X10058Y9453D01*
X10052Y9447D01*
X10047Y9445D01*
X9987Y9506D01*
X9982Y9524D01*
X9970Y9545D01*
X9952Y9563D01*
X9930Y9576D01*
X9906Y9582D01*
X9881D01*
X9857Y9576D01*
X9835Y9563D01*
X9817Y9545D01*
X9805Y9524D01*
X9798Y9499D01*
Y9474D01*
X9805Y9450D01*
X9817Y9428D01*
X9835Y9411D01*
X9857Y9398D01*
X9875Y9393D01*
X10055Y9213D01*
Y9081D01*
X10058Y9060D01*
X10066Y9041D01*
X10078Y9024D01*
X10095Y9012D01*
X10114Y9004D01*
X10135Y9001D01*
X10155Y9004D01*
X10174Y9012D01*
X10191Y9024D01*
X10203Y9041D01*
X10211Y9060D01*
X10214Y9081D01*
Y9246D01*
X10214Y9246D01*
X10213Y9256D01*
X10211Y9266D01*
X10205Y9280D01*
X10216Y9288D01*
X10463Y9041D01*
X10463Y9041D01*
X10482Y9026D01*
X10504Y9017D01*
X10528Y9014D01*
X10681D01*
X10944Y8750D01*
Y8695D01*
X10945Y8689D01*
Y8486D01*
X11303D01*
X11305Y8486D01*
X11316Y8481D01*
Y8056D01*
X11305Y8050D01*
X10945D01*
Y7992D01*
X10692D01*
Y8052D01*
X10441D01*
Y8030D01*
X10319D01*
Y8053D01*
X10128D01*
Y8017D01*
X10062D01*
Y8105D01*
X10068D01*
Y8202D01*
X9963D01*
Y8274D01*
X10128D01*
Y8238D01*
X10211D01*
X10224Y8236D01*
X10239D01*
X10239Y8236D01*
X10252Y8238D01*
X10319D01*
Y8283D01*
X10323Y8288D01*
X10441D01*
Y8242D01*
X10692D01*
Y8522D01*
X10441D01*
Y8447D01*
X10291D01*
X10290Y8447D01*
X10270Y8444D01*
X10251Y8436D01*
X10240Y8427D01*
X10239Y8427D01*
X10227Y8434D01*
Y8685D01*
X10224Y8701D01*
X10215Y8714D01*
X10196Y8733D01*
Y8779D01*
X10276D01*
X10284Y8771D01*
Y8560D01*
X10287Y8544D01*
X10296Y8531D01*
X10309Y8522D01*
X10325Y8518D01*
X10341Y8522D01*
X10354Y8531D01*
X10363Y8544D01*
X10367Y8560D01*
Y8788D01*
X10363Y8804D01*
X10354Y8818D01*
X10322Y8850D01*
X10309Y8859D01*
X10293Y8862D01*
X10196D01*
Y8872D01*
X10098D01*
Y8862D01*
X9980D01*
Y8872D01*
X9960D01*
Y9246D01*
X9958Y9257D01*
X9952Y9266D01*
X9952Y9266D01*
X9888Y9329D01*
X9879Y9335D01*
X9868Y9338D01*
X9868Y9338D01*
X9526D01*
X9515Y9335D01*
X9506Y9329D01*
X9506Y9329D01*
X9491Y9314D01*
X9487Y9309D01*
X9475Y9313D01*
Y9405D01*
X9475Y9405D01*
X9473Y9416D01*
X9466Y9425D01*
X9466Y9425D01*
X9462Y9429D01*
X9474Y9450D01*
X9481Y9474D01*
Y9499D01*
X9474Y9524D01*
X9462Y9545D01*
X9444Y9563D01*
X9422Y9576D01*
X9398Y9582D01*
X9373D01*
X9349Y9576D01*
X9327Y9563D01*
X9309Y9545D01*
X9297Y9524D01*
X9290Y9499D01*
Y9485D01*
X9277Y9478D01*
X9274Y9480D01*
Y9599D01*
X9272Y9610D01*
X9266Y9619D01*
X9266Y9619D01*
X9258Y9627D01*
X9264Y9639D01*
X10350D01*
X11190Y8800D01*
D02*
G37*
G36*
X9814Y8740D02*
X9814Y8740D01*
X9816Y8729D01*
X9822Y8720D01*
X9837Y8705D01*
X9837Y8705D01*
X9846Y8699D01*
X9857Y8696D01*
X9883D01*
Y8674D01*
X9980D01*
Y8779D01*
X10098D01*
Y8674D01*
X10138D01*
X10144Y8668D01*
Y8393D01*
X10128D01*
Y8357D01*
X9954D01*
X9951Y8361D01*
X9938Y8369D01*
X9922Y8373D01*
X9916Y8372D01*
X9914Y8374D01*
X9905Y8380D01*
X9894Y8382D01*
X9894Y8382D01*
X9741D01*
Y8417D01*
X9738Y8431D01*
X9732Y8440D01*
Y8457D01*
X9732Y8457D01*
X9730Y8468D01*
X9724Y8477D01*
X9687Y8514D01*
X9678Y8520D01*
X9667Y8522D01*
X9667Y8522D01*
X9558D01*
Y8806D01*
X9009D01*
Y8664D01*
X8890D01*
Y8825D01*
X8898Y8828D01*
X8902Y8829D01*
X8913Y8823D01*
X8926Y8820D01*
X8940Y8823D01*
X8951Y8830D01*
X8951Y8830D01*
X8966D01*
X8966Y8830D01*
X8978Y8823D01*
X8991Y8820D01*
X9005Y8823D01*
X9016Y8830D01*
X9016Y8830D01*
X9031D01*
X9031Y8830D01*
X9043Y8823D01*
X9056Y8820D01*
X9070Y8823D01*
X9081Y8830D01*
X9081Y8830D01*
X9096D01*
X9096Y8830D01*
X9108Y8823D01*
X9121Y8820D01*
X9135Y8823D01*
X9146Y8830D01*
X9146Y8830D01*
X9161D01*
X9161Y8830D01*
X9173Y8823D01*
X9186Y8820D01*
X9200Y8823D01*
X9211Y8830D01*
X9211Y8830D01*
X9226D01*
X9226Y8830D01*
X9238Y8823D01*
X9251Y8820D01*
X9265Y8823D01*
X9276Y8830D01*
X9276Y8830D01*
X9291D01*
X9291Y8830D01*
X9303Y8823D01*
X9316Y8820D01*
X9330Y8823D01*
X9341Y8830D01*
X9341Y8830D01*
X9356D01*
X9356Y8830D01*
X9368Y8823D01*
X9381Y8820D01*
X9395Y8823D01*
X9406Y8830D01*
X9406Y8830D01*
X9421D01*
X9421Y8830D01*
X9433Y8823D01*
X9446Y8820D01*
X9460Y8823D01*
X9471Y8830D01*
X9471Y8830D01*
X9486D01*
X9486Y8830D01*
X9498Y8823D01*
X9511Y8820D01*
X9525Y8823D01*
X9536Y8830D01*
X9536Y8830D01*
X9551D01*
X9551Y8830D01*
X9563Y8823D01*
X9576Y8820D01*
X9590Y8823D01*
X9601Y8830D01*
X9601Y8830D01*
X9616D01*
X9616Y8830D01*
X9628Y8823D01*
X9641Y8820D01*
X9655Y8823D01*
X9659Y8826D01*
X9672Y8821D01*
X9678Y8810D01*
Y8613D01*
X9678Y8613D01*
X9680Y8602D01*
X9686Y8593D01*
X9714Y8565D01*
X9714Y8565D01*
X9723Y8559D01*
X9734Y8557D01*
X9734Y8557D01*
X9893D01*
X9897Y8553D01*
X9911Y8547D01*
X9926D01*
X9940Y8553D01*
X9951Y8564D01*
X9957Y8578D01*
Y8593D01*
X9951Y8607D01*
X9940Y8618D01*
X9926Y8623D01*
X9911D01*
X9897Y8618D01*
X9893Y8614D01*
X9746D01*
X9735Y8625D01*
Y8821D01*
X9740D01*
Y9017D01*
X9672D01*
X9670Y9028D01*
Y9105D01*
X9692Y9127D01*
X9698D01*
X9712Y9133D01*
X9722Y9144D01*
X9728Y9158D01*
Y9173D01*
X9722Y9187D01*
X9712Y9198D01*
X9698Y9203D01*
X9683D01*
X9669Y9198D01*
X9658Y9187D01*
X9652Y9173D01*
Y9168D01*
X9621Y9137D01*
X9617Y9131D01*
X9605Y9135D01*
Y9217D01*
X9814D01*
Y8740D01*
D02*
G37*
G36*
X9009Y8466D02*
X9223D01*
Y8447D01*
X9215Y8444D01*
X9210Y8443D01*
X9200Y8449D01*
X9186Y8452D01*
X9173Y8449D01*
X9161Y8442D01*
X9161Y8442D01*
X9146D01*
X9146Y8442D01*
X9135Y8449D01*
X9121Y8452D01*
X9108Y8449D01*
X9096Y8442D01*
X9096Y8442D01*
X9081D01*
X9081Y8442D01*
X9070Y8449D01*
X9056Y8452D01*
X9043Y8449D01*
X9031Y8442D01*
X9031Y8442D01*
X9016D01*
X9016Y8442D01*
X9005Y8449D01*
X8991Y8452D01*
X8978Y8449D01*
X8966Y8442D01*
X8966Y8442D01*
X8951D01*
X8951Y8442D01*
X8940Y8449D01*
X8926Y8452D01*
X8913Y8449D01*
X8901Y8442D01*
X8901Y8442D01*
X8886D01*
X8886Y8442D01*
X8875Y8449D01*
X8861Y8452D01*
X8848Y8449D01*
X8836Y8442D01*
X8829Y8431D01*
X8826Y8417D01*
Y8382D01*
X8765D01*
X8754Y8380D01*
X8745Y8374D01*
X8745Y8374D01*
X8730Y8359D01*
X8730Y8359D01*
X8701Y8329D01*
X8689Y8334D01*
Y8372D01*
Y8536D01*
X8652D01*
Y8608D01*
X9009D01*
Y8466D01*
D02*
G37*
G36*
X9880Y8202D02*
X9871D01*
Y8105D01*
X9883D01*
Y8012D01*
X9874D01*
Y7914D01*
X10071D01*
Y7933D01*
X10072Y7933D01*
X10074Y7934D01*
X10128D01*
Y7898D01*
X10319D01*
Y7921D01*
X10441D01*
Y7772D01*
X10692D01*
Y7807D01*
X10822D01*
X10827Y7795D01*
X10703Y7671D01*
X10689Y7652D01*
X10679Y7630D01*
X10676Y7606D01*
Y7449D01*
X10598D01*
Y7427D01*
X10582Y7415D01*
X10582Y7415D01*
X10201Y7034D01*
X10141D01*
Y6703D01*
X10331D01*
Y6903D01*
X10685Y7257D01*
X10770D01*
X10776Y7258D01*
X10949D01*
Y7449D01*
X10861D01*
Y7568D01*
X11042Y7749D01*
X11305D01*
X11316Y7743D01*
Y7696D01*
X11519Y7493D01*
Y7277D01*
X11379Y7137D01*
Y6820D01*
X11278Y6579D01*
X11254Y6546D01*
X11242Y6551D01*
X11243Y6553D01*
Y6593D01*
X11252D01*
Y6691D01*
X11243D01*
Y6750D01*
X11317D01*
Y6833D01*
X11319Y6845D01*
Y7258D01*
X11449D01*
Y7449D01*
X11098D01*
Y7258D01*
X11160D01*
Y6845D01*
X11162Y6833D01*
Y6812D01*
X11161Y6808D01*
Y6766D01*
X11160Y6761D01*
Y6691D01*
X11055D01*
Y6690D01*
X10984D01*
Y6700D01*
X10976D01*
Y6750D01*
X10977D01*
Y6941D01*
X10822D01*
Y6750D01*
X10893D01*
Y6700D01*
X10886D01*
Y6690D01*
X10782D01*
X10766Y6687D01*
X10753Y6678D01*
X10753Y6678D01*
X10739Y6680D01*
X10734Y6707D01*
X10721Y6737D01*
X10703Y6764D01*
X10680Y6787D01*
X10653Y6805D01*
X10623Y6818D01*
X10591Y6824D01*
X10559D01*
X10527Y6818D01*
X10497Y6805D01*
X10470Y6787D01*
X10447Y6764D01*
X10429Y6737D01*
X10416Y6707D01*
X10410Y6675D01*
Y6643D01*
X10416Y6611D01*
X10429Y6581D01*
X10447Y6554D01*
X10470Y6531D01*
X10497Y6512D01*
X10527Y6500D01*
X10559Y6494D01*
X10591D01*
X10623Y6500D01*
X10653Y6512D01*
X10680Y6531D01*
X10703Y6554D01*
X10721Y6581D01*
X10728Y6597D01*
X10741Y6594D01*
Y6426D01*
X10728Y6417D01*
X10689Y6379D01*
X10681Y6366D01*
X10677Y6350D01*
Y6309D01*
X10670D01*
Y6300D01*
X10552D01*
Y6309D01*
X10544D01*
Y6401D01*
X10541Y6417D01*
X10532Y6430D01*
X10405Y6557D01*
X10392Y6566D01*
X10376Y6569D01*
X9877D01*
X9821Y6626D01*
Y6703D01*
X9874D01*
Y7034D01*
X9684D01*
Y6703D01*
X9738D01*
Y6608D01*
X9741Y6593D01*
X9750Y6579D01*
X9830Y6499D01*
X9832Y6497D01*
X9828Y6485D01*
X9702D01*
Y5834D01*
X10001D01*
X10008Y5829D01*
X10019Y5826D01*
X10030Y5828D01*
X10040Y5834D01*
X10040Y5834D01*
X10313D01*
Y6118D01*
X10454D01*
Y6111D01*
X10552D01*
Y6121D01*
X10670D01*
Y6111D01*
X10768D01*
Y6131D01*
X10817D01*
X10833Y6135D01*
X10847Y6144D01*
X10944Y6241D01*
X10984D01*
Y6261D01*
X11002D01*
X11014Y6264D01*
X11022Y6253D01*
X10909Y6134D01*
X10604Y5906D01*
X10084Y5690D01*
X8992D01*
X8661Y5804D01*
X8230Y6045D01*
X7938Y6337D01*
X7759Y6576D01*
X7766Y6587D01*
X7927D01*
Y6773D01*
X7873D01*
Y6816D01*
X7873Y6817D01*
X7923D01*
X7923Y6817D01*
X7934Y6819D01*
X7943Y6825D01*
X7958Y6840D01*
X7958Y6840D01*
X7964Y6849D01*
X7966Y6860D01*
Y7049D01*
X8059Y7143D01*
X8059Y7143D01*
X8065Y7152D01*
X8068Y7163D01*
Y7264D01*
X8094Y7291D01*
X8094Y7291D01*
X8098Y7277D01*
X8095Y7274D01*
X8089Y7265D01*
X8087Y7254D01*
X8087Y7254D01*
Y7163D01*
X8083Y7159D01*
X8077Y7145D01*
Y7130D01*
X8083Y7116D01*
X8094Y7105D01*
X8108Y7099D01*
X8123D01*
X8135Y7104D01*
X8148Y7099D01*
Y7049D01*
X8100D01*
X8100Y7049D01*
X8089Y7047D01*
X8080Y7041D01*
X8080Y7041D01*
X8010Y6971D01*
X8004Y6962D01*
X8002Y6951D01*
X8002Y6951D01*
Y6951D01*
X7994Y6943D01*
X7988Y6929D01*
Y6914D01*
X7994Y6900D01*
X8005Y6889D01*
X8019Y6883D01*
X8034D01*
X8048Y6889D01*
X8059Y6900D01*
X8064Y6914D01*
Y6929D01*
X8060Y6940D01*
X8112Y6992D01*
X8142D01*
X8147Y6980D01*
X8094Y6928D01*
X8088Y6919D01*
X8086Y6908D01*
X8086Y6908D01*
Y6773D01*
X7956D01*
Y6587D01*
X7998D01*
Y6540D01*
X8001Y6525D01*
X8010Y6511D01*
X8263Y6258D01*
X8276Y6249D01*
X8292Y6246D01*
X8462D01*
X8468Y6241D01*
Y6075D01*
X8471Y6059D01*
X8480Y6046D01*
X8509Y6016D01*
X8523Y6007D01*
X8539Y6004D01*
X8591D01*
Y5992D01*
X8706D01*
Y6004D01*
X8751D01*
Y5940D01*
X8902D01*
Y6013D01*
X8903Y6015D01*
X8913Y6017D01*
X8925Y6008D01*
Y5933D01*
X8925Y5933D01*
X8927Y5922D01*
X8933Y5913D01*
X8948Y5898D01*
X8948Y5898D01*
X8957Y5892D01*
X8968Y5890D01*
X9248D01*
Y5867D01*
X9345D01*
Y5963D01*
Y6065D01*
X9345D01*
X9348Y6076D01*
X9357Y6085D01*
X9370Y6080D01*
Y5867D01*
X9348Y5845D01*
X9195D01*
X9191Y5849D01*
X9177Y5855D01*
X9162D01*
X9148Y5849D01*
X9137Y5838D01*
X9131Y5824D01*
Y5809D01*
X9137Y5795D01*
X9148Y5784D01*
X9162Y5778D01*
X9177D01*
X9191Y5784D01*
X9195Y5788D01*
X9360D01*
X9360Y5788D01*
X9371Y5790D01*
X9380Y5796D01*
X9418Y5835D01*
X9424Y5844D01*
X9426Y5855D01*
X9436Y5861D01*
X9605D01*
Y6026D01*
X9426D01*
Y6056D01*
X9605D01*
Y6221D01*
X9420D01*
Y6180D01*
X9352D01*
X9336Y6177D01*
X9322Y6168D01*
X9270Y6116D01*
X9261Y6102D01*
X9258Y6086D01*
Y6065D01*
X9248D01*
Y5947D01*
X9142D01*
Y6150D01*
X9108D01*
Y6205D01*
X9136Y6232D01*
X9188D01*
Y6221D01*
X9303D01*
Y6239D01*
X9311Y6248D01*
X9322Y6250D01*
X9331Y6256D01*
X9367Y6292D01*
X9367Y6292D01*
X9374Y6301D01*
X9376Y6312D01*
X9376Y6312D01*
Y6452D01*
X9376Y6452D01*
X9374Y6463D01*
X9367Y6472D01*
X9329Y6510D01*
X9320Y6516D01*
X9309Y6518D01*
X9309Y6518D01*
X9185D01*
Y6564D01*
X9183Y6575D01*
X9177Y6584D01*
X9177Y6584D01*
X9162Y6599D01*
X9153Y6605D01*
X9152Y6605D01*
X9148Y6619D01*
X9260Y6731D01*
X9266D01*
X9280Y6737D01*
X9291Y6748D01*
X9296Y6762D01*
Y6777D01*
X9291Y6791D01*
X9280Y6801D01*
X9266Y6807D01*
X9251D01*
X9237Y6801D01*
X9226Y6791D01*
X9220Y6777D01*
Y6771D01*
X9107Y6658D01*
X8842D01*
Y6724D01*
X8855Y6732D01*
X8857Y6731D01*
X8872D01*
X8886Y6737D01*
X8897Y6748D01*
X8903Y6762D01*
Y6777D01*
X8897Y6791D01*
X8893Y6794D01*
Y6835D01*
X8906Y6840D01*
X8951Y6795D01*
X8951Y6795D01*
X8960Y6789D01*
X8971Y6786D01*
X8971Y6786D01*
X8998D01*
X9017Y6767D01*
Y6762D01*
X9023Y6748D01*
X9034Y6737D01*
X9048Y6731D01*
X9063D01*
X9077Y6737D01*
X9087Y6748D01*
X9093Y6762D01*
Y6777D01*
X9087Y6791D01*
X9077Y6801D01*
X9063Y6807D01*
X9057D01*
X9047Y6818D01*
X9052Y6830D01*
X9091D01*
X9091Y6830D01*
X9102Y6832D01*
X9111Y6838D01*
X9126Y6853D01*
X9126Y6853D01*
X9132Y6862D01*
X9134Y6873D01*
Y7033D01*
X9585D01*
Y6607D01*
X9309D01*
X9305Y6611D01*
X9291Y6617D01*
X9276D01*
X9262Y6611D01*
X9251Y6600D01*
X9246Y6586D01*
Y6571D01*
X9251Y6557D01*
X9262Y6546D01*
X9276Y6540D01*
X9291D01*
X9305Y6546D01*
X9309Y6550D01*
X9599D01*
X9599Y6550D01*
X9610Y6552D01*
X9619Y6558D01*
X9634Y6573D01*
X9634Y6573D01*
X9640Y6583D01*
X9642Y6593D01*
Y7046D01*
X9640Y7057D01*
X9634Y7066D01*
X9634Y7066D01*
X9619Y7081D01*
X9610Y7088D01*
X9599Y7090D01*
X9599Y7090D01*
X9265D01*
X9264Y7102D01*
X9267Y7103D01*
X9276Y7109D01*
X9282Y7118D01*
X9284Y7129D01*
X9282Y7140D01*
X9276Y7149D01*
Y7159D01*
X9282Y7168D01*
X9284Y7179D01*
X9282Y7190D01*
X9276Y7199D01*
Y7209D01*
X9282Y7218D01*
X9284Y7229D01*
X9282Y7240D01*
X9276Y7249D01*
Y7259D01*
X9282Y7268D01*
X9284Y7279D01*
X9282Y7290D01*
X9276Y7299D01*
Y7309D01*
X9282Y7318D01*
X9284Y7329D01*
X9282Y7340D01*
X9276Y7349D01*
Y7359D01*
X9282Y7368D01*
X9284Y7379D01*
X9282Y7390D01*
X9276Y7399D01*
Y7409D01*
X9282Y7418D01*
X9284Y7429D01*
X9282Y7440D01*
X9276Y7449D01*
Y7459D01*
X9282Y7468D01*
X9284Y7479D01*
X9282Y7490D01*
X9276Y7499D01*
Y7509D01*
X9282Y7518D01*
X9284Y7529D01*
X9282Y7540D01*
X9276Y7549D01*
Y7559D01*
X9282Y7568D01*
X9284Y7579D01*
X9282Y7588D01*
X9286Y7595D01*
X9290Y7601D01*
X9429D01*
X9468Y7562D01*
X9468Y7562D01*
X9478Y7556D01*
X9488Y7553D01*
X9488Y7553D01*
X9497D01*
X9501Y7550D01*
X9515Y7544D01*
X9530D01*
X9544Y7550D01*
X9555Y7560D01*
X9561Y7574D01*
Y7589D01*
X9555Y7603D01*
X9544Y7614D01*
X9530Y7620D01*
X9515D01*
X9501Y7614D01*
X9499Y7612D01*
X9473Y7638D01*
X9478Y7651D01*
X9757D01*
X9768Y7653D01*
X9777Y7659D01*
X9783Y7668D01*
X9785Y7679D01*
Y8077D01*
X9789Y8081D01*
X9795Y8095D01*
Y8110D01*
X9789Y8124D01*
X9778Y8135D01*
X9764Y8141D01*
X9749D01*
X9735Y8135D01*
X9724Y8124D01*
X9719Y8110D01*
Y8095D01*
X9724Y8081D01*
X9728Y8077D01*
Y7708D01*
X9191D01*
X9190Y7707D01*
X9126D01*
X9115Y7705D01*
X9106Y7699D01*
X9100Y7690D01*
X9098Y7679D01*
X9100Y7668D01*
X9106Y7659D01*
Y7649D01*
X9100Y7640D01*
X9098Y7629D01*
X9100Y7618D01*
X9106Y7609D01*
Y7599D01*
X9100Y7590D01*
X9098Y7579D01*
X9100Y7568D01*
X9106Y7559D01*
Y7549D01*
X9100Y7540D01*
X9098Y7529D01*
X9100Y7518D01*
X9106Y7509D01*
Y7499D01*
X9100Y7490D01*
X9098Y7479D01*
X9100Y7468D01*
X9106Y7459D01*
Y7449D01*
X9100Y7440D01*
X9098Y7429D01*
X9100Y7418D01*
X9106Y7409D01*
Y7399D01*
X9100Y7390D01*
X9098Y7379D01*
X9100Y7368D01*
X9106Y7359D01*
Y7349D01*
X9100Y7340D01*
X9098Y7329D01*
X9100Y7318D01*
X9106Y7309D01*
Y7299D01*
X9100Y7290D01*
X9098Y7279D01*
X9100Y7268D01*
X9106Y7259D01*
Y7249D01*
X9100Y7240D01*
X9098Y7229D01*
X9100Y7218D01*
X9106Y7209D01*
Y7199D01*
X9100Y7190D01*
X9098Y7179D01*
X9100Y7168D01*
X9106Y7159D01*
Y7149D01*
X9100Y7140D01*
X9098Y7129D01*
X9100Y7118D01*
X9106Y7109D01*
X9115Y7103D01*
X9120Y7102D01*
X9121Y7090D01*
X9110Y7088D01*
X9101Y7082D01*
X9100Y7081D01*
X9085Y7084D01*
X9083Y7087D01*
X9074Y7093D01*
X9063Y7095D01*
X9053Y7093D01*
X9043Y7087D01*
X9033D01*
X9024Y7093D01*
X9013Y7095D01*
X9003Y7093D01*
X8997Y7089D01*
X8988Y7087D01*
X8980Y7089D01*
X8974Y7093D01*
X8963Y7095D01*
X8953Y7093D01*
X8947Y7089D01*
X8938Y7087D01*
X8930Y7089D01*
X8924Y7093D01*
X8913Y7095D01*
X8903Y7093D01*
X8893Y7087D01*
X8883D01*
X8874Y7093D01*
X8863Y7095D01*
X8853Y7093D01*
X8847Y7089D01*
X8838Y7087D01*
X8830Y7089D01*
X8824Y7093D01*
X8813Y7095D01*
X8803Y7093D01*
X8793Y7087D01*
X8783D01*
X8774Y7093D01*
X8763Y7095D01*
X8753Y7093D01*
X8747Y7089D01*
X8738Y7087D01*
X8730Y7089D01*
X8724Y7093D01*
X8713Y7095D01*
X8703Y7093D01*
X8697Y7089D01*
X8688Y7087D01*
X8680Y7089D01*
X8674Y7093D01*
X8663Y7095D01*
X8653Y7093D01*
X8643Y7087D01*
X8633D01*
X8624Y7093D01*
X8613Y7095D01*
X8603Y7093D01*
X8597Y7089D01*
X8588Y7087D01*
X8580Y7089D01*
X8574Y7093D01*
X8563Y7095D01*
X8553Y7093D01*
X8547Y7089D01*
X8538Y7087D01*
X8530Y7089D01*
X8524Y7093D01*
X8513Y7095D01*
X8503Y7093D01*
X8493Y7087D01*
X8487Y7077D01*
X8485Y7067D01*
Y7030D01*
X8336D01*
Y7101D01*
X8386D01*
X8387Y7101D01*
X8451D01*
X8462Y7103D01*
X8471Y7109D01*
X8477Y7118D01*
X8479Y7129D01*
X8477Y7140D01*
X8473Y7145D01*
X8472Y7154D01*
X8473Y7163D01*
X8477Y7168D01*
X8479Y7179D01*
X8477Y7190D01*
X8473Y7195D01*
X8472Y7204D01*
X8473Y7213D01*
X8477Y7218D01*
X8479Y7229D01*
X8477Y7240D01*
X8473Y7245D01*
X8472Y7254D01*
X8473Y7263D01*
X8477Y7268D01*
X8479Y7279D01*
X8477Y7290D01*
X8473Y7295D01*
X8472Y7304D01*
X8473Y7313D01*
X8477Y7318D01*
X8479Y7329D01*
X8477Y7340D01*
X8473Y7345D01*
X8472Y7354D01*
X8473Y7363D01*
X8477Y7368D01*
X8479Y7379D01*
X8477Y7390D01*
X8471Y7399D01*
Y7409D01*
X8477Y7418D01*
X8479Y7429D01*
X8477Y7440D01*
X8473Y7445D01*
X8472Y7454D01*
X8473Y7463D01*
X8477Y7468D01*
X8479Y7479D01*
X8477Y7490D01*
X8473Y7495D01*
X8472Y7504D01*
X8473Y7513D01*
X8477Y7518D01*
X8479Y7529D01*
X8477Y7540D01*
X8473Y7545D01*
X8472Y7554D01*
X8473Y7563D01*
X8477Y7568D01*
X8479Y7579D01*
X8477Y7590D01*
X8473Y7595D01*
X8472Y7604D01*
X8473Y7613D01*
X8477Y7618D01*
X8479Y7629D01*
X8477Y7640D01*
X8471Y7649D01*
Y7659D01*
X8473Y7662D01*
X8488Y7664D01*
X8489Y7663D01*
X8498Y7657D01*
X8509Y7655D01*
X8509Y7655D01*
X8599D01*
X8599Y7655D01*
X8609Y7657D01*
X8619Y7663D01*
X8634Y7678D01*
X8634Y7678D01*
X8640Y7687D01*
X8642Y7698D01*
Y7707D01*
X8648Y7712D01*
X8655Y7715D01*
X8663Y7713D01*
X8674Y7715D01*
X8680Y7719D01*
X8688Y7721D01*
X8697Y7719D01*
X8703Y7715D01*
X8713Y7713D01*
X8722Y7715D01*
X8729Y7712D01*
X8735Y7707D01*
Y7547D01*
X8598D01*
X8587Y7545D01*
X8578Y7539D01*
X8572Y7529D01*
X8569Y7518D01*
Y7226D01*
X8566Y7222D01*
X8560Y7208D01*
Y7193D01*
X8566Y7179D01*
X8576Y7169D01*
X8590Y7163D01*
X8605D01*
X8619Y7169D01*
X8630Y7179D01*
X8636Y7193D01*
Y7208D01*
X8630Y7222D01*
X8626Y7226D01*
Y7490D01*
X8763D01*
X8774Y7492D01*
X8784Y7498D01*
X8790Y7507D01*
X8792Y7518D01*
Y7707D01*
X8798Y7712D01*
X8805Y7715D01*
X8813Y7713D01*
X8822Y7715D01*
X8829Y7712D01*
X8835Y7707D01*
Y7471D01*
X8788D01*
X8777Y7469D01*
X8768Y7462D01*
X8762Y7453D01*
X8760Y7442D01*
Y7226D01*
X8756Y7222D01*
X8750Y7208D01*
Y7193D01*
X8756Y7179D01*
X8767Y7169D01*
X8781Y7163D01*
X8796D01*
X8810Y7169D01*
X8821Y7179D01*
X8826Y7193D01*
Y7208D01*
X8821Y7222D01*
X8817Y7226D01*
Y7414D01*
X8863D01*
X8874Y7416D01*
X8884Y7422D01*
X8890Y7431D01*
X8892Y7442D01*
Y7707D01*
X8898Y7712D01*
X8905Y7715D01*
X8913Y7713D01*
X8922Y7715D01*
X8929Y7712D01*
X8935Y7707D01*
Y7226D01*
X8935Y7225D01*
X8935Y7224D01*
X8934Y7222D01*
X8928Y7208D01*
Y7193D01*
X8934Y7179D01*
X8945Y7169D01*
X8959Y7163D01*
X8974D01*
X8988Y7169D01*
X8999Y7179D01*
X9004Y7193D01*
Y7208D01*
X8999Y7222D01*
X8992Y7229D01*
Y7707D01*
X8998Y7712D01*
X9005Y7715D01*
X9013Y7713D01*
X9024Y7715D01*
X9030Y7719D01*
X9038Y7721D01*
X9047Y7719D01*
X9053Y7715D01*
X9063Y7713D01*
X9074Y7715D01*
X9083Y7722D01*
X9090Y7731D01*
X9092Y7742D01*
Y7872D01*
X9090Y7882D01*
X9089Y7884D01*
X9096Y7896D01*
X9626D01*
X9626Y7896D01*
X9637Y7898D01*
X9646Y7905D01*
X9661Y7920D01*
X9661Y7920D01*
X9668Y7929D01*
X9670Y7940D01*
Y8260D01*
X9678Y8263D01*
X9682Y8264D01*
X9693Y8257D01*
X9706Y8255D01*
X9720Y8257D01*
X9731Y8265D01*
X9738Y8276D01*
X9741Y8290D01*
Y8325D01*
X9880D01*
Y8202D01*
D02*
G37*
G36*
X8557Y8536D02*
Y8372D01*
Y8224D01*
X8595D01*
Y8141D01*
X8591Y8137D01*
X8585Y8123D01*
Y8108D01*
X8591Y8094D01*
X8602Y8083D01*
X8616Y8077D01*
X8631D01*
X8645Y8083D01*
X8656Y8094D01*
X8661Y8108D01*
Y8123D01*
X8656Y8137D01*
X8652Y8141D01*
Y8224D01*
X8679D01*
X8686Y8215D01*
X8687Y8211D01*
X8685Y8202D01*
X8685Y8202D01*
Y8004D01*
X8512D01*
Y8448D01*
X8510Y8459D01*
X8504Y8468D01*
X8504Y8468D01*
X8489Y8483D01*
X8480Y8489D01*
X8469Y8491D01*
X8469Y8491D01*
X8411D01*
Y8544D01*
X8548D01*
X8557Y8536D01*
D02*
G37*
G36*
X8279Y6982D02*
Y6897D01*
X8240Y6858D01*
X8235D01*
X8221Y6852D01*
X8210Y6841D01*
X8204Y6827D01*
Y6812D01*
X8210Y6798D01*
X8214Y6795D01*
Y6486D01*
X8214Y6486D01*
X8216Y6475D01*
X8222Y6466D01*
X8333Y6355D01*
X8333Y6355D01*
X8342Y6349D01*
X8353Y6347D01*
X8353Y6347D01*
X8391D01*
X8397Y6342D01*
X8391Y6329D01*
X8309D01*
X8081Y6558D01*
Y6587D01*
X8122D01*
Y6727D01*
X8135Y6740D01*
X8135Y6740D01*
X8141Y6749D01*
X8143Y6760D01*
Y6896D01*
X8203Y6957D01*
X8227D01*
X8227Y6957D01*
X8238Y6959D01*
X8248Y6965D01*
X8262Y6980D01*
X8262Y6980D01*
X8266Y6986D01*
X8279Y6982D01*
D02*
G37*
G36*
X10886Y6502D02*
X10984D01*
Y6512D01*
X11027D01*
Y6386D01*
X10996Y6356D01*
X10984Y6361D01*
Y6439D01*
X10886D01*
Y6430D01*
X10824D01*
Y6607D01*
X10886D01*
Y6502D01*
D02*
G37*
G36*
X9319Y6430D02*
Y6332D01*
X9315Y6330D01*
X9303Y6327D01*
Y6327D01*
X9188D01*
Y6315D01*
X9119D01*
X9103Y6312D01*
X9089Y6303D01*
X9037Y6251D01*
X9028Y6238D01*
X9025Y6222D01*
Y6150D01*
X8991D01*
Y6130D01*
X8979Y6125D01*
X8975Y6128D01*
X8961Y6134D01*
X8946D01*
X8932Y6128D01*
X8921Y6118D01*
X8917Y6108D01*
X8914Y6107D01*
X8902Y6114D01*
Y6150D01*
X8874D01*
Y6183D01*
X9031Y6339D01*
X9032D01*
X9036Y6340D01*
X9142D01*
Y6357D01*
X9188D01*
Y6346D01*
X9303D01*
Y6425D01*
X9316Y6432D01*
X9319Y6430D01*
D02*
G37*
G36*
X10461Y6384D02*
Y6309D01*
X10454D01*
Y6201D01*
X10313D01*
Y6485D01*
X10325Y6486D01*
X10359D01*
X10461Y6384D01*
D02*
G37*
G36*
X8485Y6937D02*
X8487Y6926D01*
X8493Y6917D01*
X8503Y6910D01*
X8513Y6908D01*
X8524Y6910D01*
X8530Y6914D01*
X8538Y6916D01*
X8547Y6914D01*
X8553Y6910D01*
X8563Y6908D01*
X8574Y6910D01*
X8580Y6914D01*
X8588Y6916D01*
X8597Y6914D01*
X8603Y6910D01*
X8613Y6908D01*
X8624Y6910D01*
X8633Y6917D01*
X8643D01*
X8653Y6910D01*
X8663Y6908D01*
X8672Y6910D01*
X8680Y6906D01*
X8685Y6902D01*
Y6479D01*
X8685Y6479D01*
X8687Y6468D01*
X8693Y6459D01*
X8708Y6444D01*
X8708Y6444D01*
X8717Y6438D01*
X8728Y6436D01*
X8751D01*
Y6420D01*
X8746Y6419D01*
X8733Y6410D01*
X8629Y6306D01*
X8620Y6293D01*
X8617Y6277D01*
Y6223D01*
X8591D01*
Y6117D01*
X8706D01*
Y6223D01*
X8700D01*
Y6260D01*
X8779Y6339D01*
X8792D01*
X8796Y6340D01*
X8896D01*
X8902Y6327D01*
X8804Y6229D01*
X8795Y6216D01*
X8792Y6200D01*
Y6150D01*
X8751D01*
Y6087D01*
X8706D01*
Y6098D01*
X8591D01*
Y6087D01*
X8556D01*
X8550Y6092D01*
Y6258D01*
X8547Y6274D01*
X8538Y6287D01*
X8509Y6317D01*
X8495Y6326D01*
X8479Y6329D01*
X8441D01*
X8438Y6342D01*
X8442Y6343D01*
X8452Y6354D01*
X8458Y6368D01*
Y6383D01*
X8452Y6397D01*
X8442Y6408D01*
X8428Y6414D01*
X8413D01*
X8399Y6408D01*
X8395Y6404D01*
X8365D01*
X8271Y6498D01*
Y6795D01*
X8275Y6798D01*
X8280Y6812D01*
Y6818D01*
X8328Y6865D01*
X8328Y6865D01*
X8334Y6874D01*
X8336Y6885D01*
X8336Y6885D01*
Y6973D01*
X8485D01*
Y6937D01*
D02*
G37*
%LPC*%
G36*
X7760Y8147D02*
X7734D01*
X7710Y8141D01*
X7689Y8128D01*
X7671Y8110D01*
X7658Y8089D01*
X7652Y8064D01*
Y8039D01*
X7658Y8015D01*
X7671Y7993D01*
X7689Y7976D01*
X7710Y7963D01*
X7734Y7957D01*
X7760D01*
X7784Y7963D01*
X7805Y7976D01*
X7823Y7993D01*
X7836Y8015D01*
X7842Y8039D01*
Y8064D01*
X7836Y8089D01*
X7823Y8110D01*
X7805Y8128D01*
X7784Y8141D01*
X7760Y8147D01*
D02*
G37*
G36*
X9652Y9582D02*
X9627D01*
X9603Y9576D01*
X9581Y9563D01*
X9563Y9545D01*
X9551Y9524D01*
X9544Y9499D01*
Y9474D01*
X9551Y9450D01*
X9563Y9428D01*
X9581Y9411D01*
X9603Y9398D01*
X9627Y9392D01*
X9652D01*
X9676Y9398D01*
X9698Y9411D01*
X9716Y9428D01*
X9728Y9450D01*
X9735Y9474D01*
Y9499D01*
X9728Y9524D01*
X9716Y9545D01*
X9698Y9563D01*
X9676Y9576D01*
X9652Y9582D01*
D02*
G37*
G36*
X10591Y8924D02*
X10559D01*
X10527Y8918D01*
X10497Y8905D01*
X10470Y8887D01*
X10447Y8864D01*
X10429Y8837D01*
X10416Y8807D01*
X10410Y8775D01*
Y8743D01*
X10416Y8711D01*
X10429Y8681D01*
X10447Y8654D01*
X10470Y8631D01*
X10497Y8612D01*
X10527Y8600D01*
X10559Y8594D01*
X10591D01*
X10623Y8600D01*
X10653Y8612D01*
X10680Y8631D01*
X10703Y8654D01*
X10721Y8681D01*
X10734Y8711D01*
X10740Y8743D01*
Y8775D01*
X10734Y8807D01*
X10721Y8837D01*
X10703Y8864D01*
X10680Y8887D01*
X10653Y8905D01*
X10623Y8918D01*
X10591Y8924D01*
D02*
G37*
G36*
X8491Y6824D02*
X8459D01*
X8427Y6818D01*
X8397Y6805D01*
X8370Y6787D01*
X8347Y6764D01*
X8329Y6737D01*
X8316Y6707D01*
X8310Y6675D01*
Y6643D01*
X8316Y6611D01*
X8329Y6581D01*
X8347Y6554D01*
X8370Y6531D01*
X8397Y6512D01*
X8427Y6500D01*
X8459Y6494D01*
X8491D01*
X8523Y6500D01*
X8553Y6512D01*
X8580Y6531D01*
X8603Y6554D01*
X8621Y6581D01*
X8634Y6611D01*
X8640Y6643D01*
Y6675D01*
X8634Y6707D01*
X8621Y6737D01*
X8603Y6764D01*
X8580Y6787D01*
X8553Y6805D01*
X8523Y6818D01*
X8491Y6824D01*
D02*
G37*
%LPD*%
D14*
X8968Y5918D02*
X9296D01*
X8954Y5933D02*
Y6096D01*
Y5933D02*
X8968Y5918D01*
X10033Y6158D02*
X10033Y6160D01*
X10033Y6158D02*
Y6158D01*
X10020Y5855D02*
X10033Y6158D01*
X8852Y6071D02*
X8872Y6051D01*
X8908D02*
X8954Y6096D01*
X8623Y8115D02*
Y8306D01*
X8738Y9292D02*
X8991D01*
X9085D01*
X8991Y8919D02*
Y9292D01*
X8926Y8919D02*
Y9104D01*
X8911Y9119D02*
X8926Y9104D01*
X8509Y9119D02*
X8911D01*
X9121Y8919D02*
Y9256D01*
X9085Y9292D02*
X9121Y9256D01*
X9055Y9195D02*
X9056Y9194D01*
Y8919D02*
X9056Y8919D01*
X9056Y8919D02*
Y9194D01*
X8713Y6479D02*
Y7001D01*
X8728Y6464D02*
X8807D01*
X8713Y6479D02*
X8728Y6464D01*
X8778Y6579D02*
X9142D01*
X8763Y6593D02*
Y7002D01*
Y6593D02*
X8778Y6579D01*
X8828Y6629D02*
X9119D01*
X8813Y6644D02*
X8828Y6629D01*
X8813Y6644D02*
Y7002D01*
Y8100D02*
X8828Y8115D01*
X8813Y7807D02*
Y8100D01*
X8828Y8115D02*
X9366D01*
X9381Y8130D01*
X8763Y7807D02*
Y8151D01*
X9272Y8166D02*
X9316Y8210D01*
X8778Y8166D02*
X9272D01*
X8763Y8151D02*
X8778Y8166D01*
X9121Y8232D02*
Y8353D01*
X9106Y8217D02*
X9121Y8232D01*
X8713Y8202D02*
X8728Y8217D01*
X8713Y7976D02*
Y8202D01*
X8728Y8217D02*
X9106D01*
X8763Y7518D02*
Y7807D01*
X8153Y8166D02*
X8371Y7949D01*
X8433D01*
X8863Y7807D02*
Y8050D01*
X8878Y8064D02*
X9419D01*
X8863Y8050D02*
X8878Y8064D01*
X9419D02*
X9446Y8092D01*
X9381Y8130D02*
Y8353D01*
X8913Y8009D02*
X8928Y8024D01*
X9494D02*
X9511Y8041D01*
X8928Y8024D02*
X9494D01*
X8913Y7807D02*
Y8009D01*
X8863Y7442D02*
Y7807D01*
X9931Y8821D02*
Y9246D01*
X9526Y9309D02*
X9868D01*
X9931Y9246D01*
X9511Y8919D02*
Y9294D01*
X9526Y9309D01*
X9843Y8740D02*
Y9231D01*
X9576Y8919D02*
Y9231D01*
X9591Y9246D01*
X9828D01*
X9843Y9231D01*
X9641Y9116D02*
X9690Y9165D01*
X9511Y8858D02*
Y8919D01*
X9426Y8494D02*
X9667D01*
X9704Y8457D01*
Y8356D02*
Y8457D01*
X9734Y8585D02*
X9919D01*
X9706Y8613D02*
X9734Y8585D01*
X9706Y8613D02*
Y8919D01*
X9284Y8636D02*
X9426Y8494D01*
X9704Y8356D02*
X9706Y8353D01*
X9894D01*
X9916Y8331D01*
X9922D01*
X9251Y8353D02*
Y8604D01*
X8353Y6375D02*
X8420D01*
X8242Y6486D02*
X8353Y6375D01*
X8242Y6486D02*
Y6820D01*
X9231Y9614D02*
X9246Y9599D01*
Y9461D02*
Y9599D01*
X8752Y9614D02*
X9231D01*
X8738Y9292D02*
Y9599D01*
X8752Y9614D01*
X8532Y9292D02*
X8738D01*
X8807Y6464D02*
X8826Y6445D01*
X8308Y7002D02*
Y7115D01*
Y7002D02*
X8513D01*
X8308Y6885D02*
Y7002D01*
X8963Y6937D02*
X8964Y6936D01*
Y6900D02*
Y6936D01*
Y6900D02*
X9006Y6858D01*
X8963Y6937D02*
Y7002D01*
X9006Y6858D02*
X9091D01*
X8913Y6873D02*
X8971Y6815D01*
X9091Y6858D02*
X9106Y6873D01*
Y7046D01*
X8971Y6815D02*
X9009D01*
X8913Y6873D02*
Y7002D01*
X8865Y6769D02*
Y6936D01*
X8864Y6937D02*
X8865Y6936D01*
X8713Y7001D02*
X8713Y7002D01*
X9757Y7679D02*
Y8103D01*
X9191Y7679D02*
X9757D01*
X9191Y7629D02*
X9441D01*
X9488Y7582D01*
X9523D01*
X9013Y7807D02*
Y7903D01*
X9035Y7925D01*
X9626D01*
X8963Y7226D02*
Y7933D01*
X9006Y7976D01*
X9561D01*
X8713Y7807D02*
Y7976D01*
X8623Y8454D02*
Y8572D01*
X8217D02*
X8623D01*
X9857Y8725D02*
X9931D01*
X9843Y8740D02*
X9857Y8725D01*
X9641Y8919D02*
Y9116D01*
X8861Y8636D02*
Y8919D01*
X8638Y8636D02*
X8861D01*
X9316Y8919D02*
X9381D01*
X8509Y9309D02*
X8514D01*
X8532Y9292D01*
X9131Y9455D02*
X9251Y9335D01*
Y8919D02*
Y9335D01*
X9131Y9455D02*
Y9487D01*
X9186Y8919D02*
Y9277D01*
X9104Y9360D02*
X9186Y9277D01*
X8892Y9360D02*
X9104D01*
X9316Y8919D02*
Y9391D01*
X9246Y9461D02*
X9316Y9391D01*
X9446Y8919D02*
Y9405D01*
X9385Y9466D02*
X9446Y9405D01*
X9385Y9466D02*
Y9487D01*
X9246Y6274D02*
X9248Y6276D01*
X9311D01*
X9347Y6312D02*
Y6452D01*
X9311Y6276D02*
X9347Y6312D01*
X8872Y6051D02*
X8908D01*
X8114Y6760D02*
Y6908D01*
X8192Y6985D01*
X8099Y6745D02*
X8114Y6760D01*
X8094Y6745D02*
X8099D01*
X8039Y6690D02*
X8094Y6745D01*
X8039Y6680D02*
Y6690D01*
X8242Y6820D02*
X8308Y6885D01*
Y7115D02*
X8321Y7129D01*
X8386D01*
X8092Y7329D02*
X8386D01*
X8039Y7276D02*
X8092Y7329D01*
X8115Y7137D02*
Y7254D01*
X8141Y7279D02*
X8386D01*
X8115Y7254D02*
X8141Y7279D01*
X8176Y7035D02*
Y7214D01*
X8191Y7229D02*
X8386D01*
X8176Y7214D02*
X8191Y7229D01*
X8284Y7179D02*
X8386D01*
X8242Y7137D02*
X8284Y7179D01*
X8192Y6985D02*
X8227D01*
X8242Y7000D02*
Y7137D01*
X8227Y6985D02*
X8242Y7000D01*
X8100Y7021D02*
X8161D01*
X8176Y7035D01*
X8030Y6925D02*
Y6951D01*
X8100Y7021D01*
X8026Y6921D02*
X8030Y6925D01*
X7938Y6860D02*
Y7061D01*
X7844Y6828D02*
X7861Y6845D01*
X7923D01*
X7844Y6680D02*
Y6828D01*
X7923Y6845D02*
X7938Y6860D01*
Y7061D02*
X8039Y7163D01*
Y7276D01*
X7912Y7414D02*
X7927Y7429D01*
X8386D01*
X7912Y7305D02*
Y7414D01*
X7897Y7290D02*
X7912Y7305D01*
X7747Y7290D02*
X7897D01*
X8242Y7379D02*
X8386D01*
X8241Y7378D02*
X8242Y7379D01*
X7978Y7378D02*
X8241D01*
X7963Y7214D02*
Y7363D01*
X7978Y7378D01*
X8253Y7544D02*
X8268Y7559D01*
X8283Y7679D02*
X8386D01*
X8268Y7559D02*
Y7664D01*
X7747Y7544D02*
X8253D01*
X8268Y7664D02*
X8283Y7679D01*
X8471Y7722D02*
X8509Y7683D01*
X8599D01*
X8232Y7722D02*
X8471D01*
X8613Y7698D02*
Y7807D01*
X8599Y7683D02*
X8613Y7698D01*
X8103Y7807D02*
X8513D01*
X8549Y7934D02*
X8563Y7919D01*
X8448Y7934D02*
X8549D01*
X8563Y7807D02*
Y7919D01*
X8318Y8463D02*
X8469D01*
X8484Y7990D02*
Y8448D01*
X8469Y8463D02*
X8484Y8448D01*
X8623Y8572D02*
Y8621D01*
X8638Y8636D01*
X8750Y8339D02*
Y8339D01*
X8644Y8285D02*
X8697D01*
X8623Y8306D02*
X8644Y8285D01*
X8697D02*
X8750Y8339D01*
Y8339D02*
X8765Y8353D01*
X8861D01*
X8926D01*
X8991D01*
X9186D02*
X9251D01*
Y8604D02*
X9284Y8636D01*
X9316Y8210D02*
Y8353D01*
X9446Y8092D02*
Y8353D01*
X9511Y8041D02*
Y8353D01*
X9561Y7976D02*
X9576Y7990D01*
Y8353D01*
X9641Y7940D02*
Y8353D01*
X9626Y7925D02*
X9641Y7940D01*
X9157Y6505D02*
Y6564D01*
Y6505D02*
X9172Y6490D01*
X9309D01*
X9347Y6452D01*
X9169Y5817D02*
X9360D01*
X9009Y6815D02*
X9055Y6769D01*
X9360Y5817D02*
X9398Y5855D01*
Y6132D01*
X8192Y8446D02*
Y8547D01*
X8077Y8446D02*
X8192D01*
Y8547D02*
X8217Y8572D01*
X7925Y7798D02*
X7950Y7772D01*
X7965Y7595D02*
X8202D01*
X7747Y7798D02*
X7925D01*
X7950Y7609D02*
Y7772D01*
Y7609D02*
X7965Y7595D01*
X8217Y7609D02*
Y7707D01*
X8232Y7722D01*
X8202Y7595D02*
X8217Y7609D01*
X8433Y7949D02*
X8448Y7934D01*
X7887Y7137D02*
Y7137D01*
X7963Y7214D01*
X7824Y7075D02*
X7887Y7137D01*
X7822Y7075D02*
X7824D01*
X7783Y7036D02*
X7822Y7075D01*
X7747Y7036D02*
X7783D01*
X9614Y6593D02*
Y7046D01*
X9284Y6579D02*
X9599D01*
X9121Y7061D02*
X9599D01*
Y6579D02*
X9614Y6593D01*
X9599Y7061D02*
X9614Y7046D01*
X9119Y6629D02*
X9258Y6769D01*
X9142Y6579D02*
X9157Y6564D01*
X9106Y7046D02*
X9121Y7061D01*
X8498Y7976D02*
X8713D01*
X8484Y7990D02*
X8498Y7976D01*
X8861Y8636D02*
X9284D01*
X8598Y7201D02*
Y7518D01*
X8763D01*
X8788Y7201D02*
Y7442D01*
X8863D01*
X8963Y7226D02*
X8966Y7201D01*
X8877Y9375D02*
Y9487D01*
Y9375D02*
X8892Y9360D01*
D16*
X8623Y8454D02*
D03*
Y8306D02*
D03*
D17*
X8563Y7002D02*
D03*
X8513D02*
D03*
X8613D02*
D03*
X8663D02*
D03*
X8713D02*
D03*
X8763D02*
D03*
X8813D02*
D03*
X8863D02*
D03*
X8913D02*
D03*
X8963D02*
D03*
X9013D02*
D03*
X9063D02*
D03*
Y7807D02*
D03*
X9013D02*
D03*
X8963D02*
D03*
X8913D02*
D03*
X8863D02*
D03*
X8813D02*
D03*
X8763D02*
D03*
X8713D02*
D03*
X8663D02*
D03*
X8613D02*
D03*
X8563D02*
D03*
X8513D02*
D03*
D18*
X9191Y7129D02*
D03*
Y7179D02*
D03*
Y7229D02*
D03*
Y7279D02*
D03*
Y7329D02*
D03*
Y7379D02*
D03*
Y7429D02*
D03*
Y7479D02*
D03*
Y7529D02*
D03*
Y7579D02*
D03*
Y7629D02*
D03*
Y7679D02*
D03*
X8386D02*
D03*
Y7629D02*
D03*
Y7579D02*
D03*
Y7529D02*
D03*
Y7479D02*
D03*
Y7429D02*
D03*
Y7379D02*
D03*
Y7329D02*
D03*
Y7279D02*
D03*
Y7229D02*
D03*
Y7179D02*
D03*
Y7129D02*
D03*
D19*
X10147Y8725D02*
D03*
X10935Y6553D02*
D03*
Y6649D02*
D03*
X9296Y5918D02*
D03*
Y6014D02*
D03*
X9931Y8821D02*
D03*
Y8725D02*
D03*
X10503Y6162D02*
D03*
Y6258D02*
D03*
X10719Y6162D02*
D03*
Y6258D02*
D03*
X10935Y6292D02*
D03*
Y6388D02*
D03*
X10147Y8821D02*
D03*
D20*
X11201Y6642D02*
D03*
X11106D02*
D03*
X9925Y7963D02*
D03*
X10020D02*
D03*
X9922Y8153D02*
D03*
X10017D02*
D03*
D21*
X11239Y6845D02*
D03*
X10900D02*
D03*
D22*
X9512Y6139D02*
D03*
Y5944D02*
D03*
X8318Y8268D02*
D03*
Y8463D02*
D03*
D23*
X8826Y6045D02*
D03*
Y6445D02*
D03*
X9067D02*
D03*
Y6045D02*
D03*
D24*
X8649Y6170D02*
D03*
Y6045D02*
D03*
X9246Y6274D02*
D03*
Y6399D02*
D03*
D25*
X7844Y6680D02*
D03*
X8039D02*
D03*
D26*
X9706Y8353D02*
D03*
X9641D02*
D03*
X9576D02*
D03*
X9511D02*
D03*
X9446D02*
D03*
X9381D02*
D03*
X9316D02*
D03*
X9251D02*
D03*
X9186D02*
D03*
X9121D02*
D03*
X9056D02*
D03*
X8991D02*
D03*
X8926D02*
D03*
X8861D02*
D03*
Y8919D02*
D03*
X8926D02*
D03*
X8991D02*
D03*
X9056D02*
D03*
X9121D02*
D03*
X9186D02*
D03*
X9251D02*
D03*
X9316D02*
D03*
X9381D02*
D03*
X9446D02*
D03*
X9511D02*
D03*
X9576D02*
D03*
X9641D02*
D03*
D27*
X9706D02*
D03*
D28*
X11125Y8637D02*
D03*
Y7899D02*
D03*
D29*
X10566Y7912D02*
D03*
Y8382D02*
D03*
D30*
X10224Y8316D02*
D03*
Y7976D02*
D03*
D31*
X10774Y7353D02*
D03*
X11274D02*
D03*
D32*
X9779Y6868D02*
D03*
X10236D02*
D03*
D33*
X10008Y6160D02*
D03*
D39*
X9284Y8636D02*
D03*
D48*
X10926Y6286D02*
X10943Y6303D01*
X9937Y8316D02*
X10224D01*
X11201Y6642D02*
Y6761D01*
Y6553D02*
Y6642D01*
X9067Y6433D02*
Y6445D01*
Y6415D02*
Y6433D01*
X8052Y8126D02*
X8103Y8075D01*
Y7807D02*
Y8075D01*
X8052Y8126D02*
Y8268D01*
X10147Y8821D02*
X10293D01*
X10376Y6528D02*
X10503Y6401D01*
X9779Y6608D02*
X9860Y6528D01*
X10376D01*
X9067Y6433D02*
X9101Y6399D01*
X9246D01*
X8833Y6200D02*
X9014Y6381D01*
X9032D01*
X8833Y6052D02*
Y6200D01*
X9032Y6381D02*
X9067Y6415D01*
X8762Y6381D02*
X8792D01*
X8826Y6415D01*
X8658Y6180D02*
Y6277D01*
X8762Y6381D01*
X8826Y6415D02*
Y6445D01*
X8649Y6170D02*
X8658Y6180D01*
X9931Y8821D02*
X10147D01*
X9922Y8153D02*
Y8331D01*
X10020Y7963D02*
Y8150D01*
X10056Y7971D02*
X10060Y7976D01*
X10020Y7963D02*
X10029Y7971D01*
X10056D01*
X9925Y7963D02*
Y8150D01*
X10060Y7976D02*
X10224D01*
X9779Y6608D02*
Y6868D01*
X11201Y6761D02*
X11202Y6762D01*
Y6808D02*
X11239Y6845D01*
X11202Y6762D02*
Y6808D01*
X10900Y6845D02*
X10935Y6810D01*
Y6649D02*
Y6810D01*
X10782Y6649D02*
X10935D01*
X11106Y6642D02*
Y6649D01*
X10935D02*
X11106D01*
X10935Y6553D02*
X11068D01*
Y6369D02*
Y6553D01*
X10782Y6388D02*
X10935D01*
X10943Y6303D02*
X11002D01*
X11068Y6369D01*
X10817Y6173D02*
X10926Y6282D01*
X10727Y6173D02*
X10817D01*
X10926Y6282D02*
Y6286D01*
X10719Y6165D02*
X10727Y6173D01*
X10719Y6162D02*
Y6165D01*
X10757Y6388D02*
X10782D01*
X10719Y6258D02*
Y6350D01*
X10757Y6388D01*
X10503Y6258D02*
X10719D01*
X10503D02*
Y6401D01*
X10033Y6160D02*
X10500D01*
X10503Y6162D02*
X10719D01*
X9299Y6017D02*
Y6086D01*
X9352Y6139D02*
X9404D01*
X9296Y6014D02*
X9299Y6017D01*
Y6086D02*
X9352Y6139D01*
X9404D02*
X9512D01*
X9067Y6222D02*
X9119Y6274D01*
X9067Y6045D02*
Y6222D01*
X9119Y6274D02*
X9241D01*
X8826Y6045D02*
X8833Y6052D01*
X8649Y6045D02*
X8826D01*
X8539D02*
X8649D01*
X8039Y6540D02*
Y6680D01*
Y6540D02*
X8292Y6288D01*
X8103Y7722D02*
Y7807D01*
X8052Y8268D02*
X8318D01*
X8052D02*
Y8306D01*
X9922Y8331D02*
X9937Y8316D01*
X9922Y8331D02*
X9922D01*
X10156Y8715D02*
X10185Y8685D01*
X10156Y8715D02*
X10156D01*
X10147Y8723D02*
X10156Y8715D01*
X10147Y8723D02*
Y8725D01*
X10185Y8331D02*
Y8685D01*
X8509Y6075D02*
X8539Y6045D01*
X8509Y6075D02*
Y6258D01*
X8292Y6288D02*
X8479D01*
X8509Y6258D01*
X10325Y8560D02*
Y8788D01*
X10293Y8821D02*
X10325Y8788D01*
X7747Y8306D02*
X8052D01*
X11068Y6553D02*
X11201D01*
X10782Y6388D02*
Y6649D01*
D49*
X10719Y9106D02*
X11036Y8788D01*
X10528Y9106D02*
X10719D01*
X11036Y8695D02*
Y8788D01*
Y8695D02*
X11095Y8637D01*
X11125D01*
X10579Y7899D02*
X11125D01*
X11003Y7906D02*
X11066D01*
X10566Y7912D02*
X10579Y7899D01*
X10647Y7350D02*
X10770D01*
X10774Y7353D01*
X10236Y6939D02*
X10647Y7350D01*
X10770Y7357D02*
X10774Y7353D01*
X10768Y7357D02*
X10770D01*
X10768Y7606D02*
X11003Y7841D01*
X10768Y7357D02*
Y7606D01*
X10236Y6868D02*
Y6939D01*
X10147Y9487D02*
X10528Y9106D01*
D50*
X10224Y7976D02*
X10503D01*
X10566Y7912D01*
D51*
X11239Y7337D02*
X11256Y7353D01*
X11239Y6845D02*
Y7337D01*
X11256Y7353D02*
X11274D01*
X10224Y8316D02*
X10239D01*
X10290Y8367D01*
X10551D01*
X10566Y8382D01*
X9893Y9487D02*
X10135Y9246D01*
Y9081D02*
Y9246D01*
D52*
X8475Y8759D02*
D03*
X10575D02*
D03*
Y6659D02*
D03*
X8475D02*
D03*
D53*
X7747Y7544D02*
D03*
Y8052D02*
D03*
Y7798D02*
D03*
Y7290D02*
D03*
Y7036D02*
D03*
X9639Y9487D02*
D03*
X9131D02*
D03*
X9385D02*
D03*
X9893D02*
D03*
X10147D02*
D03*
D54*
X7747Y8306D02*
D03*
D55*
X8877Y9487D02*
D03*
D56*
X10033Y6160D02*
D03*
D57*
X8954Y6096D02*
D03*
X9512Y5944D02*
D03*
X8623Y8115D02*
D03*
X9055Y9195D02*
D03*
X8153Y8166D02*
D03*
X9690Y9165D02*
D03*
X9919Y8585D02*
D03*
X8420Y6375D02*
D03*
X9169Y5817D02*
D03*
X9523Y7582D02*
D03*
X10442Y7144D02*
D03*
X10325Y8560D02*
D03*
X9757Y8103D02*
D03*
X9922Y8331D02*
D03*
X10135Y9081D02*
D03*
X8509Y9309D02*
D03*
Y9119D02*
D03*
X8077Y8446D02*
D03*
X8052Y8126D02*
D03*
X8103Y7722D02*
D03*
X8598Y7201D02*
D03*
X8788D02*
D03*
X8966D02*
D03*
X8865Y6769D02*
D03*
X9055D02*
D03*
X9258D02*
D03*
X9284Y6579D02*
D03*
X10503Y6401D02*
D03*
X8242Y6820D02*
D03*
X8026Y6921D02*
D03*
X8115Y7137D02*
D03*
M02*
