G04*
G04 #@! TF.GenerationSoftware,Altium Limited,Altium Designer,22.10.1 (41)*
G04*
G04 Layer_Color=65535*
%FSLAX42Y42*%
%MOMM*%
G71*
G04*
G04 #@! TF.SameCoordinates,D2B3F530-26F6-4905-BC13-EF821CD2D141*
G04*
G04*
G04 #@! TF.FilePolarity,Positive*
G04*
G01*
G75*
%ADD10C,0.60*%
%ADD11C,0.25*%
%ADD12C,0.20*%
%ADD13C,0.15*%
%ADD14C,0.25*%
G36*
X11435Y7832D02*
X11302D01*
Y7878D01*
X11435D01*
Y7832D01*
D02*
G37*
G36*
X10948D02*
X10815D01*
Y7878D01*
X10948D01*
Y7832D01*
D02*
G37*
G36*
X10116Y7554D02*
X10127D01*
Y7548D01*
X10133D01*
Y7542D01*
X10139D01*
Y7531D01*
X10145D01*
Y7174D01*
X10139D01*
Y7162D01*
X10133D01*
Y7156D01*
X10127D01*
Y7150D01*
X10116D01*
Y7145D01*
X10098D01*
Y7139D01*
X9343D01*
Y7145D01*
X9331D01*
Y7150D01*
X9320D01*
Y7156D01*
X9314D01*
Y7168D01*
X9308D01*
Y7197D01*
X9314D01*
Y7209D01*
X9320D01*
Y7215D01*
X9326D01*
Y7221D01*
X9331D01*
Y7226D01*
X9343D01*
Y7232D01*
X9349D01*
Y7238D01*
X9355D01*
Y7244D01*
X9366D01*
Y7238D01*
X9378D01*
Y7232D01*
X9390D01*
Y7226D01*
X9407D01*
Y7221D01*
X9437D01*
Y7226D01*
X9431D01*
Y7256D01*
X9425D01*
Y7273D01*
X9419D01*
Y7291D01*
X9413D01*
Y7297D01*
X9419D01*
Y7303D01*
X9425D01*
Y7308D01*
X9431D01*
Y7314D01*
X9437D01*
Y7320D01*
X9443D01*
Y7326D01*
X9448D01*
Y7332D01*
X9454D01*
Y7338D01*
X9460D01*
Y7344D01*
X9466D01*
Y7349D01*
X9478D01*
Y7355D01*
X9484D01*
Y7361D01*
X9489D01*
Y7367D01*
X9495D01*
Y7373D01*
X9501D01*
Y7379D01*
X9507D01*
Y7384D01*
X9513D01*
Y7390D01*
X9519D01*
Y7396D01*
X9525D01*
Y7402D01*
X9530D01*
Y7408D01*
X9536D01*
Y7414D01*
X9548D01*
Y7420D01*
X9554D01*
Y7425D01*
X9560D01*
Y7431D01*
X9565D01*
Y7437D01*
X9571D01*
Y7443D01*
X9577D01*
Y7449D01*
X9583D01*
Y7455D01*
X9589D01*
Y7461D01*
X9595D01*
Y7466D01*
X9601D01*
Y7472D01*
X9612D01*
Y7478D01*
X9618D01*
Y7484D01*
X9624D01*
Y7490D01*
X9630D01*
Y7496D01*
X9636D01*
Y7502D01*
X9642D01*
Y7507D01*
X9653D01*
Y7513D01*
X9665D01*
Y7519D01*
X9688D01*
Y7525D01*
X9700D01*
Y7519D01*
X9729D01*
Y7513D01*
X9741D01*
Y7507D01*
X9753D01*
Y7502D01*
X9759D01*
Y7496D01*
X9764D01*
Y7490D01*
X9770D01*
Y7484D01*
X9776D01*
Y7478D01*
X9782D01*
Y7472D01*
X9794D01*
Y7466D01*
X9800D01*
Y7461D01*
X9805D01*
Y7455D01*
X9811D01*
Y7449D01*
X9817D01*
Y7443D01*
X9823D01*
Y7437D01*
X9829D01*
Y7431D01*
X9841D01*
Y7425D01*
X9846D01*
Y7420D01*
X9852D01*
Y7414D01*
X9858D01*
Y7408D01*
X9864D01*
Y7402D01*
X9870D01*
Y7396D01*
X9876D01*
Y7390D01*
X9887D01*
Y7384D01*
X9893D01*
Y7379D01*
X9899D01*
Y7373D01*
X9905D01*
Y7367D01*
X9911D01*
Y7361D01*
X9917D01*
Y7355D01*
X9922D01*
Y7349D01*
X9934D01*
Y7344D01*
X9940D01*
Y7338D01*
X9946D01*
Y7332D01*
X9952D01*
Y7326D01*
X9958D01*
Y7320D01*
X9963D01*
Y7314D01*
X9975D01*
Y7308D01*
X9981D01*
Y7303D01*
X9987D01*
Y7297D01*
X9993D01*
Y7291D01*
X9999D01*
Y7285D01*
X10022D01*
Y7291D01*
X10028D01*
Y7525D01*
X10034D01*
Y7537D01*
X10039D01*
Y7548D01*
X10045D01*
Y7554D01*
X10057D01*
Y7560D01*
X10116D01*
Y7554D01*
D02*
G37*
G36*
X9653Y7104D02*
X9647D01*
Y7109D01*
X9653D01*
Y7104D01*
D02*
G37*
G36*
X9390D02*
X9384D01*
Y7109D01*
X9390D01*
Y7104D01*
D02*
G37*
G36*
X10116Y7080D02*
X10110D01*
Y7086D01*
X10116D01*
Y7080D01*
D02*
G37*
G36*
X9958Y7074D02*
X9946D01*
Y7080D01*
X9934D01*
Y7074D01*
Y7068D01*
Y7045D01*
X9922D01*
Y7086D01*
X9946D01*
Y7080D01*
X9952D01*
Y7086D01*
X9958D01*
Y7074D01*
D02*
G37*
G36*
X9893Y7080D02*
X9887D01*
Y7086D01*
X9893D01*
Y7080D01*
D02*
G37*
G36*
X9811D02*
X9805D01*
Y7086D01*
X9811D01*
Y7080D01*
D02*
G37*
G36*
X9723D02*
X9718D01*
Y7086D01*
X9723D01*
Y7080D01*
D02*
G37*
G36*
X9706D02*
X9700D01*
Y7086D01*
X9706D01*
Y7080D01*
D02*
G37*
G36*
X9513D02*
X9507D01*
Y7086D01*
X9513D01*
Y7080D01*
D02*
G37*
G36*
X9413D02*
X9407D01*
Y7086D01*
X9413D01*
Y7080D01*
D02*
G37*
G36*
X9366Y7098D02*
X9372D01*
Y7086D01*
X9366D01*
Y7080D01*
X9361D01*
Y7086D01*
Y7092D01*
Y7098D01*
X9355D01*
Y7104D01*
X9366D01*
Y7098D01*
D02*
G37*
G36*
X9805Y7074D02*
X9800D01*
Y7080D01*
X9805D01*
Y7074D01*
D02*
G37*
G36*
X9688Y7080D02*
X9694D01*
Y7074D01*
X9683D01*
Y7086D01*
X9688D01*
Y7080D01*
D02*
G37*
G36*
X9671Y7074D02*
X9665D01*
Y7080D01*
X9671D01*
Y7074D01*
D02*
G37*
G36*
X10110Y7068D02*
X10104D01*
Y7074D01*
X10110D01*
Y7068D01*
D02*
G37*
G36*
X9811Y7063D02*
X9805D01*
Y7068D01*
X9811D01*
Y7063D01*
D02*
G37*
G36*
X10039Y7080D02*
Y7074D01*
X10045D01*
Y7057D01*
X10039D01*
Y7068D01*
X10034D01*
Y7080D01*
X10028D01*
Y7086D01*
X10039D01*
Y7080D01*
D02*
G37*
G36*
X9530D02*
Y7074D01*
X9536D01*
Y7057D01*
X9530D01*
Y7068D01*
X9525D01*
Y7080D01*
X9519D01*
Y7086D01*
X9530D01*
Y7080D01*
D02*
G37*
G36*
X9911D02*
X9917D01*
Y7068D01*
Y7063D01*
Y7051D01*
X9911D01*
Y7074D01*
X9905D01*
Y7080D01*
X9899D01*
Y7086D01*
X9911D01*
Y7080D01*
D02*
G37*
G36*
X9870Y7051D02*
X9864D01*
Y7057D01*
X9870D01*
Y7051D01*
D02*
G37*
G36*
X9571D02*
X9565D01*
Y7057D01*
X9571D01*
Y7051D01*
D02*
G37*
G36*
X9431Y7080D02*
X9437D01*
Y7057D01*
Y7051D01*
X9431D01*
Y7074D01*
X9425D01*
Y7086D01*
X9431D01*
Y7080D01*
D02*
G37*
G36*
X10086Y7074D02*
X10092D01*
Y7063D01*
X10104D01*
Y7057D01*
X10098D01*
Y7045D01*
X10092D01*
Y7057D01*
X10086D01*
Y7068D01*
X10080D01*
Y7080D01*
X10063D01*
Y7086D01*
X10086D01*
Y7074D01*
D02*
G37*
G36*
X10057Y7080D02*
X10063D01*
Y7074D01*
X10057D01*
Y7051D01*
X10063D01*
Y7045D01*
X10051D01*
Y7086D01*
X10057D01*
Y7080D01*
D02*
G37*
G36*
X10039Y7051D02*
Y7045D01*
X10034D01*
Y7057D01*
X10039D01*
Y7051D01*
D02*
G37*
G36*
X10016Y7068D02*
X10010D01*
Y7063D01*
X10016D01*
Y7051D01*
X10022D01*
Y7045D01*
X10010D01*
Y7051D01*
X10004D01*
Y7074D01*
X10010D01*
Y7080D01*
X10016D01*
Y7068D01*
D02*
G37*
G36*
X9999Y7086D02*
Y7080D01*
X9993D01*
Y7051D01*
X9999D01*
Y7045D01*
X9987D01*
Y7092D01*
X9999D01*
Y7086D01*
D02*
G37*
G36*
X9975Y7051D02*
X9981D01*
Y7045D01*
X9969D01*
Y7086D01*
X9975D01*
Y7051D01*
D02*
G37*
G36*
X9958Y7057D02*
X9952D01*
Y7051D01*
X9963D01*
Y7045D01*
X9946D01*
Y7063D01*
X9958D01*
Y7057D01*
D02*
G37*
G36*
X9911Y7045D02*
X9905D01*
Y7051D01*
X9911D01*
Y7045D01*
D02*
G37*
G36*
X9870Y7080D02*
X9876D01*
Y7074D01*
X9881D01*
Y7080D01*
X9887D01*
Y7051D01*
X9893D01*
Y7045D01*
X9887D01*
Y7051D01*
X9881D01*
Y7057D01*
X9870D01*
Y7068D01*
X9864D01*
Y7080D01*
X9852D01*
Y7086D01*
X9870D01*
Y7080D01*
D02*
G37*
G36*
X9846Y7051D02*
X9852D01*
Y7045D01*
X9841D01*
Y7092D01*
Y7098D01*
X9835D01*
Y7109D01*
X9846D01*
Y7051D01*
D02*
G37*
G36*
X9829D02*
X9835D01*
Y7045D01*
X9823D01*
Y7051D01*
Y7057D01*
Y7068D01*
X9817D01*
Y7074D01*
X9823D01*
Y7080D01*
X9817D01*
Y7086D01*
X9829D01*
Y7051D01*
D02*
G37*
G36*
X9805D02*
X9811D01*
Y7045D01*
X9800D01*
Y7051D01*
X9794D01*
Y7057D01*
X9800D01*
Y7063D01*
X9805D01*
Y7051D01*
D02*
G37*
G36*
X9794Y7045D02*
X9782D01*
Y7051D01*
X9794D01*
Y7045D01*
D02*
G37*
G36*
X9764Y7098D02*
X9759D01*
Y7063D01*
Y7057D01*
Y7051D01*
X9764D01*
Y7045D01*
X9753D01*
Y7104D01*
X9764D01*
Y7098D01*
D02*
G37*
G36*
X9706Y7068D02*
X9718D01*
Y7063D01*
X9723D01*
Y7045D01*
X9718D01*
Y7057D01*
X9712D01*
Y7063D01*
X9706D01*
Y7068D01*
X9700D01*
Y7074D01*
X9706D01*
Y7068D01*
D02*
G37*
G36*
Y7045D02*
X9700D01*
Y7051D01*
X9706D01*
Y7045D01*
D02*
G37*
G36*
X9665Y7063D02*
X9671D01*
Y7051D01*
X9688D01*
Y7045D01*
X9665D01*
Y7057D01*
X9659D01*
Y7074D01*
X9665D01*
Y7063D01*
D02*
G37*
G36*
X9653Y7080D02*
Y7045D01*
X9647D01*
Y7080D01*
X9642D01*
Y7086D01*
X9653D01*
Y7080D01*
D02*
G37*
G36*
X9630Y7051D02*
X9636D01*
Y7045D01*
X9624D01*
Y7080D01*
X9618D01*
Y7086D01*
X9624D01*
Y7092D01*
X9630D01*
Y7051D01*
D02*
G37*
G36*
X9612Y7074D02*
X9618D01*
Y7068D01*
Y7057D01*
X9612D01*
Y7045D01*
X9606D01*
Y7080D01*
X9601D01*
Y7086D01*
X9612D01*
Y7074D01*
D02*
G37*
G36*
X9571D02*
X9583D01*
Y7080D01*
X9589D01*
Y7051D01*
X9595D01*
Y7045D01*
X9583D01*
Y7057D01*
X9571D01*
Y7068D01*
X9565D01*
Y7080D01*
X9554D01*
Y7086D01*
X9571D01*
Y7074D01*
D02*
G37*
G36*
X9548Y7051D02*
X9554D01*
Y7045D01*
X9542D01*
Y7109D01*
X9548D01*
Y7051D01*
D02*
G37*
G36*
X9530Y7045D02*
X9525D01*
Y7051D01*
Y7057D01*
X9530D01*
Y7045D01*
D02*
G37*
G36*
X9507Y7051D02*
X9513D01*
Y7045D01*
X9501D01*
Y7057D01*
X9495D01*
Y7074D01*
X9501D01*
Y7080D01*
X9507D01*
Y7051D01*
D02*
G37*
G36*
X9484Y7092D02*
Y7086D01*
Y7080D01*
X9478D01*
Y7074D01*
X9472D01*
Y7068D01*
X9478D01*
Y7063D01*
X9484D01*
Y7051D01*
X9489D01*
Y7045D01*
X9484D01*
Y7051D01*
X9478D01*
Y7057D01*
X9472D01*
Y7063D01*
X9466D01*
Y7080D01*
X9472D01*
Y7086D01*
X9478D01*
Y7098D01*
X9472D01*
Y7104D01*
X9484D01*
Y7092D01*
D02*
G37*
G36*
X9460Y7098D02*
X9454D01*
Y7080D01*
X9460D01*
Y7074D01*
X9454D01*
Y7051D01*
X9460D01*
Y7045D01*
X9448D01*
Y7051D01*
Y7057D01*
Y7104D01*
X9460D01*
Y7098D01*
D02*
G37*
G36*
X9431Y7045D02*
X9425D01*
Y7051D01*
X9431D01*
Y7045D01*
D02*
G37*
G36*
X9407Y7074D02*
Y7051D01*
X9413D01*
Y7045D01*
X9407D01*
Y7051D01*
X9402D01*
Y7080D01*
X9407D01*
Y7074D01*
D02*
G37*
G36*
X9390Y7057D02*
Y7051D01*
Y7045D01*
X9384D01*
Y7086D01*
X9390D01*
Y7057D01*
D02*
G37*
G36*
X9361Y7074D02*
X9366D01*
Y7068D01*
X9372D01*
Y7051D01*
X9366D01*
Y7045D01*
X9355D01*
Y7051D01*
X9361D01*
Y7068D01*
X9355D01*
Y7074D01*
X9349D01*
Y7080D01*
X9361D01*
Y7074D01*
D02*
G37*
G36*
X9337Y7045D02*
X9326D01*
Y7074D01*
Y7080D01*
Y7104D01*
X9337D01*
Y7045D01*
D02*
G37*
G36*
X10092Y7028D02*
X10075D01*
Y7033D01*
X10092D01*
Y7028D01*
D02*
G37*
%LPC*%
G36*
X10121Y7537D02*
X10110D01*
Y7531D01*
X10104D01*
Y7519D01*
X10110D01*
Y7513D01*
X10121D01*
Y7519D01*
X10127D01*
Y7531D01*
X10121D01*
Y7537D01*
D02*
G37*
G36*
X9630Y7414D02*
X9601D01*
Y7408D01*
X9589D01*
Y7402D01*
X9583D01*
Y7396D01*
X9577D01*
Y7390D01*
X9571D01*
Y7384D01*
X9565D01*
Y7379D01*
X9560D01*
Y7367D01*
X9554D01*
Y7355D01*
X9548D01*
Y7344D01*
X9542D01*
Y7326D01*
X9536D01*
Y7361D01*
X9530D01*
Y7367D01*
X9525D01*
Y7361D01*
X9519D01*
Y7349D01*
X9513D01*
Y7291D01*
X9519D01*
Y7191D01*
X9548D01*
Y7197D01*
X9554D01*
Y7279D01*
X9560D01*
Y7303D01*
Y7308D01*
Y7314D01*
X9565D01*
Y7332D01*
X9571D01*
Y7344D01*
X9577D01*
Y7349D01*
X9583D01*
Y7361D01*
X9589D01*
Y7367D01*
X9595D01*
Y7379D01*
X9601D01*
Y7384D01*
X9606D01*
Y7390D01*
X9618D01*
Y7384D01*
X9612D01*
Y7361D01*
X9606D01*
Y7344D01*
X9601D01*
Y7332D01*
X9595D01*
Y7314D01*
X9589D01*
Y7303D01*
X9583D01*
Y7291D01*
X9595D01*
Y7285D01*
X9606D01*
Y7279D01*
X9612D01*
Y7285D01*
X9618D01*
Y7291D01*
X9630D01*
Y7297D01*
X9653D01*
Y7285D01*
X9647D01*
Y7279D01*
X9642D01*
Y7262D01*
X9636D01*
Y7256D01*
X9630D01*
Y7250D01*
X9624D01*
Y7238D01*
X9618D01*
Y7232D01*
X9612D01*
Y7226D01*
X9606D01*
Y7221D01*
X9601D01*
Y7215D01*
X9595D01*
Y7209D01*
X9589D01*
Y7203D01*
X9583D01*
Y7197D01*
X9577D01*
Y7191D01*
X9589D01*
Y7197D01*
X9595D01*
Y7203D01*
X9601D01*
Y7209D01*
X9606D01*
Y7215D01*
X9612D01*
Y7221D01*
X9618D01*
Y7226D01*
X9624D01*
Y7232D01*
X9630D01*
Y7238D01*
X9636D01*
Y7250D01*
X9642D01*
Y7256D01*
X9647D01*
Y7267D01*
X9653D01*
Y7273D01*
X9659D01*
Y7285D01*
X9665D01*
Y7303D01*
X9659D01*
Y7308D01*
X9612D01*
Y7320D01*
X9618D01*
Y7332D01*
X9624D01*
Y7349D01*
X9630D01*
Y7373D01*
X9636D01*
Y7408D01*
X9630D01*
Y7414D01*
D02*
G37*
G36*
X9876Y7367D02*
X9846D01*
Y7186D01*
X9963D01*
Y7191D01*
X9969D01*
Y7197D01*
X9963D01*
Y7203D01*
X9969D01*
Y7215D01*
X9876D01*
Y7367D01*
D02*
G37*
G36*
X9782D02*
X9683D01*
Y7186D01*
X9712D01*
Y7262D01*
X9770D01*
Y7256D01*
X9782D01*
Y7250D01*
X9788D01*
Y7226D01*
X9794D01*
Y7191D01*
X9800D01*
Y7186D01*
X9829D01*
Y7197D01*
X9823D01*
Y7226D01*
X9817D01*
Y7262D01*
X9811D01*
Y7267D01*
X9800D01*
Y7279D01*
X9811D01*
Y7285D01*
X9817D01*
Y7297D01*
X9823D01*
Y7338D01*
X9817D01*
Y7344D01*
X9811D01*
Y7355D01*
X9800D01*
Y7361D01*
X9782D01*
Y7367D01*
D02*
G37*
%LPD*%
G36*
Y7332D02*
X9788D01*
Y7320D01*
X9794D01*
Y7303D01*
X9788D01*
Y7291D01*
X9776D01*
Y7285D01*
X9712D01*
Y7338D01*
X9782D01*
Y7332D01*
D02*
G37*
D10*
X8633Y7219D02*
G03*
X8633Y7219I-30J0D01*
G01*
D11*
X8458Y7002D02*
G03*
X8458Y7002I-12J0D01*
G01*
X9196Y6040D02*
G03*
X9196Y6040I-12J0D01*
G01*
X11506Y7353D02*
G03*
X11506Y7353I-12J0D01*
G01*
X9719Y9059D02*
G03*
X9719Y9059I-12J0D01*
G01*
D12*
X8714Y8239D02*
Y8520D01*
X8533Y8239D02*
Y8520D01*
X9073Y7119D02*
Y7689D01*
X8503Y7119D02*
Y7689D01*
X9073D01*
X8503Y7119D02*
X9073D01*
X10221Y8689D02*
Y8856D01*
X10074Y8689D02*
Y8856D01*
X8782Y6173D02*
Y6318D01*
X8924Y6500D02*
X8969D01*
X9111Y6173D02*
Y6318D01*
X8924Y5990D02*
X8969D01*
X9223Y5882D02*
Y6050D01*
X9370Y5882D02*
Y6050D01*
X11000Y6935D02*
X11139D01*
X11000Y6755D02*
X11139D01*
X11070Y6568D02*
X11237D01*
X11070Y6716D02*
X11237D01*
X10861Y6517D02*
Y6685D01*
X11008Y6517D02*
Y6685D01*
X10861Y6257D02*
Y6424D01*
X11008Y6257D02*
Y6424D01*
X10645Y6127D02*
Y6294D01*
X10792Y6127D02*
Y6294D01*
X10429Y6127D02*
Y6294D01*
X10577Y6127D02*
Y6294D01*
X10335Y6045D02*
X10344D01*
X9671D02*
X9680D01*
X9671D02*
Y6667D01*
X10344D01*
Y6045D02*
Y6667D01*
X11364Y7471D02*
Y7693D01*
Y7013D02*
Y7236D01*
X10684Y7113D02*
X10784Y7013D01*
X10684Y7593D02*
X10784Y7693D01*
X11364D01*
X10684Y7473D02*
Y7593D01*
Y7113D02*
Y7233D01*
X10784Y7013D02*
X11364D01*
X9886Y8227D02*
X10053D01*
X9886Y8080D02*
X10053D01*
X9889Y8037D02*
X10056D01*
X9889Y7889D02*
X10056D01*
X10133Y8076D02*
Y8216D01*
X10314Y8076D02*
Y8216D01*
X10731Y8387D02*
X10766D01*
X10731Y7907D02*
X10766D01*
X10366Y8387D02*
X10401D01*
X10366Y7907D02*
X10401D01*
X10766D02*
Y8387D01*
X10366Y7907D02*
Y8387D01*
X9769Y8416D02*
Y8856D01*
X8799Y8416D02*
X8805D01*
X9763D02*
X9769D01*
X8799D02*
Y8856D01*
X8805D01*
X9763D02*
X9769D01*
X10005Y8689D02*
Y8856D01*
X9858Y8689D02*
Y8856D01*
X10289Y9352D02*
Y9621D01*
X8735D02*
X10289D01*
X8735Y9352D02*
Y9621D01*
Y9352D02*
X10289D01*
X7612Y6894D02*
X7882D01*
Y8448D01*
X7612D02*
X7882D01*
X7612Y6894D02*
Y8448D01*
D13*
X11308Y8666D02*
X11428D01*
X10823D02*
X10943D01*
X11428Y7870D02*
Y8666D01*
X10823Y7870D02*
Y8666D01*
Y8061D02*
X11428D01*
X10143Y9708D02*
X10126Y9699D01*
X10109Y9682D01*
Y9665D01*
X10118Y9657D01*
X10135D01*
X10143Y9665D01*
Y9674D01*
X10135Y9682D01*
X10109D01*
X8865Y9657D02*
X8882D01*
X8874D01*
Y9708D01*
X8865Y9699D01*
D14*
X11125Y8166D02*
Y8370D01*
X11074Y8217D02*
X11176D01*
X11125D02*
X11176D01*
X11074Y8319D02*
X11125Y8217D01*
X11074Y8319D02*
X11176D01*
X11125Y8217D02*
X11176Y8319D01*
X8611Y8158D02*
X8602Y8166D01*
X8585D01*
X8577Y8158D01*
Y8124D01*
X8585Y8115D01*
X8602D01*
X8611Y8124D01*
X8661Y8115D02*
X8628D01*
X8661Y8149D01*
Y8158D01*
X8653Y8166D01*
X8636D01*
X8628Y8158D01*
X8678Y8115D02*
X8695D01*
X8687D01*
Y8166D01*
X8678Y8158D01*
X8759Y7417D02*
Y7374D01*
X8767Y7366D01*
X8784D01*
X8793Y7374D01*
Y7417D01*
X8843Y7366D02*
X8810D01*
X8843Y7400D01*
Y7408D01*
X8835Y7417D01*
X8818D01*
X8810Y7408D01*
X8918Y6261D02*
Y6253D01*
X8935Y6236D01*
X8952Y6253D01*
Y6261D01*
X8935Y6236D02*
Y6210D01*
X8969D02*
X8986D01*
X8978D01*
Y6261D01*
X8969Y6253D01*
X8788Y9210D02*
Y9168D01*
X8797Y9159D01*
X8814D01*
X8822Y9168D01*
Y9210D01*
X8839Y9202D02*
X8848Y9210D01*
X8865D01*
X8873Y9202D01*
Y9193D01*
X8865Y9185D01*
X8856D01*
X8865D01*
X8873Y9176D01*
Y9168D01*
X8865Y9159D01*
X8848D01*
X8839Y9168D01*
X9986Y6591D02*
Y6549D01*
X9995Y6541D01*
X10012D01*
X10020Y6549D01*
Y6591D01*
X10037Y6541D02*
X10054D01*
X10046D01*
Y6591D01*
X10037Y6583D01*
X8276Y8077D02*
Y8128D01*
X8302D01*
X8310Y8120D01*
Y8103D01*
X8302Y8094D01*
X8276D01*
X8293D02*
X8310Y8077D01*
X8361Y8128D02*
X8344Y8120D01*
X8327Y8103D01*
Y8086D01*
X8335Y8077D01*
X8352D01*
X8361Y8086D01*
Y8094D01*
X8352Y8103D01*
X8327D01*
X8242Y6651D02*
X8192D01*
Y6676D01*
X8200Y6684D01*
X8217D01*
X8225Y6676D01*
Y6651D01*
Y6668D02*
X8242Y6684D01*
Y6735D02*
Y6701D01*
X8208Y6735D01*
X8200D01*
X8192Y6727D01*
Y6710D01*
X8200Y6701D01*
X9478Y6248D02*
Y6299D01*
X9504D01*
X9512Y6291D01*
Y6274D01*
X9504Y6265D01*
X9478D01*
X9495D02*
X9512Y6248D01*
X9529D02*
X9546D01*
X9538D01*
Y6299D01*
X9529Y6291D01*
X8738Y9850D02*
Y9901D01*
X8763D01*
X8771Y9892D01*
Y9876D01*
X8763Y9867D01*
X8738D01*
X8822Y9850D02*
X8788D01*
X8822Y9884D01*
Y9892D01*
X8814Y9901D01*
X8797D01*
X8788Y9892D01*
X7615Y8547D02*
Y8598D01*
X7640D01*
X7649Y8589D01*
Y8572D01*
X7640Y8564D01*
X7615D01*
X7666Y8547D02*
X7683D01*
X7674D01*
Y8598D01*
X7666Y8589D01*
X10524Y8191D02*
Y8141D01*
X10549D01*
X10558Y8149D01*
Y8183D01*
X10549Y8191D01*
X10524D01*
X10609Y8141D02*
X10575D01*
X10609Y8175D01*
Y8183D01*
X10600Y8191D01*
X10583D01*
X10575Y8183D01*
X10837Y8750D02*
Y8700D01*
X10863D01*
X10871Y8708D01*
Y8742D01*
X10863Y8750D01*
X10837D01*
X10888Y8700D02*
X10905D01*
X10897D01*
Y8750D01*
X10888Y8742D01*
X10981Y7612D02*
X10973Y7620D01*
X10956D01*
X10947Y7612D01*
Y7578D01*
X10956Y7569D01*
X10973D01*
X10981Y7578D01*
X10998Y7569D02*
X11015D01*
X11007D01*
Y7620D01*
X10998Y7612D01*
X11041Y7578D02*
X11049Y7569D01*
X11066D01*
X11074Y7578D01*
Y7612D01*
X11066Y7620D01*
X11049D01*
X11041Y7612D01*
Y7603D01*
X11049Y7595D01*
X11074D01*
X9940Y8323D02*
X9931Y8331D01*
X9914D01*
X9906Y8323D01*
Y8289D01*
X9914Y8280D01*
X9931D01*
X9940Y8289D01*
X9957Y8280D02*
X9974D01*
X9965D01*
Y8331D01*
X9957Y8323D01*
X9999D02*
X10008Y8331D01*
X10025D01*
X10033Y8323D01*
Y8314D01*
X10025Y8306D01*
X10033Y8297D01*
Y8289D01*
X10025Y8280D01*
X10008D01*
X9999Y8289D01*
Y8297D01*
X10008Y8306D01*
X9999Y8314D01*
Y8323D01*
X10008Y8306D02*
X10025D01*
X9907Y9006D02*
X9898Y9014D01*
X9881D01*
X9873Y9006D01*
Y8972D01*
X9881Y8964D01*
X9898D01*
X9907Y8972D01*
X9924Y8964D02*
X9941D01*
X9932D01*
Y9014D01*
X9924Y9006D01*
X9966Y9014D02*
X10000D01*
Y9006D01*
X9966Y8972D01*
Y8964D01*
X10118Y8615D02*
X10109Y8623D01*
X10092D01*
X10084Y8615D01*
Y8581D01*
X10092Y8573D01*
X10109D01*
X10118Y8581D01*
X10135Y8573D02*
X10152D01*
X10143D01*
Y8623D01*
X10135Y8615D01*
X10211Y8623D02*
X10194Y8615D01*
X10177Y8598D01*
Y8581D01*
X10185Y8573D01*
X10202D01*
X10211Y8581D01*
Y8589D01*
X10202Y8598D01*
X10177D01*
X9267Y5808D02*
X9258Y5817D01*
X9241D01*
X9233Y5808D01*
Y5774D01*
X9241Y5766D01*
X9258D01*
X9267Y5774D01*
X9284Y5766D02*
X9301D01*
X9292D01*
Y5817D01*
X9284Y5808D01*
X9360Y5817D02*
X9326D01*
Y5791D01*
X9343Y5800D01*
X9351D01*
X9360Y5791D01*
Y5774D01*
X9351Y5766D01*
X9334D01*
X9326Y5774D01*
X10486Y5977D02*
X10478Y5969D01*
Y5952D01*
X10486Y5944D01*
X10520D01*
X10528Y5952D01*
Y5969D01*
X10520Y5977D01*
X10528Y5994D02*
Y6011D01*
Y6003D01*
X10478D01*
X10486Y5994D01*
X10528Y6062D02*
X10478D01*
X10503Y6037D01*
Y6071D01*
X10676Y6397D02*
X10668Y6388D01*
Y6371D01*
X10676Y6363D01*
X10710D01*
X10719Y6371D01*
Y6388D01*
X10710Y6397D01*
X10719Y6414D02*
Y6430D01*
Y6422D01*
X10668D01*
X10676Y6414D01*
Y6456D02*
X10668Y6464D01*
Y6481D01*
X10676Y6490D01*
X10685D01*
X10693Y6481D01*
Y6473D01*
Y6481D01*
X10702Y6490D01*
X10710D01*
X10719Y6481D01*
Y6464D01*
X10710Y6456D01*
X10778Y6397D02*
X10770Y6388D01*
Y6371D01*
X10778Y6363D01*
X10812D01*
X10820Y6371D01*
Y6388D01*
X10812Y6397D01*
X10820Y6414D02*
Y6430D01*
Y6422D01*
X10770D01*
X10778Y6414D01*
X10820Y6490D02*
Y6456D01*
X10787Y6490D01*
X10778D01*
X10770Y6481D01*
Y6464D01*
X10778Y6456D01*
X10778Y6583D02*
X10770Y6574D01*
Y6557D01*
X10778Y6549D01*
X10812D01*
X10820Y6557D01*
Y6574D01*
X10812Y6583D01*
X10820Y6600D02*
Y6617D01*
Y6608D01*
X10770D01*
X10778Y6600D01*
X10820Y6642D02*
Y6659D01*
Y6651D01*
X10770D01*
X10778Y6642D01*
X8606Y5960D02*
X8598Y5968D01*
X8581D01*
X8573Y5960D01*
Y5926D01*
X8581Y5917D01*
X8598D01*
X8606Y5926D01*
X8623Y5917D02*
X8640D01*
X8632D01*
Y5968D01*
X8623Y5960D01*
X8666D02*
X8674Y5968D01*
X8691D01*
X8699Y5960D01*
Y5926D01*
X8691Y5917D01*
X8674D01*
X8666Y5926D01*
Y5960D01*
X9237Y6188D02*
X9229Y6197D01*
X9212D01*
X9203Y6188D01*
Y6154D01*
X9212Y6146D01*
X9229D01*
X9237Y6154D01*
X9254D02*
X9263Y6146D01*
X9279D01*
X9288Y6154D01*
Y6188D01*
X9279Y6197D01*
X9263D01*
X9254Y6188D01*
Y6180D01*
X9263Y6171D01*
X9288D01*
X11104Y6519D02*
X11096Y6528D01*
X11079D01*
X11070Y6519D01*
Y6485D01*
X11079Y6477D01*
X11096D01*
X11104Y6485D01*
X11121Y6519D02*
X11129Y6528D01*
X11146D01*
X11155Y6519D01*
Y6511D01*
X11146Y6502D01*
X11155Y6494D01*
Y6485D01*
X11146Y6477D01*
X11129D01*
X11121Y6485D01*
Y6494D01*
X11129Y6502D01*
X11121Y6511D01*
Y6519D01*
X11129Y6502D02*
X11146D01*
X11066Y6875D02*
X11057Y6883D01*
X11041D01*
X11032Y6875D01*
Y6841D01*
X11041Y6833D01*
X11057D01*
X11066Y6841D01*
X11083Y6883D02*
X11117D01*
Y6875D01*
X11083Y6841D01*
Y6833D01*
X10215Y8170D02*
X10207Y8179D01*
X10190D01*
X10181Y8170D01*
Y8136D01*
X10190Y8128D01*
X10207D01*
X10215Y8136D01*
X10266Y8179D02*
X10249Y8170D01*
X10232Y8153D01*
Y8136D01*
X10240Y8128D01*
X10257D01*
X10266Y8136D01*
Y8145D01*
X10257Y8153D01*
X10232D01*
X9948Y7840D02*
X9940Y7849D01*
X9923D01*
X9914Y7840D01*
Y7806D01*
X9923Y7798D01*
X9940D01*
X9948Y7806D01*
X9999Y7849D02*
X9965D01*
Y7823D01*
X9982Y7832D01*
X9991D01*
X9999Y7823D01*
Y7806D01*
X9991Y7798D01*
X9974D01*
X9965Y7806D01*
M02*
