G04*
G04 #@! TF.GenerationSoftware,Altium Limited,Altium Designer,22.10.1 (41)*
G04*
G04 Layer_Color=32768*
%FSLAX42Y42*%
%MOMM*%
G71*
G04*
G04 #@! TF.SameCoordinates,D2B3F530-26F6-4905-BC13-EF821CD2D141*
G04*
G04*
G04 #@! TF.FilePolarity,Positive*
G04*
G01*
G75*
%ADD12C,0.20*%
D12*
X8523Y8570D02*
X8724D01*
X8523Y8189D02*
Y8570D01*
Y8189D02*
X8724D01*
Y8570D01*
X10094Y8669D02*
Y8876D01*
X10201D01*
Y8669D02*
Y8876D01*
X10094Y8669D02*
X10201D01*
X8757Y5945D02*
Y6545D01*
X9136D01*
Y5945D02*
Y6545D01*
X8757Y5945D02*
X9136D01*
X9350Y5862D02*
Y6070D01*
X9243Y5862D02*
X9350D01*
X9243D02*
Y6070D01*
X9350D01*
X10827Y6945D02*
X11312D01*
Y6745D02*
Y6945D01*
X10827Y6745D02*
X11312D01*
X10827D02*
Y6945D01*
X11050Y6696D02*
X11257D01*
Y6588D02*
Y6696D01*
X11050Y6588D02*
X11257D01*
X11050D02*
Y6696D01*
X10988Y6497D02*
Y6705D01*
X10881Y6497D02*
X10988D01*
X10881D02*
Y6705D01*
X10988D01*
Y6237D02*
Y6444D01*
X10881Y6237D02*
X10988D01*
X10881D02*
Y6444D01*
X10988D01*
X10772Y6107D02*
Y6314D01*
X10665Y6107D02*
X10772D01*
X10665D02*
Y6314D01*
X10772D01*
X10557Y6107D02*
Y6314D01*
X10449Y6107D02*
X10557D01*
X10449D02*
Y6314D01*
X10557D01*
X9661Y5840D02*
X10354D01*
X9661D02*
Y7029D01*
X10354D01*
Y5840D02*
Y7029D01*
X10589Y6988D02*
X11459D01*
X10589D02*
Y7718D01*
X11459D01*
Y6988D02*
Y7718D01*
X9866Y8100D02*
X10073D01*
X9866D02*
Y8207D01*
X10073D01*
Y8100D02*
Y8207D01*
X9869Y7909D02*
X10076D01*
X9869D02*
Y8017D01*
X10076D01*
Y7909D02*
Y8017D01*
X10124Y7903D02*
Y8388D01*
X10324D01*
Y7903D02*
Y8388D01*
X10124Y7903D02*
X10324D01*
X9794Y8246D02*
Y9026D01*
X8774Y8246D02*
X9794D01*
X8774D02*
Y9026D01*
X9794D01*
X9878Y8669D02*
Y8876D01*
X9985D01*
Y8669D02*
Y8876D01*
X9878Y8669D02*
X9985D01*
M02*
