G04*
G04 #@! TF.GenerationSoftware,Altium Limited,Altium Designer,22.10.1 (41)*
G04*
G04 Layer_Color=0*
%FSLAX42Y42*%
%MOMM*%
G71*
G04*
G04 #@! TF.SameCoordinates,D2B3F530-26F6-4905-BC13-EF821CD2D141*
G04*
G04*
G04 #@! TF.FilePolarity,Positive*
G04*
G01*
G75*
%ADD67C,0.10*%
D67*
X8573Y8380D02*
X8673D01*
X8623Y8330D02*
Y8430D01*
X10147Y8723D02*
Y8823D01*
X10097Y8773D02*
X10197D01*
X8946Y6188D02*
Y6302D01*
X8889Y6245D02*
X9004D01*
X9296Y5916D02*
Y6016D01*
X9246Y5966D02*
X9346D01*
X11019Y6845D02*
X11119D01*
X11069Y6795D02*
Y6895D01*
X11104Y6642D02*
X11204D01*
X11154Y6592D02*
Y6692D01*
X10935Y6551D02*
Y6651D01*
X10885Y6601D02*
X10985D01*
X10935Y6290D02*
Y6390D01*
X10885Y6340D02*
X10985D01*
X10719Y6160D02*
Y6260D01*
X10669Y6210D02*
X10769D01*
X10503Y6160D02*
Y6260D01*
X10453Y6210D02*
X10553D01*
X9958Y6439D02*
X10058D01*
X10008Y6388D02*
Y6489D01*
X10974Y7353D02*
X11074D01*
X11024Y7303D02*
Y7403D01*
X9919Y8153D02*
X10019D01*
X9969Y8103D02*
Y8203D01*
X9922Y7963D02*
X10022D01*
X9972Y7913D02*
Y8013D01*
X10224Y8096D02*
Y8196D01*
X10174Y8146D02*
X10274D01*
X9284Y8586D02*
Y8686D01*
X9234Y8636D02*
X9334D01*
X9931Y8723D02*
Y8823D01*
X9881Y8773D02*
X9981D01*
M02*
