G04*
G04 #@! TF.GenerationSoftware,Altium Limited,Altium Designer,22.10.1 (41)*
G04*
G04 Layer_Color=8388736*
%FSLAX42Y42*%
%MOMM*%
G71*
G04*
G04 #@! TF.SameCoordinates,D2B3F530-26F6-4905-BC13-EF821CD2D141*
G04*
G04*
G04 #@! TF.FilePolarity,Negative*
G04*
G01*
G75*
%ADD16R,1.01X1.33*%
%ADD19R,0.67X0.72*%
%ADD20R,0.72X0.67*%
%ADD21R,1.25X1.60*%
%ADD23R,1.20X1.80*%
G04:AMPARAMS|DCode=26|XSize=1.66mm|YSize=0.38mm|CornerRadius=0.19mm|HoleSize=0mm|Usage=FLASHONLY|Rotation=270.000|XOffset=0mm|YOffset=0mm|HoleType=Round|Shape=RoundedRectangle|*
%AMROUNDEDRECTD26*
21,1,1.66,0.00,0,0,270.0*
21,1,1.27,0.38,0,0,270.0*
1,1,0.38,0.00,-0.64*
1,1,0.38,0.00,0.64*
1,1,0.38,0.00,0.64*
1,1,0.38,0.00,-0.64*
%
%ADD26ROUNDEDRECTD26*%
%ADD27R,0.38X1.66*%
%ADD30R,1.60X1.25*%
%ADD31R,3.20X1.60*%
%ADD32R,1.60X3.00*%
%ADD33R,5.80X6.20*%
%ADD34O,0.45X1.75*%
%ADD35O,1.75X0.45*%
%ADD36R,1.75X1.55*%
%ADD37R,1.05X0.95*%
%ADD38R,1.55X1.75*%
%ADD39R,5.18X3.10*%
%ADD40R,3.40X2.80*%
%ADD41R,2.40X2.70*%
%ADD42C,3.20*%
%ADD43C,1.80*%
%ADD44R,1.80X1.80*%
%ADD45R,1.80X1.80*%
%ADD46C,1.73*%
%ADD47C,0.66*%
D16*
X8623Y8454D02*
D03*
Y8306D02*
D03*
D19*
X10147Y8725D02*
D03*
X10935Y6553D02*
D03*
Y6649D02*
D03*
X9296Y5918D02*
D03*
Y6014D02*
D03*
X9931Y8821D02*
D03*
Y8725D02*
D03*
X10503Y6162D02*
D03*
Y6258D02*
D03*
X10719Y6162D02*
D03*
Y6258D02*
D03*
X10935Y6292D02*
D03*
Y6388D02*
D03*
X10147Y8821D02*
D03*
D20*
X11201Y6642D02*
D03*
X11106D02*
D03*
X9925Y7963D02*
D03*
X10020D02*
D03*
X9922Y8153D02*
D03*
X10017D02*
D03*
D21*
X11239Y6845D02*
D03*
X10900D02*
D03*
D23*
X8826Y6045D02*
D03*
Y6445D02*
D03*
X9067D02*
D03*
Y6045D02*
D03*
D26*
X9706Y8353D02*
D03*
X9641D02*
D03*
X9576D02*
D03*
X9511D02*
D03*
X9446D02*
D03*
X9381D02*
D03*
X9316D02*
D03*
X9251D02*
D03*
X9186D02*
D03*
X9121D02*
D03*
X9056D02*
D03*
X8991D02*
D03*
X8926D02*
D03*
X8861D02*
D03*
Y8919D02*
D03*
X8926D02*
D03*
X8991D02*
D03*
X9056D02*
D03*
X9121D02*
D03*
X9186D02*
D03*
X9251D02*
D03*
X9316D02*
D03*
X9381D02*
D03*
X9446D02*
D03*
X9511D02*
D03*
X9576D02*
D03*
X9641D02*
D03*
D27*
X9706D02*
D03*
D30*
X10224Y8316D02*
D03*
Y7976D02*
D03*
D31*
X10774Y7353D02*
D03*
X11274D02*
D03*
D32*
X9779Y6868D02*
D03*
X10236D02*
D03*
D33*
X10008Y6160D02*
D03*
D34*
X8563Y7002D02*
D03*
X8513D02*
D03*
X8613D02*
D03*
X8663D02*
D03*
X8713D02*
D03*
X8763D02*
D03*
X8813D02*
D03*
X8863D02*
D03*
X8913D02*
D03*
X8963D02*
D03*
X9013D02*
D03*
X9063D02*
D03*
Y7807D02*
D03*
X9013D02*
D03*
X8963D02*
D03*
X8913D02*
D03*
X8863D02*
D03*
X8813D02*
D03*
X8763D02*
D03*
X8713D02*
D03*
X8663D02*
D03*
X8613D02*
D03*
X8563D02*
D03*
X8513D02*
D03*
D35*
X9191Y7129D02*
D03*
Y7179D02*
D03*
Y7229D02*
D03*
Y7279D02*
D03*
Y7329D02*
D03*
Y7379D02*
D03*
Y7429D02*
D03*
Y7479D02*
D03*
Y7529D02*
D03*
Y7579D02*
D03*
Y7629D02*
D03*
Y7679D02*
D03*
X8386D02*
D03*
Y7629D02*
D03*
Y7579D02*
D03*
Y7529D02*
D03*
Y7479D02*
D03*
Y7429D02*
D03*
Y7379D02*
D03*
Y7329D02*
D03*
Y7279D02*
D03*
Y7229D02*
D03*
Y7179D02*
D03*
Y7129D02*
D03*
D36*
X9512Y6139D02*
D03*
Y5944D02*
D03*
X8318Y8268D02*
D03*
Y8463D02*
D03*
D37*
X8649Y6170D02*
D03*
Y6045D02*
D03*
X9246Y6274D02*
D03*
Y6399D02*
D03*
D38*
X7844Y6680D02*
D03*
X8039D02*
D03*
D39*
X9284Y8636D02*
D03*
D40*
X11125Y8637D02*
D03*
Y7899D02*
D03*
D41*
X10566Y7912D02*
D03*
Y8382D02*
D03*
D42*
X8475Y8759D02*
D03*
X10575D02*
D03*
Y6659D02*
D03*
X8475D02*
D03*
D43*
X7747Y7544D02*
D03*
Y8052D02*
D03*
Y7798D02*
D03*
Y7290D02*
D03*
Y7036D02*
D03*
X9639Y9487D02*
D03*
X9131D02*
D03*
X9385D02*
D03*
X9893D02*
D03*
X10147D02*
D03*
D44*
X7747Y8306D02*
D03*
D45*
X8877Y9487D02*
D03*
D46*
X10033Y6160D02*
D03*
D47*
X8954Y6096D02*
D03*
X9512Y5944D02*
D03*
X8623Y8115D02*
D03*
X9055Y9195D02*
D03*
X8153Y8166D02*
D03*
X9690Y9165D02*
D03*
X9919Y8585D02*
D03*
X8420Y6375D02*
D03*
X9169Y5817D02*
D03*
X9523Y7582D02*
D03*
X10442Y7144D02*
D03*
X10325Y8560D02*
D03*
X9757Y8103D02*
D03*
X9922Y8331D02*
D03*
X10135Y9081D02*
D03*
X8509Y9309D02*
D03*
Y9119D02*
D03*
X8077Y8446D02*
D03*
X8052Y8126D02*
D03*
X8103Y7722D02*
D03*
X8598Y7201D02*
D03*
X8788D02*
D03*
X8966D02*
D03*
X8865Y6769D02*
D03*
X9055D02*
D03*
X9258D02*
D03*
X9284Y6579D02*
D03*
X10503Y6401D02*
D03*
X8242Y6820D02*
D03*
X8026Y6921D02*
D03*
X8115Y7137D02*
D03*
M02*
