G04*
G04 #@! TF.GenerationSoftware,Altium Limited,Altium Designer,22.10.1 (41)*
G04*
G04 Layer_Color=16711935*
%FSLAX42Y42*%
%MOMM*%
G71*
G04*
G04 #@! TF.SameCoordinates,D2B3F530-26F6-4905-BC13-EF821CD2D141*
G04*
G04*
G04 #@! TF.FilePolarity,Positive*
G04*
G01*
G75*
%ADD67C,0.10*%
D67*
X8578Y7144D02*
G03*
X8578Y7144I-50J0D01*
G01*
X9138Y7054D02*
Y7754D01*
X8438Y7054D02*
Y7754D01*
X9138D01*
X8438Y7054D02*
X9138D01*
X8128Y7477D02*
X8348D01*
X8128Y7332D02*
X8348D01*
Y7477D01*
X8128Y7332D02*
Y7477D01*
X9757Y7036D02*
X9902D01*
X9757Y6816D02*
X9902D01*
X9757D02*
Y7036D01*
X9902Y6816D02*
Y7036D01*
X8678Y8911D02*
X8823D01*
X8678Y9131D02*
X8823D01*
Y8911D02*
Y9131D01*
X8678Y8911D02*
Y9131D01*
X8124Y8023D02*
X8344D01*
X8124Y7878D02*
X8344D01*
Y8023D01*
X8124Y7878D02*
Y8023D01*
X8246Y8475D02*
X8391D01*
X8246Y8255D02*
X8391D01*
Y8475D01*
X8246Y8255D02*
Y8475D01*
X8784Y6285D02*
X8919D01*
X8784Y6495D02*
X8919D01*
Y6285D02*
Y6495D01*
X8784Y6285D02*
Y6495D01*
X7832Y6608D02*
X8052D01*
X7832Y6753D02*
X8052D01*
Y6608D02*
Y6753D01*
X7832Y6608D02*
Y6753D01*
X9201Y6421D02*
X9291D01*
X9201Y6251D02*
X9291D01*
Y6421D01*
X9201Y6251D02*
Y6421D01*
X8604Y6023D02*
X8694D01*
X8604Y6193D02*
X8694D01*
X8604Y6023D02*
Y6193D01*
X8694Y6023D02*
Y6193D01*
X9440Y5931D02*
Y6151D01*
X9585Y5931D02*
Y6151D01*
X9440Y5931D02*
X9585D01*
X9440Y6151D02*
X9585D01*
X10764Y7910D02*
Y8385D01*
X10369Y7910D02*
Y8385D01*
X10764D01*
X10369Y7910D02*
X10764D01*
X9440Y6358D02*
X9585D01*
X9440Y6578D02*
X9585D01*
Y6358D02*
Y6578D01*
X9440Y6358D02*
Y6578D01*
X8512Y7487D02*
X8837D01*
X8512Y7322D02*
X8837D01*
Y7487D01*
X8512Y7322D02*
Y7487D01*
X8678Y8311D02*
X8823D01*
X8678Y8531D02*
X8823D01*
Y8311D02*
Y8531D01*
X8678Y8311D02*
Y8531D01*
X9453Y7036D02*
X9597D01*
X9453Y6816D02*
X9597D01*
X9453D02*
Y7036D01*
X9597Y6816D02*
Y7036D01*
X10049D02*
X10194D01*
X10049Y6816D02*
X10194D01*
X10049D02*
Y7036D01*
X10194Y6816D02*
Y7036D01*
X8750Y9614D02*
X10274D01*
X8750Y9360D02*
X10274D01*
X8750D02*
Y9614D01*
X10274Y9360D02*
Y9614D01*
X7874Y6909D02*
Y8433D01*
X7620Y6909D02*
Y8433D01*
X7874D01*
X7620Y6909D02*
X7874D01*
M02*
