G04*
G04 #@! TF.GenerationSoftware,Altium Limited,Altium Designer,22.10.1 (41)*
G04*
G04 Layer_Color=32768*
%FSLAX42Y42*%
%MOMM*%
G71*
G04*
G04 #@! TF.SameCoordinates,D2B3F530-26F6-4905-BC13-EF821CD2D141*
G04*
G04*
G04 #@! TF.FilePolarity,Positive*
G04*
G01*
G75*
%ADD67C,0.10*%
%ADD68C,0.05*%
%ADD69C,0.05*%
G36*
X11420Y7879D02*
X11418D01*
X11414Y7876D01*
Y7871D01*
X11418Y7867D01*
X11420D01*
X11423D01*
X11426Y7871D01*
Y7876D01*
X11423Y7879D01*
X11420D01*
D01*
D01*
D02*
G37*
G36*
X11275Y7873D02*
X10975D01*
Y7998D01*
X11275D01*
Y7873D01*
D01*
D02*
G37*
G36*
Y8663D02*
X10975D01*
Y8538D01*
X11275D01*
Y8663D01*
D01*
D02*
G37*
D67*
X8738Y7404D02*
X8838D01*
X8788Y7354D02*
Y7454D01*
X8238Y7354D02*
Y7454D01*
X8188Y7404D02*
X8288D01*
X9830Y6876D02*
Y6976D01*
X9780Y6926D02*
X9880D01*
X8750Y8971D02*
Y9071D01*
X8700Y9021D02*
X8800D01*
X8234Y7900D02*
Y8000D01*
X8184Y7950D02*
X8284D01*
X8318Y8315D02*
Y8415D01*
X8268Y8365D02*
X8368D01*
X8852Y6340D02*
Y6440D01*
X8802Y6390D02*
X8902D01*
X7942Y6630D02*
Y6730D01*
X7892Y6680D02*
X7992D01*
X9246Y6291D02*
Y6381D01*
X9201Y6336D02*
X9291D01*
X8649Y6063D02*
Y6153D01*
X8604Y6108D02*
X8694D01*
X9462Y6041D02*
X9562D01*
X9512Y5991D02*
Y6091D01*
X10516Y8147D02*
X10616D01*
X10566Y8097D02*
Y8197D01*
X9512Y6418D02*
Y6518D01*
X9462Y6468D02*
X9562D01*
X8674Y7354D02*
Y7454D01*
X8624Y7404D02*
X8724D01*
X8750Y8371D02*
Y8471D01*
X8700Y8421D02*
X8800D01*
X9525Y6876D02*
Y6976D01*
X9475Y6926D02*
X9575D01*
X10122Y6876D02*
Y6976D01*
X10072Y6926D02*
X10172D01*
D68*
X9278Y6914D02*
Y7894D01*
X8298Y6914D02*
Y7894D01*
X9278D01*
X8298Y6914D02*
X9278D01*
X8023Y7534D02*
X8453D01*
X8023Y7274D02*
X8453D01*
Y7534D01*
X8023Y7274D02*
Y7534D01*
X9700Y7141D02*
X9960D01*
X9700Y6711D02*
X9960D01*
X9700D02*
Y7141D01*
X9960Y6711D02*
Y7141D01*
X8620Y8806D02*
X8880D01*
X8620Y9236D02*
X8880D01*
Y8806D02*
Y9236D01*
X8620Y8806D02*
Y9236D01*
X8019Y8080D02*
X8449D01*
X8019Y7820D02*
X8449D01*
Y8080D01*
X8019Y7820D02*
Y8080D01*
X8189Y8580D02*
X8449D01*
X8189Y8150D02*
X8449D01*
Y8580D01*
X8189Y8150D02*
Y8580D01*
X8727Y6180D02*
X8977D01*
X8727Y6600D02*
X8977D01*
Y6180D02*
Y6600D01*
X8727Y6180D02*
Y6600D01*
X7727Y6550D02*
X8157D01*
X7727Y6810D02*
X8157D01*
Y6550D02*
Y6810D01*
X7727Y6550D02*
Y6810D01*
X9191Y6446D02*
X9301D01*
X9191Y6226D02*
X9301D01*
Y6446D01*
X9191Y6226D02*
Y6446D01*
X8594Y5998D02*
X8704D01*
X8594Y6218D02*
X8704D01*
X8594Y5998D02*
Y6218D01*
X8704Y5998D02*
Y6218D01*
X9382Y5826D02*
Y6256D01*
X9642Y5826D02*
Y6256D01*
X9382Y5826D02*
X9642D01*
X9382Y6256D02*
X9642D01*
X10776Y7777D02*
Y8517D01*
X10356Y7777D02*
Y8517D01*
X10776D01*
X10356Y7777D02*
X10776D01*
X9382Y6253D02*
X9642D01*
X9382Y6683D02*
X9642D01*
Y6253D02*
Y6683D01*
X9382Y6253D02*
Y6683D01*
X8484Y7499D02*
X8864D01*
X8484Y7309D02*
X8864D01*
Y7499D01*
X8484Y7309D02*
Y7499D01*
X8620Y8206D02*
X8880D01*
X8620Y8636D02*
X8880D01*
Y8206D02*
Y8636D01*
X8620Y8206D02*
Y8636D01*
X9395Y7141D02*
X9655D01*
X9395Y6711D02*
X9655D01*
X9395D02*
Y7141D01*
X9655Y6711D02*
Y7141D01*
X9992D02*
X10252D01*
X9992Y6711D02*
X10252D01*
X9992D02*
Y7141D01*
X10252Y6711D02*
Y7141D01*
X8715Y9641D02*
X10309D01*
Y9332D02*
Y9641D01*
X8715Y9332D02*
X10309D01*
X8715D02*
Y9641D01*
X9512Y9437D02*
Y9537D01*
X9462Y9487D02*
X9562D01*
X7901Y6874D02*
Y8468D01*
X7593Y6874D02*
X7901D01*
X7593D02*
Y8468D01*
X7901D01*
X7697Y7671D02*
X7797D01*
X7747Y7621D02*
Y7721D01*
D69*
X11417Y7923D02*
Y8613D01*
X10827D02*
X11417D01*
X10827Y7923D02*
Y8613D01*
Y7923D02*
X11417D01*
M02*
