M48
;Layer_Color=9474304
;FILE_FORMAT=4:4
METRIC,LZ
;TYPE=PLATED
T1F00S00C0.2540
T2F00S00C0.7620
T3F00S00C1.1000
T4F00S00C3.0000
%
T01
X0084201Y0063754
X0082423Y0068199
X0080264Y0069215
X0081153Y0071374
X0085979Y0072009
X0087884
X0089662
X0090551Y0067691
X0088646
X0092583
X0092837Y0065786
X0089535Y006096
X0091694Y0058166
X0095123Y0059436
X0105029Y0064008
X0104416Y007144
X00952282Y0075819
X0081026Y0077216
X0080518Y00812591
X0081534Y0081661
X0080772Y0084455
X0086233Y0081153
X008509Y0091186
Y0093091
X0090551Y0091948
X0096901Y00916532
X0101346Y0090805
X0099187Y0085852
X00992164Y0083312
X00975661Y0081026
X0103251Y0085598
T02
X010033Y0061595
T03
X007747Y0070358
Y0072898
Y0075438
Y0077978
Y0080518
Y0083058
X0088773Y0094869
X0091313
X0093853
X0096393
X0098933
X0101473
T04
X008475Y0066589
X010575
Y0087589
X008475
M30
