G04*
G04 #@! TF.GenerationSoftware,Altium Limited,Altium Designer,22.10.1 (41)*
G04*
G04 Layer_Color=16711935*
%FSLAX42Y42*%
%MOMM*%
G71*
G04*
G04 #@! TF.SameCoordinates,D2B3F530-26F6-4905-BC13-EF821CD2D141*
G04*
G04*
G04 #@! TF.FilePolarity,Positive*
G04*
G01*
G75*
%ADD12C,0.20*%
G36*
X8641Y8380D02*
X8642D01*
X8642Y8380D01*
X8643Y8380D01*
X8643Y8380D01*
X8645Y8379D01*
X8646Y8379D01*
X8648Y8379D01*
X8649Y8378D01*
X8649Y8378D01*
X8649Y8378D01*
X8650Y8378D01*
X8650Y8378D01*
X8650Y8377D01*
X8651Y8377D01*
X8651Y8377D01*
X8652Y8376D01*
X8653Y8375D01*
X8654Y8374D01*
X8655Y8372D01*
X8655Y8372D01*
X8655Y8372D01*
X8655Y8372D01*
X8655Y8372D01*
X8655Y8371D01*
X8656Y8371D01*
X8656Y8371D01*
X8656Y8370D01*
X8656Y8370D01*
X8656Y8369D01*
X8657Y8368D01*
X8657Y8366D01*
X8657Y8365D01*
Y8364D01*
X8657Y8364D01*
X8657Y8363D01*
X8657Y8363D01*
X8657Y8362D01*
X8657Y8362D01*
X8656Y8360D01*
X8656Y8359D01*
X8656Y8358D01*
X8655Y8358D01*
X8655Y8357D01*
X8654Y8356D01*
X8654Y8356D01*
X8654Y8356D01*
X8654Y8356D01*
X8654Y8356D01*
X8654Y8356D01*
X8653Y8355D01*
X8653Y8355D01*
X8653Y8354D01*
X8652Y8354D01*
X8652Y8354D01*
X8651Y8353D01*
X8650Y8353D01*
X8650Y8353D01*
X8649Y8352D01*
X8648Y8352D01*
X8647Y8352D01*
X8646Y8356D01*
X8647D01*
X8647Y8356D01*
X8647Y8356D01*
X8647Y8356D01*
X8647Y8356D01*
X8648Y8356D01*
X8648Y8357D01*
X8649Y8357D01*
X8650Y8358D01*
X8651Y8358D01*
X8652Y8359D01*
X8652Y8359D01*
X8652Y8360D01*
X8652Y8360D01*
X8652Y8361D01*
X8653Y8361D01*
X8653Y8362D01*
X8653Y8363D01*
X8653Y8365D01*
Y8365D01*
X8653Y8365D01*
Y8366D01*
X8653Y8366D01*
X8653Y8367D01*
X8653Y8368D01*
X8653Y8369D01*
X8652Y8370D01*
X8651Y8371D01*
Y8371D01*
X8651Y8371D01*
X8651Y8371D01*
X8651Y8372D01*
X8650Y8372D01*
X8649Y8373D01*
X8649Y8373D01*
X8648Y8374D01*
X8647Y8374D01*
X8647D01*
X8646Y8374D01*
X8646Y8375D01*
X8646Y8375D01*
X8646Y8375D01*
X8645Y8375D01*
X8645Y8375D01*
X8644Y8375D01*
X8643Y8375D01*
X8642Y8375D01*
X8640Y8375D01*
X8640D01*
X8640D01*
X8640D01*
X8640D01*
X8639Y8375D01*
X8639D01*
X8638Y8375D01*
X8638Y8375D01*
X8637Y8375D01*
X8636Y8375D01*
X8634Y8375D01*
X8633Y8374D01*
X8633D01*
X8633Y8374D01*
X8633Y8374D01*
X8633Y8374D01*
X8632Y8374D01*
X8631Y8373D01*
X8631Y8373D01*
X8630Y8372D01*
X8629Y8371D01*
X8628Y8371D01*
Y8370D01*
X8628Y8370D01*
X8628Y8370D01*
X8628Y8370D01*
X8628Y8370D01*
X8628Y8370D01*
X8628Y8369D01*
X8627Y8368D01*
X8627Y8367D01*
X8627Y8366D01*
X8627Y8365D01*
Y8365D01*
X8627Y8364D01*
Y8364D01*
X8627Y8364D01*
X8627Y8363D01*
X8627Y8362D01*
X8628Y8361D01*
X8628Y8360D01*
X8629Y8359D01*
X8629Y8359D01*
X8629Y8359D01*
X8629Y8359D01*
X8629Y8359D01*
X8629Y8358D01*
X8630Y8358D01*
X8630Y8358D01*
X8630Y8358D01*
X8631Y8357D01*
X8631Y8357D01*
X8631Y8357D01*
X8632Y8357D01*
X8633Y8356D01*
X8633Y8356D01*
X8634Y8356D01*
X8634Y8356D01*
X8635Y8355D01*
X8634Y8351D01*
X8634D01*
X8634Y8351D01*
X8634Y8351D01*
X8633Y8351D01*
X8633Y8352D01*
X8632Y8352D01*
X8632Y8352D01*
X8631Y8352D01*
X8630Y8353D01*
X8629Y8354D01*
X8628Y8354D01*
X8627Y8355D01*
X8627Y8355D01*
X8626Y8356D01*
X8626Y8356D01*
X8626Y8356D01*
X8626Y8356D01*
X8626Y8357D01*
X8625Y8357D01*
X8625Y8357D01*
X8625Y8358D01*
X8625Y8358D01*
X8624Y8359D01*
X8624Y8360D01*
X8624Y8360D01*
X8624Y8361D01*
X8624Y8362D01*
X8623Y8363D01*
X8623Y8364D01*
X8623Y8365D01*
Y8365D01*
X8623Y8365D01*
Y8366D01*
X8623Y8366D01*
X8623Y8367D01*
X8624Y8368D01*
X8624Y8369D01*
X8624Y8370D01*
X8625Y8372D01*
X8625Y8372D01*
X8625Y8373D01*
X8625Y8373D01*
X8626Y8373D01*
X8626Y8373D01*
X8626Y8374D01*
X8626Y8374D01*
X8626Y8374D01*
X8627Y8375D01*
X8627Y8375D01*
X8627Y8375D01*
X8628Y8376D01*
X8629Y8377D01*
X8630Y8377D01*
X8632Y8378D01*
X8632D01*
X8632Y8378D01*
X8632Y8378D01*
X8632Y8378D01*
X8633Y8379D01*
X8633Y8379D01*
X8634Y8379D01*
X8634Y8379D01*
X8635Y8379D01*
X8636Y8379D01*
X8637Y8380D01*
X8639Y8380D01*
X8640Y8380D01*
X8640D01*
X8641D01*
X8641D01*
X8641Y8380D01*
D02*
G37*
G36*
X8625Y8348D02*
X8625Y8348D01*
X8626Y8348D01*
X8626Y8348D01*
X8627Y8348D01*
X8627D01*
X8627Y8347D01*
X8627Y8347D01*
X8627Y8347D01*
X8628Y8347D01*
X8629Y8347D01*
X8629Y8346D01*
X8630Y8346D01*
X8631Y8345D01*
X8631D01*
X8631Y8345D01*
X8631Y8345D01*
X8632Y8344D01*
X8632Y8344D01*
X8633Y8343D01*
X8634Y8342D01*
X8635Y8341D01*
X8636Y8340D01*
X8636Y8340D01*
X8636Y8339D01*
X8636Y8339D01*
X8637Y8339D01*
X8637Y8338D01*
X8637Y8338D01*
X8638Y8337D01*
X8638Y8337D01*
X8639Y8336D01*
X8641Y8334D01*
X8641Y8334D01*
X8642Y8333D01*
X8642Y8333D01*
X8643Y8332D01*
X8643D01*
X8643Y8332D01*
X8643Y8332D01*
X8643Y8332D01*
X8644Y8332D01*
X8644Y8332D01*
X8645Y8331D01*
X8646Y8331D01*
X8647Y8331D01*
X8648Y8331D01*
X8648D01*
X8648D01*
X8648Y8331D01*
X8648Y8331D01*
X8649Y8331D01*
X8650Y8331D01*
X8650Y8331D01*
X8651Y8332D01*
X8652Y8332D01*
X8652Y8332D01*
X8652Y8333D01*
X8652Y8333D01*
X8652Y8333D01*
X8653Y8334D01*
X8653Y8335D01*
X8653Y8336D01*
X8653Y8337D01*
Y8337D01*
X8653Y8337D01*
X8653Y8338D01*
X8653Y8338D01*
X8653Y8339D01*
X8652Y8340D01*
X8652Y8341D01*
X8651Y8341D01*
X8651Y8342D01*
X8651Y8342D01*
X8651Y8342D01*
X8650Y8342D01*
X8650Y8343D01*
X8649Y8343D01*
X8648Y8343D01*
X8647Y8343D01*
X8647Y8347D01*
X8647D01*
X8647Y8347D01*
X8648D01*
X8648Y8347D01*
X8648Y8347D01*
X8649Y8347D01*
X8649Y8347D01*
X8650Y8347D01*
X8651Y8346D01*
X8652Y8346D01*
X8653Y8345D01*
X8653Y8345D01*
X8654Y8345D01*
X8654Y8344D01*
X8654Y8344D01*
X8654Y8344D01*
X8654Y8344D01*
X8654Y8344D01*
X8655Y8343D01*
X8655Y8343D01*
X8655Y8343D01*
X8655Y8342D01*
X8656Y8342D01*
X8656Y8341D01*
X8656Y8340D01*
X8656Y8340D01*
X8656Y8339D01*
X8656Y8338D01*
X8656Y8338D01*
X8657Y8337D01*
Y8336D01*
X8656Y8336D01*
X8656Y8335D01*
X8656Y8335D01*
X8656Y8335D01*
X8656Y8334D01*
X8656Y8333D01*
X8655Y8332D01*
X8655Y8331D01*
X8655Y8330D01*
X8654Y8330D01*
X8654Y8329D01*
X8654Y8329D01*
X8654Y8329D01*
X8654Y8329D01*
X8653Y8329D01*
X8653Y8329D01*
X8653Y8328D01*
X8653Y8328D01*
X8652Y8328D01*
X8651Y8327D01*
X8650Y8327D01*
X8650Y8327D01*
X8649Y8327D01*
X8648Y8327D01*
X8647Y8326D01*
X8647D01*
X8647D01*
X8647Y8327D01*
X8646Y8327D01*
X8646Y8327D01*
X8645Y8327D01*
X8644Y8327D01*
X8644Y8327D01*
X8644Y8327D01*
X8643Y8327D01*
X8643Y8328D01*
X8642Y8328D01*
X8642Y8328D01*
X8641Y8329D01*
X8640Y8329D01*
X8640Y8330D01*
X8640Y8330D01*
X8639Y8330D01*
X8639Y8331D01*
X8639Y8331D01*
X8639Y8331D01*
X8638Y8331D01*
X8638Y8332D01*
X8637Y8332D01*
X8637Y8333D01*
X8636Y8333D01*
X8636Y8334D01*
X8635Y8335D01*
X8635Y8335D01*
X8634Y8336D01*
X8634Y8336D01*
X8634Y8336D01*
X8634Y8336D01*
X8633Y8337D01*
X8633Y8337D01*
X8633Y8337D01*
X8632Y8338D01*
X8632Y8339D01*
X8631Y8340D01*
X8630Y8340D01*
X8630Y8341D01*
X8630Y8341D01*
X8630Y8341D01*
X8630Y8341D01*
X8629Y8341D01*
X8629Y8341D01*
X8629Y8342D01*
X8629Y8342D01*
X8628Y8342D01*
Y8326D01*
X8624D01*
Y8348D01*
X8624D01*
X8624D01*
X8624D01*
X8625Y8348D01*
D02*
G37*
G36*
X8648Y8319D02*
X8648Y8319D01*
X8648Y8319D01*
X8649Y8319D01*
X8649Y8318D01*
X8649Y8318D01*
X8649Y8317D01*
X8650Y8316D01*
X8651Y8315D01*
X8651Y8314D01*
X8652Y8313D01*
X8652Y8313D01*
X8652Y8313D01*
X8652Y8313D01*
X8653Y8313D01*
X8653Y8312D01*
X8654Y8312D01*
X8654Y8311D01*
X8655Y8311D01*
X8656Y8310D01*
X8657Y8310D01*
Y8307D01*
X8624D01*
Y8311D01*
X8649D01*
X8649Y8311D01*
X8649Y8311D01*
X8649Y8312D01*
X8648Y8312D01*
X8648Y8313D01*
X8648Y8313D01*
X8647Y8314D01*
X8647Y8315D01*
Y8315D01*
X8646Y8315D01*
X8646Y8315D01*
X8646Y8316D01*
X8646Y8316D01*
X8645Y8317D01*
X8645Y8318D01*
X8645Y8318D01*
X8644Y8319D01*
X8648D01*
Y8319D01*
D02*
G37*
G36*
X10137Y8852D02*
X10137D01*
X10138Y8852D01*
X10139Y8851D01*
X10140Y8851D01*
X10141Y8851D01*
X10142Y8850D01*
X10142D01*
X10142Y8850D01*
X10142Y8850D01*
X10142Y8850D01*
X10143Y8850D01*
X10143Y8849D01*
X10144Y8849D01*
X10145Y8848D01*
X10145Y8848D01*
X10146Y8847D01*
Y8847D01*
X10146Y8847D01*
X10146Y8847D01*
X10146Y8846D01*
X10146Y8846D01*
X10147Y8845D01*
X10147Y8845D01*
X10147Y8844D01*
X10147Y8843D01*
X10147Y8842D01*
Y8841D01*
X10147Y8841D01*
Y8841D01*
X10147Y8840D01*
X10147Y8840D01*
X10147Y8839D01*
X10147Y8839D01*
X10147Y8838D01*
X10146Y8837D01*
X10146Y8837D01*
X10146Y8836D01*
X10145Y8835D01*
X10145Y8835D01*
X10144Y8834D01*
X10144Y8833D01*
X10144Y8833D01*
X10143Y8833D01*
X10143Y8833D01*
X10143Y8833D01*
X10143Y8833D01*
X10142Y8832D01*
X10141Y8832D01*
X10141Y8832D01*
X10140Y8832D01*
X10139Y8831D01*
X10138Y8831D01*
X10137Y8831D01*
X10136Y8831D01*
X10134Y8830D01*
X10133Y8830D01*
X10132Y8830D01*
X10132D01*
X10131D01*
X10131D01*
X10131D01*
X10131Y8830D01*
X10130D01*
X10129Y8830D01*
X10128Y8830D01*
X10127Y8831D01*
X10126Y8831D01*
X10125Y8831D01*
X10124Y8831D01*
X10123Y8831D01*
X10122Y8832D01*
X10121Y8832D01*
X10120Y8833D01*
X10119Y8833D01*
X10118Y8834D01*
X10118Y8834D01*
X10118Y8834D01*
X10118Y8834D01*
X10117Y8834D01*
X10117Y8835D01*
X10117Y8835D01*
X10116Y8835D01*
X10116Y8836D01*
X10116Y8836D01*
X10115Y8837D01*
X10115Y8838D01*
X10115Y8838D01*
X10114Y8839D01*
X10114Y8840D01*
X10114Y8841D01*
X10114Y8842D01*
Y8842D01*
X10114Y8843D01*
Y8843D01*
X10114Y8843D01*
X10114Y8844D01*
X10115Y8845D01*
X10115Y8846D01*
X10116Y8847D01*
X10116Y8848D01*
X10116Y8848D01*
X10116Y8848D01*
X10116Y8848D01*
X10116Y8849D01*
X10117Y8849D01*
X10117Y8849D01*
X10117Y8849D01*
X10118Y8850D01*
X10119Y8850D01*
X10120Y8851D01*
X10121Y8851D01*
X10122Y8851D01*
X10122Y8847D01*
X10122D01*
X10122Y8847D01*
X10122Y8847D01*
X10122Y8847D01*
X10121Y8847D01*
X10121Y8847D01*
X10120Y8846D01*
X10120Y8846D01*
X10119Y8846D01*
X10119Y8846D01*
X10119Y8845D01*
X10119Y8845D01*
X10118Y8845D01*
X10118Y8844D01*
X10118Y8843D01*
X10117Y8843D01*
X10117Y8842D01*
Y8841D01*
X10117Y8841D01*
X10118Y8841D01*
X10118Y8840D01*
X10118Y8839D01*
X10118Y8839D01*
X10118Y8838D01*
X10118Y8838D01*
X10119Y8838D01*
X10119Y8838D01*
X10119Y8837D01*
X10120Y8837D01*
X10121Y8836D01*
X10122Y8836D01*
X10122Y8835D01*
X10123D01*
X10123Y8835D01*
X10123Y8835D01*
X10123Y8835D01*
X10123Y8835D01*
X10124Y8835D01*
X10124Y8835D01*
X10124Y8835D01*
X10125Y8835D01*
X10125Y8835D01*
X10126Y8835D01*
X10127Y8834D01*
X10128Y8834D01*
X10128Y8834D01*
X10129Y8834D01*
X10130D01*
X10130Y8834D01*
X10130Y8835D01*
X10129Y8835D01*
X10129Y8835D01*
X10128Y8836D01*
X10128Y8836D01*
X10127Y8837D01*
X10127Y8838D01*
Y8838D01*
X10127Y8838D01*
X10127Y8838D01*
X10126Y8839D01*
X10126Y8839D01*
X10126Y8840D01*
X10126Y8841D01*
X10126Y8841D01*
X10126Y8842D01*
Y8843D01*
X10126Y8843D01*
X10126Y8843D01*
X10126Y8844D01*
X10126Y8844D01*
X10126Y8845D01*
X10126Y8846D01*
X10127Y8846D01*
X10127Y8847D01*
X10127Y8847D01*
X10128Y8848D01*
X10128Y8848D01*
X10129Y8849D01*
X10129Y8849D01*
X10129Y8849D01*
X10129Y8849D01*
X10129Y8849D01*
X10129Y8850D01*
X10130Y8850D01*
X10130Y8850D01*
X10131Y8850D01*
X10131Y8851D01*
X10132Y8851D01*
X10132Y8851D01*
X10133Y8851D01*
X10134Y8852D01*
X10135Y8852D01*
X10135Y8852D01*
X10136Y8852D01*
X10136D01*
X10136D01*
X10136D01*
X10137D01*
X10137Y8852D01*
D02*
G37*
G36*
X10147Y8816D02*
X10121D01*
X10121Y8816D01*
X10122Y8816D01*
X10122Y8816D01*
X10122Y8815D01*
X10123Y8815D01*
X10123Y8814D01*
X10124Y8813D01*
X10124Y8812D01*
Y8812D01*
X10124Y8812D01*
X10124Y8812D01*
X10125Y8812D01*
X10125Y8811D01*
X10125Y8810D01*
X10125Y8810D01*
X10126Y8809D01*
X10126Y8808D01*
X10122D01*
Y8808D01*
X10122Y8808D01*
X10122Y8809D01*
X10122Y8809D01*
X10122Y8809D01*
X10122Y8809D01*
X10121Y8810D01*
X10121Y8811D01*
X10120Y8812D01*
X10119Y8813D01*
X10118Y8814D01*
X10118Y8814D01*
X10118Y8814D01*
X10118Y8814D01*
X10118Y8814D01*
X10118Y8815D01*
X10117Y8815D01*
X10116Y8816D01*
X10116Y8817D01*
X10115Y8817D01*
X10114Y8818D01*
Y8820D01*
X10147D01*
Y8816D01*
D02*
G37*
G36*
X10137Y8801D02*
X10137Y8801D01*
X10137Y8801D01*
X10138Y8801D01*
X10138Y8801D01*
X10139Y8801D01*
X10139Y8800D01*
X10141Y8800D01*
X10142Y8799D01*
X10143Y8798D01*
X10143Y8798D01*
X10144Y8797D01*
X10145Y8797D01*
X10145Y8797D01*
X10145Y8796D01*
X10145Y8796D01*
X10145Y8796D01*
X10145Y8796D01*
X10145Y8795D01*
X10146Y8795D01*
X10146Y8794D01*
X10146Y8794D01*
X10146Y8793D01*
X10147Y8792D01*
X10147Y8792D01*
X10147Y8791D01*
X10147Y8790D01*
X10147Y8789D01*
X10147Y8788D01*
Y8788D01*
X10147Y8787D01*
Y8787D01*
X10147Y8786D01*
X10147Y8786D01*
X10147Y8785D01*
X10147Y8784D01*
X10146Y8782D01*
X10146Y8781D01*
X10146Y8780D01*
X10145Y8779D01*
X10145Y8779D01*
X10145Y8779D01*
X10145Y8779D01*
X10145Y8779D01*
X10145Y8779D01*
X10144Y8778D01*
X10144Y8778D01*
X10144Y8778D01*
X10143Y8777D01*
X10143Y8777D01*
X10142Y8776D01*
X10140Y8775D01*
X10139Y8774D01*
X10139D01*
X10139Y8774D01*
X10139Y8774D01*
X10138Y8774D01*
X10138Y8774D01*
X10137Y8774D01*
X10137Y8774D01*
X10136Y8774D01*
X10136Y8773D01*
X10135Y8773D01*
X10134Y8773D01*
X10132Y8773D01*
X10130Y8773D01*
X10130D01*
X10130D01*
X10130D01*
X10129Y8773D01*
X10129D01*
X10128Y8773D01*
X10128Y8773D01*
X10127Y8773D01*
X10126Y8773D01*
X10124Y8774D01*
X10123Y8774D01*
X10121Y8775D01*
X10121Y8775D01*
X10121Y8775D01*
X10121Y8775D01*
X10121Y8775D01*
X10120Y8775D01*
X10120Y8775D01*
X10119Y8776D01*
X10118Y8777D01*
X10117Y8778D01*
X10116Y8779D01*
X10116Y8780D01*
X10116Y8780D01*
X10116Y8780D01*
X10115Y8781D01*
X10115Y8781D01*
X10115Y8781D01*
X10115Y8782D01*
X10115Y8782D01*
X10115Y8783D01*
X10114Y8783D01*
X10114Y8784D01*
X10114Y8785D01*
X10114Y8787D01*
X10114Y8788D01*
Y8789D01*
X10114Y8789D01*
X10114Y8789D01*
X10114Y8790D01*
X10114Y8790D01*
X10114Y8791D01*
X10114Y8792D01*
X10115Y8794D01*
X10115Y8794D01*
X10115Y8795D01*
X10116Y8796D01*
X10116Y8796D01*
X10116Y8796D01*
X10116Y8796D01*
X10116Y8797D01*
X10117Y8797D01*
X10117Y8797D01*
X10117Y8797D01*
X10118Y8798D01*
X10118Y8798D01*
X10118Y8799D01*
X10119Y8799D01*
X10120Y8799D01*
X10120Y8800D01*
X10121Y8800D01*
X10122Y8800D01*
X10122Y8801D01*
X10123Y8801D01*
X10124Y8797D01*
X10124D01*
X10124Y8797D01*
X10124Y8797D01*
X10124Y8796D01*
X10123Y8796D01*
X10123Y8796D01*
X10122Y8796D01*
X10121Y8795D01*
X10120Y8795D01*
X10120Y8794D01*
X10119Y8793D01*
X10119Y8793D01*
X10119Y8793D01*
X10118Y8793D01*
X10118Y8792D01*
X10118Y8791D01*
X10118Y8790D01*
X10117Y8789D01*
X10117Y8788D01*
Y8788D01*
X10117Y8787D01*
Y8787D01*
X10117Y8787D01*
X10118Y8786D01*
X10118Y8785D01*
X10118Y8784D01*
X10119Y8783D01*
X10119Y8782D01*
Y8782D01*
X10119Y8782D01*
X10119Y8781D01*
X10120Y8781D01*
X10120Y8780D01*
X10121Y8780D01*
X10122Y8779D01*
X10123Y8779D01*
X10124Y8778D01*
X10124D01*
X10124Y8778D01*
X10124Y8778D01*
X10125Y8778D01*
X10125Y8778D01*
X10125Y8778D01*
X10126Y8778D01*
X10127Y8778D01*
X10128Y8777D01*
X10129Y8777D01*
X10130Y8777D01*
X10130D01*
X10130D01*
X10131D01*
X10131D01*
X10131Y8777D01*
X10132D01*
X10132Y8777D01*
X10133Y8777D01*
X10134Y8777D01*
X10135Y8778D01*
X10136Y8778D01*
X10137Y8778D01*
X10138D01*
X10138Y8778D01*
X10138Y8778D01*
X10138Y8779D01*
X10139Y8779D01*
X10139Y8779D01*
X10140Y8780D01*
X10141Y8780D01*
X10141Y8781D01*
X10142Y8782D01*
Y8782D01*
X10142Y8782D01*
X10142Y8782D01*
X10142Y8783D01*
X10142Y8783D01*
X10143Y8783D01*
X10143Y8784D01*
X10143Y8785D01*
X10143Y8786D01*
X10144Y8787D01*
X10144Y8788D01*
Y8788D01*
X10144Y8788D01*
Y8789D01*
X10144Y8789D01*
X10143Y8790D01*
X10143Y8791D01*
X10143Y8792D01*
X10142Y8793D01*
X10142Y8793D01*
X10142Y8794D01*
X10142Y8794D01*
X10141Y8794D01*
X10141Y8794D01*
X10141Y8794D01*
X10141Y8794D01*
X10141Y8795D01*
X10140Y8795D01*
X10140Y8795D01*
X10140Y8795D01*
X10139Y8796D01*
X10139Y8796D01*
X10138Y8796D01*
X10137Y8797D01*
X10137Y8797D01*
X10136Y8797D01*
X10135Y8797D01*
X10136Y8802D01*
X10136D01*
X10137Y8801D01*
D02*
G37*
G36*
X8947Y6288D02*
X8921D01*
X8921Y6288D01*
X8921Y6288D01*
X8922Y6288D01*
X8922Y6287D01*
X8922Y6287D01*
X8923Y6286D01*
X8923Y6285D01*
X8924Y6285D01*
Y6284D01*
X8924Y6284D01*
X8924Y6284D01*
X8924Y6284D01*
X8925Y6283D01*
X8925Y6282D01*
X8925Y6282D01*
X8926Y6281D01*
X8926Y6280D01*
X8922D01*
Y6280D01*
X8922Y6280D01*
X8922Y6281D01*
X8922Y6281D01*
X8922Y6281D01*
X8921Y6282D01*
X8921Y6282D01*
X8920Y6283D01*
X8920Y6284D01*
X8919Y6285D01*
X8918Y6286D01*
X8918Y6286D01*
X8918Y6286D01*
X8918Y6286D01*
X8918Y6287D01*
X8917Y6287D01*
X8917Y6288D01*
X8916Y6288D01*
X8915Y6289D01*
X8915Y6289D01*
X8914Y6290D01*
Y6292D01*
X8947D01*
Y6288D01*
D02*
G37*
G36*
X8933Y6262D02*
X8947D01*
Y6258D01*
X8933D01*
X8914Y6245D01*
Y6250D01*
X8924Y6257D01*
X8924D01*
X8924Y6257D01*
X8924Y6257D01*
X8924Y6257D01*
X8925Y6257D01*
X8925Y6257D01*
X8926Y6258D01*
X8926Y6258D01*
X8927Y6259D01*
X8928Y6260D01*
X8929Y6260D01*
X8929D01*
X8929Y6260D01*
X8929Y6260D01*
X8929Y6260D01*
X8929Y6261D01*
X8928Y6261D01*
X8928Y6261D01*
X8927Y6262D01*
X8926Y6262D01*
X8925Y6263D01*
X8924Y6264D01*
X8914Y6270D01*
Y6275D01*
X8933Y6262D01*
D02*
G37*
G36*
X9314Y5966D02*
X9315D01*
X9315Y5966D01*
X9316Y5966D01*
X9316Y5966D01*
X9318Y5966D01*
X9319Y5965D01*
X9321Y5965D01*
X9322Y5964D01*
X9322Y5964D01*
X9322Y5964D01*
X9323Y5964D01*
X9323Y5964D01*
X9323Y5964D01*
X9324Y5963D01*
X9324Y5963D01*
X9325Y5962D01*
X9326Y5961D01*
X9327Y5960D01*
X9328Y5959D01*
X9328Y5959D01*
X9328Y5958D01*
X9328Y5958D01*
X9328Y5958D01*
X9329Y5958D01*
X9329Y5957D01*
X9329Y5957D01*
X9329Y5956D01*
X9329Y5956D01*
X9329Y5955D01*
X9330Y5954D01*
X9330Y5952D01*
X9330Y5951D01*
Y5950D01*
X9330Y5950D01*
X9330Y5950D01*
X9330Y5949D01*
X9330Y5948D01*
X9330Y5948D01*
X9329Y5947D01*
X9329Y5945D01*
X9329Y5944D01*
X9328Y5944D01*
X9328Y5943D01*
X9328Y5943D01*
X9328Y5942D01*
X9327Y5942D01*
X9327Y5942D01*
X9327Y5942D01*
X9327Y5942D01*
X9327Y5941D01*
X9326Y5941D01*
X9326Y5941D01*
X9325Y5940D01*
X9325Y5940D01*
X9324Y5940D01*
X9324Y5939D01*
X9323Y5939D01*
X9322Y5938D01*
X9321Y5938D01*
X9321Y5938D01*
X9320Y5942D01*
X9320D01*
X9320Y5942D01*
X9320Y5942D01*
X9320Y5942D01*
X9320Y5942D01*
X9321Y5943D01*
X9322Y5943D01*
X9322Y5943D01*
X9323Y5944D01*
X9324Y5945D01*
X9325Y5945D01*
X9325Y5946D01*
X9325Y5946D01*
X9325Y5946D01*
X9326Y5947D01*
X9326Y5948D01*
X9326Y5949D01*
X9326Y5950D01*
X9326Y5951D01*
Y5951D01*
X9326Y5951D01*
Y5952D01*
X9326Y5952D01*
X9326Y5953D01*
X9326Y5954D01*
X9326Y5955D01*
X9325Y5956D01*
X9325Y5957D01*
Y5957D01*
X9324Y5957D01*
X9324Y5958D01*
X9324Y5958D01*
X9323Y5958D01*
X9323Y5959D01*
X9322Y5960D01*
X9321Y5960D01*
X9320Y5961D01*
X9320D01*
X9320Y5961D01*
X9319Y5961D01*
X9319Y5961D01*
X9319Y5961D01*
X9319Y5961D01*
X9318Y5961D01*
X9317Y5961D01*
X9316Y5962D01*
X9315Y5962D01*
X9313Y5962D01*
X9313D01*
X9313D01*
X9313D01*
X9313D01*
X9312Y5962D01*
X9312D01*
X9312Y5962D01*
X9311Y5962D01*
X9310Y5961D01*
X9309Y5961D01*
X9307Y5961D01*
X9306Y5960D01*
X9306D01*
X9306Y5960D01*
X9306Y5960D01*
X9306Y5960D01*
X9305Y5960D01*
X9304Y5960D01*
X9304Y5959D01*
X9303Y5958D01*
X9302Y5958D01*
X9302Y5957D01*
Y5957D01*
X9302Y5957D01*
X9301Y5956D01*
X9301Y5956D01*
X9301Y5956D01*
X9301Y5956D01*
X9301Y5955D01*
X9301Y5954D01*
X9300Y5953D01*
X9300Y5952D01*
X9300Y5951D01*
Y5951D01*
X9300Y5951D01*
Y5950D01*
X9300Y5950D01*
X9300Y5949D01*
X9301Y5948D01*
X9301Y5947D01*
X9301Y5946D01*
X9302Y5946D01*
X9302Y5945D01*
X9302Y5945D01*
X9302Y5945D01*
X9302Y5945D01*
X9303Y5945D01*
X9303Y5944D01*
X9303Y5944D01*
X9303Y5944D01*
X9304Y5944D01*
X9304Y5943D01*
X9305Y5943D01*
X9305Y5943D01*
X9306Y5943D01*
X9306Y5942D01*
X9307Y5942D01*
X9308Y5942D01*
X9308Y5942D01*
X9307Y5937D01*
X9307D01*
X9307Y5937D01*
X9307Y5937D01*
X9306Y5938D01*
X9306Y5938D01*
X9305Y5938D01*
X9305Y5938D01*
X9304Y5938D01*
X9303Y5939D01*
X9302Y5940D01*
X9301Y5940D01*
X9300Y5941D01*
X9300Y5942D01*
X9299Y5942D01*
X9299Y5942D01*
X9299Y5942D01*
X9299Y5943D01*
X9299Y5943D01*
X9299Y5943D01*
X9298Y5944D01*
X9298Y5944D01*
X9298Y5945D01*
X9298Y5945D01*
X9297Y5946D01*
X9297Y5947D01*
X9297Y5947D01*
X9297Y5948D01*
X9297Y5949D01*
X9296Y5950D01*
X9296Y5951D01*
Y5951D01*
X9296Y5952D01*
Y5952D01*
X9296Y5953D01*
X9297Y5953D01*
X9297Y5954D01*
X9297Y5955D01*
X9297Y5957D01*
X9298Y5958D01*
X9298Y5959D01*
X9299Y5959D01*
X9299Y5959D01*
X9299Y5959D01*
X9299Y5960D01*
X9299Y5960D01*
X9299Y5960D01*
X9299Y5960D01*
X9300Y5961D01*
X9300Y5961D01*
X9301Y5962D01*
X9301Y5962D01*
X9302Y5963D01*
X9303Y5964D01*
X9305Y5964D01*
X9305D01*
X9305Y5964D01*
X9305Y5965D01*
X9305Y5965D01*
X9306Y5965D01*
X9306Y5965D01*
X9307Y5965D01*
X9307Y5965D01*
X9308Y5965D01*
X9309Y5966D01*
X9310Y5966D01*
X9312Y5966D01*
X9313Y5966D01*
X9314D01*
X9314D01*
X9314D01*
X9314Y5966D01*
D02*
G37*
G36*
X9321Y5931D02*
X9322Y5930D01*
X9322Y5930D01*
X9322Y5930D01*
X9322Y5930D01*
X9322Y5929D01*
X9323Y5929D01*
X9323Y5928D01*
X9324Y5927D01*
X9324Y5926D01*
X9325Y5925D01*
X9325Y5925D01*
X9325Y5925D01*
X9325Y5925D01*
X9326Y5924D01*
X9326Y5924D01*
X9327Y5923D01*
X9327Y5923D01*
X9328Y5922D01*
X9329Y5922D01*
X9330Y5921D01*
Y5919D01*
X9297D01*
Y5923D01*
X9322D01*
X9322Y5923D01*
X9322Y5923D01*
X9322Y5923D01*
X9322Y5924D01*
X9321Y5924D01*
X9321Y5925D01*
X9320Y5926D01*
X9320Y5926D01*
Y5926D01*
X9320Y5926D01*
X9319Y5927D01*
X9319Y5927D01*
X9319Y5928D01*
X9319Y5928D01*
X9318Y5929D01*
X9318Y5930D01*
X9318Y5931D01*
X9321D01*
Y5931D01*
D02*
G37*
G36*
X9306Y5904D02*
X9306D01*
X9306D01*
X9306Y5904D01*
X9305Y5904D01*
X9305Y5904D01*
X9304Y5904D01*
X9303Y5903D01*
X9303Y5903D01*
X9302Y5903D01*
X9301Y5902D01*
X9301Y5902D01*
X9301Y5902D01*
X9301Y5901D01*
X9300Y5901D01*
X9300Y5900D01*
X9300Y5900D01*
X9300Y5899D01*
X9300Y5898D01*
Y5898D01*
X9300Y5897D01*
X9300Y5897D01*
X9300Y5896D01*
X9300Y5895D01*
X9301Y5895D01*
X9301Y5894D01*
X9301Y5893D01*
X9302Y5893D01*
X9302Y5893D01*
X9302Y5893D01*
X9302Y5893D01*
X9302Y5893D01*
X9303Y5892D01*
X9303Y5892D01*
X9304Y5892D01*
X9305Y5891D01*
X9306Y5891D01*
X9307Y5891D01*
X9308D01*
X9308D01*
X9308D01*
X9308D01*
X9308Y5891D01*
X9308D01*
X9309Y5891D01*
X9310Y5891D01*
X9310Y5891D01*
X9311Y5892D01*
X9312Y5892D01*
X9313Y5893D01*
X9313D01*
X9313Y5893D01*
X9313Y5893D01*
X9314Y5894D01*
X9314Y5894D01*
X9314Y5895D01*
X9315Y5896D01*
X9315Y5897D01*
X9315Y5897D01*
Y5898D01*
X9315Y5899D01*
X9315Y5899D01*
X9315Y5900D01*
X9315Y5900D01*
X9314Y5901D01*
X9314Y5901D01*
X9314Y5902D01*
X9314Y5902D01*
X9314Y5902D01*
X9314Y5902D01*
X9313Y5903D01*
X9313Y5903D01*
X9312Y5904D01*
X9312Y5904D01*
X9312Y5908D01*
X9329Y5905D01*
Y5888D01*
X9325D01*
Y5901D01*
X9316Y5903D01*
X9317Y5903D01*
X9317Y5903D01*
X9317Y5903D01*
X9317Y5903D01*
X9317Y5902D01*
X9317Y5902D01*
X9317Y5901D01*
X9318Y5900D01*
X9318Y5899D01*
X9318Y5898D01*
X9319Y5898D01*
Y5897D01*
X9318Y5896D01*
X9318Y5896D01*
X9318Y5895D01*
X9318Y5895D01*
X9318Y5894D01*
X9318Y5893D01*
X9318Y5893D01*
X9317Y5892D01*
X9317Y5891D01*
X9317Y5891D01*
X9316Y5890D01*
X9316Y5890D01*
X9316Y5890D01*
X9315Y5890D01*
X9315Y5889D01*
X9315Y5889D01*
X9315Y5889D01*
X9314Y5889D01*
X9314Y5889D01*
X9314Y5888D01*
X9313Y5888D01*
X9312Y5888D01*
X9312Y5887D01*
X9311Y5887D01*
X9310Y5887D01*
X9310Y5887D01*
X9309Y5887D01*
X9308Y5887D01*
X9308D01*
X9308D01*
X9308D01*
X9307Y5887D01*
X9307Y5887D01*
X9306Y5887D01*
X9306Y5887D01*
X9305Y5887D01*
X9304Y5887D01*
X9303Y5888D01*
X9302Y5888D01*
X9302Y5889D01*
X9301Y5889D01*
X9300Y5889D01*
X9300Y5889D01*
X9300Y5890D01*
X9300Y5890D01*
X9300Y5890D01*
X9299Y5890D01*
X9299Y5891D01*
X9299Y5891D01*
X9298Y5892D01*
X9298Y5892D01*
X9298Y5893D01*
X9297Y5894D01*
X9297Y5894D01*
X9297Y5895D01*
X9297Y5896D01*
X9296Y5897D01*
X9296Y5898D01*
Y5898D01*
X9296Y5899D01*
X9296Y5899D01*
X9297Y5899D01*
X9297Y5900D01*
X9297Y5901D01*
X9297Y5902D01*
X9297Y5903D01*
X9298Y5903D01*
X9298Y5904D01*
X9298Y5905D01*
X9299Y5905D01*
X9299Y5905D01*
X9299Y5905D01*
X9299Y5905D01*
X9299Y5906D01*
X9300Y5906D01*
X9300Y5906D01*
X9300Y5906D01*
X9301Y5907D01*
X9301Y5907D01*
X9302Y5907D01*
X9303Y5908D01*
X9304Y5908D01*
X9305Y5908D01*
X9305Y5908D01*
X9306Y5904D01*
D02*
G37*
G36*
X11086Y6879D02*
X11086Y6879D01*
X11087Y6879D01*
X11087Y6879D01*
X11088Y6879D01*
X11089Y6878D01*
X11090Y6878D01*
X11091Y6878D01*
X11092Y6877D01*
X11092Y6877D01*
X11093Y6876D01*
X11093Y6876D01*
X11093Y6876D01*
X11093Y6876D01*
X11094Y6876D01*
X11094Y6876D01*
X11094Y6875D01*
X11094Y6875D01*
X11095Y6875D01*
X11095Y6874D01*
X11096Y6874D01*
X11096Y6873D01*
X11096Y6872D01*
X11097Y6872D01*
X11097Y6871D01*
X11097Y6870D01*
X11098Y6869D01*
X11093Y6868D01*
Y6869D01*
X11093Y6869D01*
X11093Y6869D01*
X11093Y6869D01*
X11093Y6869D01*
X11093Y6870D01*
X11093Y6870D01*
X11092Y6871D01*
X11092Y6872D01*
X11091Y6873D01*
X11090Y6874D01*
X11090Y6874D01*
X11090Y6874D01*
X11089Y6874D01*
X11089Y6874D01*
X11088Y6875D01*
X11087Y6875D01*
X11086Y6875D01*
X11085Y6875D01*
X11084D01*
X11084Y6875D01*
X11084D01*
X11083Y6875D01*
X11083Y6875D01*
X11082Y6875D01*
X11080Y6875D01*
X11079Y6874D01*
X11078Y6873D01*
X11078D01*
X11078Y6873D01*
X11078Y6873D01*
X11078Y6873D01*
X11077Y6872D01*
X11076Y6871D01*
X11076Y6871D01*
X11075Y6870D01*
X11075Y6869D01*
Y6869D01*
X11075Y6868D01*
X11075Y6868D01*
X11075Y6868D01*
X11075Y6868D01*
X11075Y6867D01*
X11074Y6867D01*
X11074Y6866D01*
X11074Y6865D01*
X11074Y6864D01*
X11074Y6862D01*
Y6862D01*
Y6862D01*
Y6862D01*
Y6862D01*
X11074Y6861D01*
Y6861D01*
X11074Y6860D01*
X11074Y6860D01*
X11074Y6859D01*
X11074Y6858D01*
X11075Y6856D01*
X11075Y6855D01*
Y6855D01*
X11075Y6855D01*
X11075Y6855D01*
X11075Y6855D01*
X11076Y6854D01*
X11076Y6853D01*
X11077Y6853D01*
X11077Y6852D01*
X11078Y6851D01*
X11079Y6850D01*
X11079D01*
X11079Y6850D01*
X11079Y6850D01*
X11079Y6850D01*
X11080Y6850D01*
X11080Y6850D01*
X11080Y6850D01*
X11081Y6849D01*
X11082Y6849D01*
X11083Y6849D01*
X11084Y6849D01*
X11085D01*
X11085Y6849D01*
X11085D01*
X11086Y6849D01*
X11087Y6849D01*
X11087Y6849D01*
X11088Y6850D01*
X11090Y6850D01*
X11090Y6851D01*
X11091Y6851D01*
X11091Y6851D01*
X11091Y6851D01*
X11091Y6851D01*
X11091Y6851D01*
X11091Y6852D01*
X11091Y6852D01*
X11092Y6852D01*
X11092Y6853D01*
X11092Y6853D01*
X11092Y6853D01*
X11093Y6854D01*
X11093Y6855D01*
X11093Y6855D01*
X11094Y6856D01*
X11094Y6856D01*
X11094Y6857D01*
X11098Y6856D01*
Y6856D01*
X11098Y6856D01*
X11098Y6856D01*
X11098Y6855D01*
X11098Y6855D01*
X11098Y6854D01*
X11097Y6854D01*
X11097Y6853D01*
X11096Y6852D01*
X11096Y6851D01*
X11095Y6850D01*
X11095Y6849D01*
X11094Y6849D01*
X11093Y6848D01*
X11093Y6848D01*
X11093Y6848D01*
X11093Y6848D01*
X11093Y6848D01*
X11092Y6847D01*
X11092Y6847D01*
X11091Y6847D01*
X11091Y6847D01*
X11090Y6846D01*
X11090Y6846D01*
X11089Y6846D01*
X11088Y6846D01*
X11087Y6846D01*
X11087Y6845D01*
X11086Y6845D01*
X11085Y6845D01*
X11084D01*
X11084Y6845D01*
X11083D01*
X11083Y6845D01*
X11082Y6845D01*
X11082Y6846D01*
X11080Y6846D01*
X11079Y6846D01*
X11078Y6847D01*
X11077Y6847D01*
X11076Y6847D01*
X11076Y6847D01*
X11076Y6848D01*
X11076Y6848D01*
X11076Y6848D01*
X11075Y6848D01*
X11075Y6848D01*
X11075Y6849D01*
X11074Y6849D01*
X11074Y6849D01*
X11074Y6850D01*
X11073Y6851D01*
X11072Y6852D01*
X11071Y6854D01*
Y6854D01*
X11071Y6854D01*
X11071Y6854D01*
X11071Y6854D01*
X11071Y6855D01*
X11071Y6855D01*
X11070Y6856D01*
X11070Y6856D01*
X11070Y6857D01*
X11070Y6858D01*
X11070Y6859D01*
X11070Y6861D01*
X11069Y6862D01*
Y6862D01*
Y6863D01*
Y6863D01*
X11070Y6863D01*
Y6864D01*
X11070Y6864D01*
X11070Y6865D01*
X11070Y6865D01*
X11070Y6867D01*
X11070Y6868D01*
X11071Y6870D01*
X11071Y6871D01*
X11071Y6871D01*
X11072Y6871D01*
X11072Y6872D01*
X11072Y6872D01*
X11072Y6872D01*
X11072Y6873D01*
X11073Y6873D01*
X11074Y6874D01*
X11075Y6875D01*
X11076Y6876D01*
X11077Y6877D01*
X11077Y6877D01*
X11077Y6877D01*
X11077Y6877D01*
X11078Y6877D01*
X11078Y6877D01*
X11078Y6878D01*
X11079Y6878D01*
X11079Y6878D01*
X11080Y6878D01*
X11080Y6878D01*
X11082Y6879D01*
X11083Y6879D01*
X11085Y6879D01*
X11085D01*
X11086Y6879D01*
D02*
G37*
G36*
X11123Y6875D02*
X11123Y6875D01*
X11123Y6875D01*
X11123Y6874D01*
X11123Y6874D01*
X11122Y6874D01*
X11122Y6873D01*
X11122Y6873D01*
X11121Y6872D01*
X11121Y6872D01*
X11120Y6871D01*
X11120Y6870D01*
X11119Y6870D01*
X11119Y6869D01*
X11118Y6868D01*
X11118Y6867D01*
X11117Y6866D01*
X11117Y6866D01*
X11117Y6866D01*
X11117Y6866D01*
X11117Y6865D01*
X11116Y6865D01*
X11116Y6864D01*
X11116Y6863D01*
X11115Y6863D01*
X11115Y6862D01*
X11115Y6861D01*
X11114Y6860D01*
X11114Y6859D01*
X11113Y6857D01*
X11112Y6855D01*
Y6855D01*
X11112Y6855D01*
X11112Y6854D01*
X11112Y6854D01*
X11112Y6854D01*
X11112Y6853D01*
X11112Y6853D01*
X11112Y6852D01*
X11112Y6852D01*
X11111Y6851D01*
X11111Y6849D01*
X11111Y6848D01*
X11111Y6846D01*
X11107D01*
Y6846D01*
Y6846D01*
Y6846D01*
X11107Y6847D01*
Y6847D01*
X11107Y6847D01*
X11107Y6848D01*
X11107Y6848D01*
X11107Y6849D01*
X11107Y6850D01*
X11107Y6851D01*
X11107Y6851D01*
X11108Y6852D01*
X11108Y6853D01*
X11108Y6855D01*
Y6855D01*
X11108Y6855D01*
X11108Y6856D01*
X11109Y6856D01*
X11109Y6856D01*
X11109Y6857D01*
X11109Y6858D01*
X11109Y6858D01*
X11110Y6859D01*
X11110Y6860D01*
X11111Y6862D01*
X11111Y6864D01*
X11112Y6866D01*
X11112Y6866D01*
X11112Y6866D01*
X11113Y6866D01*
X11113Y6866D01*
X11113Y6867D01*
X11113Y6867D01*
X11114Y6868D01*
X11114Y6869D01*
X11115Y6870D01*
X11116Y6871D01*
X11117Y6873D01*
X11118Y6874D01*
X11102D01*
Y6878D01*
X11123D01*
Y6875D01*
D02*
G37*
G36*
X11170Y6676D02*
X11170Y6676D01*
X11171Y6676D01*
X11171Y6676D01*
X11172Y6675D01*
X11173Y6675D01*
X11174Y6675D01*
X11175Y6674D01*
X11176Y6674D01*
X11176Y6674D01*
X11177Y6673D01*
X11177Y6673D01*
X11177Y6673D01*
X11177Y6673D01*
X11178Y6673D01*
X11178Y6673D01*
X11178Y6672D01*
X11179Y6672D01*
X11179Y6671D01*
X11179Y6671D01*
X11180Y6670D01*
X11180Y6670D01*
X11180Y6669D01*
X11181Y6669D01*
X11181Y6668D01*
X11181Y6667D01*
X11182Y6666D01*
X11178Y6665D01*
Y6665D01*
X11177Y6665D01*
X11177Y6666D01*
X11177Y6666D01*
X11177Y6666D01*
X11177Y6666D01*
X11177Y6667D01*
X11176Y6668D01*
X11176Y6669D01*
X11175Y6670D01*
X11174Y6670D01*
X11174Y6671D01*
X11174Y6671D01*
X11173Y6671D01*
X11173Y6671D01*
X11172Y6672D01*
X11171Y6672D01*
X11170Y6672D01*
X11169Y6672D01*
X11168D01*
X11168Y6672D01*
X11168D01*
X11167Y6672D01*
X11167Y6672D01*
X11166Y6672D01*
X11165Y6671D01*
X11163Y6671D01*
X11162Y6670D01*
X11162D01*
X11162Y6670D01*
X11162Y6670D01*
X11162Y6670D01*
X11161Y6669D01*
X11160Y6668D01*
X11160Y6667D01*
X11159Y6666D01*
X11159Y6665D01*
Y6665D01*
X11159Y6665D01*
X11159Y6665D01*
X11159Y6665D01*
X11159Y6665D01*
X11159Y6664D01*
X11158Y6663D01*
X11158Y6663D01*
X11158Y6662D01*
X11158Y6660D01*
X11158Y6659D01*
Y6659D01*
Y6659D01*
Y6659D01*
Y6658D01*
X11158Y6658D01*
Y6658D01*
X11158Y6657D01*
X11158Y6657D01*
X11158Y6656D01*
X11158Y6654D01*
X11159Y6653D01*
X11159Y6652D01*
Y6652D01*
X11159Y6652D01*
X11159Y6652D01*
X11159Y6651D01*
X11160Y6651D01*
X11160Y6650D01*
X11161Y6649D01*
X11161Y6649D01*
X11162Y6648D01*
X11163Y6647D01*
X11163D01*
X11163Y6647D01*
X11163Y6647D01*
X11163Y6647D01*
X11164Y6647D01*
X11164Y6647D01*
X11165Y6647D01*
X11165Y6646D01*
X11166Y6646D01*
X11167Y6646D01*
X11168Y6646D01*
X11169D01*
X11169Y6646D01*
X11169D01*
X11170Y6646D01*
X11171Y6646D01*
X11172Y6646D01*
X11173Y6647D01*
X11174Y6647D01*
X11174Y6647D01*
X11175Y6648D01*
X11175Y6648D01*
X11175Y6648D01*
X11175Y6648D01*
X11175Y6648D01*
X11175Y6648D01*
X11175Y6649D01*
X11176Y6649D01*
X11176Y6649D01*
X11176Y6650D01*
X11177Y6650D01*
X11177Y6651D01*
X11177Y6651D01*
X11177Y6652D01*
X11178Y6653D01*
X11178Y6653D01*
X11178Y6654D01*
X11182Y6653D01*
Y6653D01*
X11182Y6653D01*
X11182Y6652D01*
X11182Y6652D01*
X11182Y6652D01*
X11182Y6651D01*
X11181Y6651D01*
X11181Y6650D01*
X11181Y6649D01*
X11180Y6647D01*
X11179Y6647D01*
X11179Y6646D01*
X11178Y6645D01*
X11177Y6645D01*
X11177Y6645D01*
X11177Y6645D01*
X11177Y6645D01*
X11177Y6644D01*
X11176Y6644D01*
X11176Y6644D01*
X11176Y6644D01*
X11175Y6644D01*
X11174Y6643D01*
X11174Y6643D01*
X11173Y6643D01*
X11172Y6643D01*
X11171Y6642D01*
X11171Y6642D01*
X11170Y6642D01*
X11169Y6642D01*
X11168D01*
X11168Y6642D01*
X11167D01*
X11167Y6642D01*
X11166Y6642D01*
X11166Y6642D01*
X11164Y6643D01*
X11163Y6643D01*
X11162Y6644D01*
X11161Y6644D01*
X11160Y6644D01*
X11160Y6644D01*
X11160Y6644D01*
X11160Y6644D01*
X11160Y6645D01*
X11159Y6645D01*
X11159Y6645D01*
X11159Y6645D01*
X11158Y6646D01*
X11158Y6646D01*
X11158Y6647D01*
X11157Y6648D01*
X11156Y6649D01*
X11155Y6650D01*
Y6650D01*
X11155Y6651D01*
X11155Y6651D01*
X11155Y6651D01*
X11155Y6651D01*
X11155Y6652D01*
X11155Y6652D01*
X11154Y6653D01*
X11154Y6654D01*
X11154Y6654D01*
X11154Y6656D01*
X11154Y6657D01*
X11154Y6659D01*
Y6659D01*
Y6659D01*
Y6660D01*
X11154Y6660D01*
Y6660D01*
X11154Y6661D01*
X11154Y6662D01*
X11154Y6662D01*
X11154Y6664D01*
X11154Y6665D01*
X11155Y6667D01*
X11155Y6668D01*
X11156Y6668D01*
X11156Y6668D01*
X11156Y6668D01*
X11156Y6669D01*
X11156Y6669D01*
X11156Y6669D01*
X11157Y6670D01*
X11158Y6671D01*
X11159Y6672D01*
X11160Y6673D01*
X11161Y6674D01*
X11161Y6674D01*
X11161Y6674D01*
X11161Y6674D01*
X11162Y6674D01*
X11162Y6674D01*
X11162Y6674D01*
X11163Y6675D01*
X11163Y6675D01*
X11164Y6675D01*
X11164Y6675D01*
X11166Y6675D01*
X11167Y6676D01*
X11169Y6676D01*
X11169D01*
X11170Y6676D01*
D02*
G37*
G36*
X11197Y6675D02*
X11198Y6675D01*
X11198Y6675D01*
X11199Y6675D01*
X11199Y6675D01*
X11200Y6675D01*
X11201Y6674D01*
X11202Y6674D01*
X11202Y6674D01*
X11203Y6673D01*
X11203Y6673D01*
X11203Y6673D01*
X11203Y6673D01*
X11204Y6673D01*
X11204Y6672D01*
X11204Y6672D01*
X11204Y6672D01*
X11205Y6671D01*
X11205Y6670D01*
X11206Y6669D01*
X11206Y6668D01*
X11206Y6667D01*
X11206Y6667D01*
Y6667D01*
Y6667D01*
Y6666D01*
X11206Y6666D01*
X11206Y6665D01*
X11206Y6665D01*
X11206Y6664D01*
X11205Y6663D01*
X11205Y6663D01*
X11205Y6663D01*
X11205Y6663D01*
X11204Y6662D01*
X11204Y6662D01*
X11203Y6661D01*
X11203Y6661D01*
X11202Y6661D01*
X11201Y6660D01*
X11201D01*
X11201Y6660D01*
X11202Y6660D01*
X11202Y6660D01*
X11202Y6660D01*
X11203Y6659D01*
X11204Y6659D01*
X11204Y6658D01*
X11205Y6658D01*
X11206Y6657D01*
Y6657D01*
X11206Y6657D01*
X11206Y6657D01*
X11206Y6656D01*
X11207Y6656D01*
X11207Y6655D01*
X11207Y6654D01*
X11207Y6653D01*
X11207Y6652D01*
Y6652D01*
Y6652D01*
Y6651D01*
X11207Y6651D01*
X11207Y6651D01*
X11207Y6650D01*
X11207Y6650D01*
X11207Y6649D01*
X11207Y6648D01*
X11206Y6648D01*
X11206Y6647D01*
X11206Y6647D01*
X11205Y6646D01*
X11205Y6645D01*
X11204Y6645D01*
X11204Y6645D01*
X11204Y6645D01*
X11204Y6645D01*
X11204Y6644D01*
X11204Y6644D01*
X11203Y6644D01*
X11203Y6644D01*
X11202Y6644D01*
X11202Y6643D01*
X11201Y6643D01*
X11201Y6643D01*
X11200Y6643D01*
X11199Y6642D01*
X11198Y6642D01*
X11198Y6642D01*
X11197Y6642D01*
X11196D01*
X11196Y6642D01*
X11195Y6642D01*
X11195Y6642D01*
X11194Y6642D01*
X11194Y6642D01*
X11193Y6643D01*
X11192Y6643D01*
X11191Y6643D01*
X11191Y6644D01*
X11190Y6644D01*
X11189Y6644D01*
X11189Y6645D01*
X11189Y6645D01*
X11189Y6645D01*
X11189Y6645D01*
X11188Y6645D01*
X11188Y6646D01*
X11188Y6646D01*
X11188Y6646D01*
X11187Y6647D01*
X11187Y6647D01*
X11187Y6648D01*
X11186Y6649D01*
X11186Y6650D01*
X11186Y6651D01*
X11186Y6651D01*
X11186Y6652D01*
Y6652D01*
Y6652D01*
Y6652D01*
X11186Y6653D01*
Y6653D01*
X11186Y6653D01*
X11186Y6654D01*
X11186Y6655D01*
X11187Y6656D01*
X11187Y6656D01*
X11188Y6657D01*
Y6657D01*
X11188Y6657D01*
X11188Y6658D01*
X11188Y6658D01*
X11189Y6658D01*
X11189Y6659D01*
X11190Y6659D01*
X11191Y6660D01*
X11192Y6660D01*
X11192D01*
X11192Y6660D01*
X11192Y6660D01*
X11192Y6660D01*
X11191Y6661D01*
X11191Y6661D01*
X11190Y6661D01*
X11189Y6662D01*
X11189Y6662D01*
X11188Y6663D01*
X11188Y6663D01*
X11188Y6663D01*
X11188Y6663D01*
X11188Y6664D01*
X11188Y6665D01*
X11187Y6665D01*
X11187Y6666D01*
X11187Y6667D01*
Y6667D01*
Y6667D01*
Y6667D01*
X11187Y6668D01*
X11187Y6668D01*
X11187Y6668D01*
X11188Y6669D01*
X11188Y6670D01*
X11188Y6671D01*
X11189Y6671D01*
X11189Y6672D01*
X11189Y6672D01*
X11190Y6673D01*
X11190Y6673D01*
X11190Y6673D01*
X11190Y6673D01*
X11190Y6673D01*
X11190Y6673D01*
X11191Y6674D01*
X11191Y6674D01*
X11192Y6674D01*
X11192Y6674D01*
X11193Y6675D01*
X11193Y6675D01*
X11194Y6675D01*
X11195Y6675D01*
X11196Y6675D01*
X11197Y6675D01*
X11197D01*
X11197Y6675D01*
D02*
G37*
G36*
X10953Y6601D02*
X10953D01*
X10954Y6601D01*
X10954Y6601D01*
X10955Y6601D01*
X10956Y6601D01*
X10958Y6600D01*
X10959Y6600D01*
X10961Y6599D01*
X10961Y6599D01*
X10961Y6599D01*
X10961Y6599D01*
X10961Y6599D01*
X10962Y6599D01*
X10962Y6598D01*
X10963Y6598D01*
X10964Y6597D01*
X10965Y6596D01*
X10966Y6595D01*
X10966Y6594D01*
X10966Y6594D01*
X10966Y6593D01*
X10967Y6593D01*
X10967Y6593D01*
X10967Y6593D01*
X10967Y6592D01*
X10967Y6592D01*
X10967Y6591D01*
X10968Y6591D01*
X10968Y6590D01*
X10968Y6589D01*
X10968Y6587D01*
X10968Y6586D01*
Y6585D01*
X10968Y6585D01*
X10968Y6585D01*
X10968Y6584D01*
X10968Y6583D01*
X10968Y6583D01*
X10968Y6582D01*
X10967Y6580D01*
X10967Y6579D01*
X10967Y6579D01*
X10966Y6578D01*
X10966Y6578D01*
X10966Y6577D01*
X10966Y6577D01*
X10966Y6577D01*
X10965Y6577D01*
X10965Y6577D01*
X10965Y6576D01*
X10964Y6576D01*
X10964Y6576D01*
X10964Y6575D01*
X10963Y6575D01*
X10962Y6575D01*
X10962Y6574D01*
X10961Y6574D01*
X10960Y6573D01*
X10960Y6573D01*
X10959Y6573D01*
X10958Y6577D01*
X10958D01*
X10958Y6577D01*
X10958Y6577D01*
X10958Y6577D01*
X10959Y6577D01*
X10959Y6578D01*
X10960Y6578D01*
X10961Y6578D01*
X10962Y6579D01*
X10962Y6580D01*
X10963Y6580D01*
X10963Y6581D01*
X10963Y6581D01*
X10964Y6581D01*
X10964Y6582D01*
X10964Y6583D01*
X10964Y6584D01*
X10965Y6585D01*
X10965Y6586D01*
Y6586D01*
X10965Y6586D01*
Y6587D01*
X10965Y6587D01*
X10964Y6588D01*
X10964Y6589D01*
X10964Y6590D01*
X10963Y6591D01*
X10963Y6592D01*
Y6592D01*
X10963Y6592D01*
X10963Y6593D01*
X10962Y6593D01*
X10962Y6593D01*
X10961Y6594D01*
X10960Y6595D01*
X10959Y6595D01*
X10958Y6596D01*
X10958D01*
X10958Y6596D01*
X10958Y6596D01*
X10957Y6596D01*
X10957Y6596D01*
X10957Y6596D01*
X10956Y6596D01*
X10955Y6596D01*
X10954Y6596D01*
X10953Y6597D01*
X10952Y6597D01*
X10952D01*
X10952D01*
X10951D01*
X10951D01*
X10951Y6597D01*
X10950D01*
X10950Y6597D01*
X10949Y6596D01*
X10948Y6596D01*
X10947Y6596D01*
X10946Y6596D01*
X10945Y6595D01*
X10944D01*
X10944Y6595D01*
X10944Y6595D01*
X10944Y6595D01*
X10943Y6595D01*
X10943Y6595D01*
X10942Y6594D01*
X10941Y6593D01*
X10941Y6593D01*
X10940Y6592D01*
Y6592D01*
X10940Y6592D01*
X10940Y6591D01*
X10940Y6591D01*
X10940Y6591D01*
X10939Y6591D01*
X10939Y6590D01*
X10939Y6589D01*
X10939Y6588D01*
X10938Y6587D01*
X10938Y6586D01*
Y6586D01*
X10938Y6586D01*
Y6585D01*
X10938Y6585D01*
X10939Y6584D01*
X10939Y6583D01*
X10939Y6582D01*
X10940Y6581D01*
X10940Y6581D01*
X10940Y6580D01*
X10940Y6580D01*
X10941Y6580D01*
X10941Y6580D01*
X10941Y6580D01*
X10941Y6579D01*
X10941Y6579D01*
X10942Y6579D01*
X10942Y6579D01*
X10942Y6578D01*
X10943Y6578D01*
X10943Y6578D01*
X10944Y6578D01*
X10945Y6577D01*
X10945Y6577D01*
X10946Y6577D01*
X10947Y6577D01*
X10946Y6572D01*
X10946D01*
X10945Y6572D01*
X10945Y6572D01*
X10945Y6573D01*
X10944Y6573D01*
X10944Y6573D01*
X10943Y6573D01*
X10943Y6573D01*
X10941Y6574D01*
X10940Y6575D01*
X10939Y6575D01*
X10939Y6576D01*
X10938Y6577D01*
X10937Y6577D01*
X10937Y6577D01*
X10937Y6577D01*
X10937Y6578D01*
X10937Y6578D01*
X10937Y6578D01*
X10937Y6579D01*
X10936Y6579D01*
X10936Y6580D01*
X10936Y6580D01*
X10936Y6581D01*
X10935Y6582D01*
X10935Y6582D01*
X10935Y6583D01*
X10935Y6584D01*
X10935Y6585D01*
X10935Y6586D01*
Y6586D01*
X10935Y6587D01*
Y6587D01*
X10935Y6588D01*
X10935Y6588D01*
X10935Y6589D01*
X10935Y6590D01*
X10936Y6592D01*
X10936Y6593D01*
X10936Y6594D01*
X10937Y6594D01*
X10937Y6594D01*
X10937Y6594D01*
X10937Y6595D01*
X10937Y6595D01*
X10937Y6595D01*
X10938Y6595D01*
X10938Y6596D01*
X10938Y6596D01*
X10939Y6597D01*
X10939Y6597D01*
X10940Y6598D01*
X10942Y6599D01*
X10943Y6599D01*
X10943D01*
X10943Y6599D01*
X10943Y6600D01*
X10944Y6600D01*
X10944Y6600D01*
X10945Y6600D01*
X10945Y6600D01*
X10946Y6600D01*
X10946Y6600D01*
X10947Y6601D01*
X10948Y6601D01*
X10950Y6601D01*
X10952Y6601D01*
X10952D01*
X10952D01*
X10952D01*
X10953Y6601D01*
D02*
G37*
G36*
X10960Y6566D02*
X10960Y6565D01*
X10960Y6565D01*
X10960Y6565D01*
X10960Y6565D01*
X10960Y6564D01*
X10961Y6564D01*
X10961Y6563D01*
X10962Y6562D01*
X10963Y6561D01*
X10964Y6560D01*
X10964Y6560D01*
X10964Y6560D01*
X10964Y6560D01*
X10964Y6559D01*
X10964Y6559D01*
X10965Y6558D01*
X10966Y6558D01*
X10966Y6557D01*
X10967Y6557D01*
X10968Y6556D01*
Y6554D01*
X10935D01*
Y6558D01*
X10961D01*
X10961Y6558D01*
X10960Y6558D01*
X10960Y6558D01*
X10960Y6559D01*
X10959Y6559D01*
X10959Y6560D01*
X10958Y6561D01*
X10958Y6561D01*
Y6561D01*
X10958Y6561D01*
X10958Y6562D01*
X10957Y6562D01*
X10957Y6563D01*
X10957Y6563D01*
X10957Y6564D01*
X10956Y6565D01*
X10956Y6566D01*
X10960D01*
Y6566D01*
D02*
G37*
G36*
Y6540D02*
X10960Y6540D01*
X10960Y6540D01*
X10960Y6540D01*
X10960Y6539D01*
X10960Y6539D01*
X10961Y6538D01*
X10961Y6537D01*
X10962Y6536D01*
X10963Y6535D01*
X10964Y6534D01*
X10964Y6534D01*
X10964Y6534D01*
X10964Y6534D01*
X10964Y6534D01*
X10964Y6534D01*
X10965Y6533D01*
X10966Y6532D01*
X10966Y6532D01*
X10967Y6531D01*
X10968Y6531D01*
Y6528D01*
X10935D01*
Y6532D01*
X10961D01*
X10961Y6532D01*
X10960Y6533D01*
X10960Y6533D01*
X10960Y6533D01*
X10959Y6534D01*
X10959Y6535D01*
X10958Y6535D01*
X10958Y6536D01*
Y6536D01*
X10958Y6536D01*
X10958Y6536D01*
X10957Y6537D01*
X10957Y6538D01*
X10957Y6538D01*
X10957Y6539D01*
X10956Y6540D01*
X10956Y6540D01*
X10960D01*
Y6540D01*
D02*
G37*
G36*
X10953Y6340D02*
X10953D01*
X10954Y6340D01*
X10954Y6340D01*
X10955Y6340D01*
X10956Y6340D01*
X10958Y6339D01*
X10959Y6339D01*
X10961Y6338D01*
X10961Y6338D01*
X10961Y6338D01*
X10961Y6338D01*
X10961Y6338D01*
X10962Y6338D01*
X10962Y6338D01*
X10963Y6337D01*
X10964Y6336D01*
X10965Y6335D01*
X10966Y6334D01*
X10966Y6333D01*
X10966Y6333D01*
X10966Y6333D01*
X10967Y6332D01*
X10967Y6332D01*
X10967Y6332D01*
X10967Y6331D01*
X10967Y6331D01*
X10967Y6330D01*
X10968Y6330D01*
X10968Y6329D01*
X10968Y6328D01*
X10968Y6326D01*
X10968Y6325D01*
Y6324D01*
X10968Y6324D01*
X10968Y6324D01*
X10968Y6323D01*
X10968Y6323D01*
X10968Y6322D01*
X10968Y6321D01*
X10967Y6319D01*
X10967Y6319D01*
X10967Y6318D01*
X10966Y6317D01*
X10966Y6317D01*
X10966Y6317D01*
X10966Y6317D01*
X10966Y6316D01*
X10965Y6316D01*
X10965Y6316D01*
X10965Y6316D01*
X10964Y6315D01*
X10964Y6315D01*
X10964Y6314D01*
X10963Y6314D01*
X10962Y6314D01*
X10962Y6313D01*
X10961Y6313D01*
X10960Y6313D01*
X10960Y6312D01*
X10959Y6312D01*
X10958Y6316D01*
X10958D01*
X10958Y6316D01*
X10958Y6316D01*
X10958Y6317D01*
X10959Y6317D01*
X10959Y6317D01*
X10960Y6317D01*
X10961Y6318D01*
X10962Y6318D01*
X10962Y6319D01*
X10963Y6320D01*
X10963Y6320D01*
X10963Y6320D01*
X10964Y6320D01*
X10964Y6321D01*
X10964Y6322D01*
X10964Y6323D01*
X10965Y6324D01*
X10965Y6325D01*
Y6325D01*
X10965Y6326D01*
Y6326D01*
X10965Y6326D01*
X10964Y6327D01*
X10964Y6328D01*
X10964Y6329D01*
X10963Y6330D01*
X10963Y6331D01*
Y6331D01*
X10963Y6331D01*
X10963Y6332D01*
X10962Y6332D01*
X10962Y6333D01*
X10961Y6333D01*
X10960Y6334D01*
X10959Y6334D01*
X10958Y6335D01*
X10958D01*
X10958Y6335D01*
X10958Y6335D01*
X10957Y6335D01*
X10957Y6335D01*
X10957Y6335D01*
X10956Y6335D01*
X10955Y6335D01*
X10954Y6336D01*
X10953Y6336D01*
X10952Y6336D01*
X10952D01*
X10952D01*
X10951D01*
X10951D01*
X10951Y6336D01*
X10950D01*
X10950Y6336D01*
X10949Y6336D01*
X10948Y6336D01*
X10947Y6335D01*
X10946Y6335D01*
X10945Y6335D01*
X10944D01*
X10944Y6335D01*
X10944Y6335D01*
X10944Y6334D01*
X10943Y6334D01*
X10943Y6334D01*
X10942Y6333D01*
X10941Y6333D01*
X10941Y6332D01*
X10940Y6331D01*
Y6331D01*
X10940Y6331D01*
X10940Y6331D01*
X10940Y6330D01*
X10940Y6330D01*
X10939Y6330D01*
X10939Y6329D01*
X10939Y6328D01*
X10939Y6327D01*
X10938Y6326D01*
X10938Y6325D01*
Y6325D01*
X10938Y6325D01*
Y6324D01*
X10938Y6324D01*
X10939Y6323D01*
X10939Y6322D01*
X10939Y6321D01*
X10940Y6320D01*
X10940Y6320D01*
X10940Y6319D01*
X10940Y6319D01*
X10941Y6319D01*
X10941Y6319D01*
X10941Y6319D01*
X10941Y6319D01*
X10941Y6318D01*
X10942Y6318D01*
X10942Y6318D01*
X10942Y6318D01*
X10943Y6317D01*
X10943Y6317D01*
X10944Y6317D01*
X10945Y6316D01*
X10945Y6316D01*
X10946Y6316D01*
X10947Y6316D01*
X10946Y6311D01*
X10946D01*
X10945Y6312D01*
X10945Y6312D01*
X10945Y6312D01*
X10944Y6312D01*
X10944Y6312D01*
X10943Y6312D01*
X10943Y6313D01*
X10941Y6313D01*
X10940Y6314D01*
X10939Y6315D01*
X10939Y6315D01*
X10938Y6316D01*
X10937Y6316D01*
X10937Y6316D01*
X10937Y6317D01*
X10937Y6317D01*
X10937Y6317D01*
X10937Y6317D01*
X10937Y6318D01*
X10936Y6318D01*
X10936Y6319D01*
X10936Y6319D01*
X10936Y6320D01*
X10935Y6321D01*
X10935Y6321D01*
X10935Y6322D01*
X10935Y6323D01*
X10935Y6324D01*
X10935Y6325D01*
Y6325D01*
X10935Y6326D01*
Y6326D01*
X10935Y6327D01*
X10935Y6327D01*
X10935Y6328D01*
X10935Y6329D01*
X10936Y6331D01*
X10936Y6332D01*
X10936Y6333D01*
X10937Y6334D01*
X10937Y6334D01*
X10937Y6334D01*
X10937Y6334D01*
X10937Y6334D01*
X10937Y6334D01*
X10938Y6335D01*
X10938Y6335D01*
X10938Y6335D01*
X10939Y6336D01*
X10939Y6336D01*
X10940Y6337D01*
X10942Y6338D01*
X10943Y6339D01*
X10943D01*
X10943Y6339D01*
X10943Y6339D01*
X10944Y6339D01*
X10944Y6339D01*
X10945Y6339D01*
X10945Y6339D01*
X10946Y6339D01*
X10946Y6340D01*
X10947Y6340D01*
X10948Y6340D01*
X10950Y6340D01*
X10952Y6340D01*
X10952D01*
X10952D01*
X10952D01*
X10953Y6340D01*
D02*
G37*
G36*
X10960Y6305D02*
X10960Y6305D01*
X10960Y6304D01*
X10960Y6304D01*
X10960Y6304D01*
X10960Y6304D01*
X10961Y6303D01*
X10961Y6302D01*
X10962Y6301D01*
X10963Y6300D01*
X10964Y6299D01*
X10964Y6299D01*
X10964Y6299D01*
X10964Y6299D01*
X10964Y6299D01*
X10964Y6298D01*
X10965Y6298D01*
X10966Y6297D01*
X10966Y6296D01*
X10967Y6296D01*
X10968Y6295D01*
Y6293D01*
X10935D01*
Y6297D01*
X10961D01*
X10961Y6297D01*
X10960Y6297D01*
X10960Y6297D01*
X10960Y6298D01*
X10959Y6298D01*
X10959Y6299D01*
X10958Y6300D01*
X10958Y6301D01*
Y6301D01*
X10958Y6301D01*
X10958Y6301D01*
X10957Y6301D01*
X10957Y6302D01*
X10957Y6303D01*
X10957Y6303D01*
X10956Y6304D01*
X10956Y6305D01*
X10960D01*
Y6305D01*
D02*
G37*
G36*
X10936Y6283D02*
X10937Y6283D01*
X10937Y6283D01*
X10938Y6283D01*
X10938Y6283D01*
X10938D01*
X10938Y6283D01*
X10938Y6282D01*
X10939Y6282D01*
X10939Y6282D01*
X10940Y6282D01*
X10941Y6281D01*
X10942Y6281D01*
X10942Y6280D01*
X10942D01*
X10942Y6280D01*
X10943Y6280D01*
X10943Y6279D01*
X10944Y6279D01*
X10944Y6278D01*
X10945Y6277D01*
X10946Y6276D01*
X10947Y6275D01*
X10947Y6275D01*
X10947Y6275D01*
X10948Y6274D01*
X10948Y6274D01*
X10948Y6274D01*
X10949Y6273D01*
X10949Y6272D01*
X10950Y6272D01*
X10951Y6271D01*
X10952Y6270D01*
X10953Y6269D01*
X10953Y6268D01*
X10954Y6268D01*
X10954Y6268D01*
X10954D01*
X10954Y6268D01*
X10954Y6267D01*
X10955Y6267D01*
X10955Y6267D01*
X10956Y6267D01*
X10956Y6266D01*
X10957Y6266D01*
X10958Y6266D01*
X10959Y6266D01*
X10959D01*
X10959D01*
X10959Y6266D01*
X10960Y6266D01*
X10960Y6266D01*
X10961Y6266D01*
X10962Y6266D01*
X10962Y6267D01*
X10963Y6267D01*
X10963Y6268D01*
X10963Y6268D01*
X10964Y6268D01*
X10964Y6269D01*
X10964Y6269D01*
X10964Y6270D01*
X10965Y6271D01*
X10965Y6272D01*
Y6272D01*
X10965Y6272D01*
X10965Y6273D01*
X10964Y6274D01*
X10964Y6274D01*
X10964Y6275D01*
X10963Y6276D01*
X10963Y6277D01*
X10963Y6277D01*
X10963Y6277D01*
X10962Y6277D01*
X10962Y6277D01*
X10961Y6278D01*
X10960Y6278D01*
X10959Y6278D01*
X10958Y6278D01*
X10959Y6282D01*
X10959D01*
X10959Y6282D01*
X10959D01*
X10959Y6282D01*
X10960Y6282D01*
X10960Y6282D01*
X10961Y6282D01*
X10961Y6282D01*
X10962Y6281D01*
X10963Y6281D01*
X10964Y6281D01*
X10964Y6280D01*
X10965Y6280D01*
X10965Y6279D01*
X10966Y6279D01*
X10966Y6279D01*
X10966Y6279D01*
X10966Y6279D01*
X10966Y6278D01*
X10966Y6278D01*
X10966Y6278D01*
X10967Y6277D01*
X10967Y6277D01*
X10967Y6276D01*
X10967Y6276D01*
X10968Y6275D01*
X10968Y6274D01*
X10968Y6273D01*
X10968Y6273D01*
X10968Y6272D01*
Y6271D01*
X10968Y6271D01*
X10968Y6271D01*
X10968Y6270D01*
X10968Y6270D01*
X10968Y6269D01*
X10967Y6268D01*
X10967Y6267D01*
X10967Y6266D01*
X10966Y6265D01*
X10966Y6265D01*
X10965Y6264D01*
X10965Y6264D01*
X10965Y6264D01*
X10965Y6264D01*
X10965Y6264D01*
X10965Y6264D01*
X10964Y6263D01*
X10964Y6263D01*
X10964Y6263D01*
X10963Y6262D01*
X10961Y6262D01*
X10961Y6262D01*
X10960Y6262D01*
X10960Y6262D01*
X10959Y6262D01*
X10959D01*
X10959D01*
X10958Y6262D01*
X10958Y6262D01*
X10957Y6262D01*
X10956Y6262D01*
X10956Y6262D01*
X10955Y6262D01*
X10955Y6262D01*
X10955Y6263D01*
X10954Y6263D01*
X10954Y6263D01*
X10953Y6263D01*
X10953Y6264D01*
X10952Y6264D01*
X10951Y6265D01*
X10951Y6265D01*
X10951Y6265D01*
X10950Y6266D01*
X10950Y6266D01*
X10950Y6266D01*
X10950Y6267D01*
X10949Y6267D01*
X10949Y6267D01*
X10948Y6268D01*
X10948Y6268D01*
X10947Y6269D01*
X10947Y6270D01*
X10946Y6270D01*
X10945Y6271D01*
X10945Y6271D01*
X10945Y6271D01*
X10945Y6272D01*
X10945Y6272D01*
X10945Y6272D01*
X10944Y6272D01*
X10944Y6273D01*
X10943Y6274D01*
X10942Y6275D01*
X10942Y6275D01*
X10941Y6276D01*
X10941Y6276D01*
X10941Y6276D01*
X10941Y6276D01*
X10941Y6276D01*
X10941Y6276D01*
X10940Y6277D01*
X10940Y6277D01*
X10939Y6278D01*
Y6262D01*
X10935D01*
Y6283D01*
X10935D01*
X10935D01*
X10936D01*
X10936Y6283D01*
D02*
G37*
G36*
X10737Y6210D02*
X10737D01*
X10738Y6210D01*
X10738Y6210D01*
X10739Y6210D01*
X10740Y6210D01*
X10742Y6210D01*
X10743Y6209D01*
X10745Y6208D01*
X10745Y6208D01*
X10745Y6208D01*
X10745Y6208D01*
X10745Y6208D01*
X10746Y6208D01*
X10746Y6208D01*
X10747Y6207D01*
X10748Y6206D01*
X10749Y6205D01*
X10750Y6204D01*
X10750Y6203D01*
X10751Y6203D01*
X10751Y6203D01*
X10751Y6203D01*
X10751Y6202D01*
X10751Y6202D01*
X10751Y6202D01*
X10751Y6201D01*
X10751Y6201D01*
X10752Y6200D01*
X10752Y6199D01*
X10752Y6198D01*
X10752Y6197D01*
X10752Y6195D01*
Y6195D01*
X10752Y6194D01*
X10752Y6194D01*
X10752Y6193D01*
X10752Y6193D01*
X10752Y6192D01*
X10752Y6191D01*
X10751Y6189D01*
X10751Y6189D01*
X10751Y6188D01*
X10750Y6187D01*
X10750Y6187D01*
X10750Y6187D01*
X10750Y6187D01*
X10750Y6186D01*
X10749Y6186D01*
X10749Y6186D01*
X10749Y6186D01*
X10749Y6185D01*
X10748Y6185D01*
X10748Y6185D01*
X10747Y6184D01*
X10747Y6184D01*
X10746Y6183D01*
X10745Y6183D01*
X10745Y6183D01*
X10744Y6182D01*
X10743Y6182D01*
X10742Y6186D01*
X10742D01*
X10742Y6186D01*
X10742Y6186D01*
X10743Y6187D01*
X10743Y6187D01*
X10743Y6187D01*
X10744Y6187D01*
X10745Y6188D01*
X10746Y6188D01*
X10746Y6189D01*
X10747Y6190D01*
X10747Y6190D01*
X10747Y6190D01*
X10748Y6191D01*
X10748Y6191D01*
X10748Y6192D01*
X10749Y6193D01*
X10749Y6194D01*
X10749Y6195D01*
Y6195D01*
X10749Y6196D01*
Y6196D01*
X10749Y6196D01*
X10749Y6197D01*
X10748Y6198D01*
X10748Y6199D01*
X10748Y6200D01*
X10747Y6201D01*
Y6201D01*
X10747Y6201D01*
X10747Y6202D01*
X10746Y6202D01*
X10746Y6203D01*
X10745Y6203D01*
X10744Y6204D01*
X10743Y6204D01*
X10742Y6205D01*
X10742D01*
X10742Y6205D01*
X10742Y6205D01*
X10742Y6205D01*
X10741Y6205D01*
X10741Y6205D01*
X10740Y6205D01*
X10739Y6206D01*
X10738Y6206D01*
X10737Y6206D01*
X10736Y6206D01*
X10736D01*
X10736D01*
X10735D01*
X10735D01*
X10735Y6206D01*
X10734D01*
X10734Y6206D01*
X10733Y6206D01*
X10732Y6206D01*
X10731Y6205D01*
X10730Y6205D01*
X10729Y6205D01*
X10729D01*
X10728Y6205D01*
X10728Y6205D01*
X10728Y6204D01*
X10728Y6204D01*
X10727Y6204D01*
X10726Y6203D01*
X10725Y6203D01*
X10725Y6202D01*
X10724Y6201D01*
Y6201D01*
X10724Y6201D01*
X10724Y6201D01*
X10724Y6200D01*
X10724Y6200D01*
X10723Y6200D01*
X10723Y6199D01*
X10723Y6198D01*
X10723Y6198D01*
X10723Y6196D01*
X10722Y6195D01*
Y6195D01*
X10723Y6195D01*
Y6194D01*
X10723Y6194D01*
X10723Y6193D01*
X10723Y6192D01*
X10723Y6191D01*
X10724Y6190D01*
X10724Y6190D01*
X10725Y6189D01*
X10725Y6189D01*
X10725Y6189D01*
X10725Y6189D01*
X10725Y6189D01*
X10725Y6189D01*
X10725Y6188D01*
X10726Y6188D01*
X10726Y6188D01*
X10727Y6188D01*
X10727Y6187D01*
X10727Y6187D01*
X10728Y6187D01*
X10729Y6187D01*
X10729Y6186D01*
X10730Y6186D01*
X10731Y6186D01*
X10730Y6182D01*
X10730D01*
X10729Y6182D01*
X10729Y6182D01*
X10729Y6182D01*
X10728Y6182D01*
X10728Y6182D01*
X10727Y6182D01*
X10727Y6183D01*
X10725Y6183D01*
X10724Y6184D01*
X10723Y6185D01*
X10723Y6185D01*
X10722Y6186D01*
X10722Y6186D01*
X10722Y6186D01*
X10721Y6187D01*
X10721Y6187D01*
X10721Y6187D01*
X10721Y6187D01*
X10721Y6188D01*
X10720Y6188D01*
X10720Y6189D01*
X10720Y6189D01*
X10720Y6190D01*
X10719Y6191D01*
X10719Y6192D01*
X10719Y6192D01*
X10719Y6193D01*
X10719Y6194D01*
X10719Y6195D01*
Y6196D01*
X10719Y6196D01*
Y6196D01*
X10719Y6197D01*
X10719Y6197D01*
X10719Y6198D01*
X10719Y6199D01*
X10720Y6201D01*
X10720Y6202D01*
X10721Y6203D01*
X10721Y6204D01*
X10721Y6204D01*
X10721Y6204D01*
X10721Y6204D01*
X10721Y6204D01*
X10722Y6204D01*
X10722Y6205D01*
X10722Y6205D01*
X10723Y6205D01*
X10723Y6206D01*
X10723Y6206D01*
X10724Y6207D01*
X10726Y6208D01*
X10727Y6209D01*
X10727D01*
X10727Y6209D01*
X10728Y6209D01*
X10728Y6209D01*
X10728Y6209D01*
X10729Y6209D01*
X10729Y6209D01*
X10730Y6209D01*
X10730Y6210D01*
X10731Y6210D01*
X10733Y6210D01*
X10734Y6210D01*
X10736Y6210D01*
X10736D01*
X10736D01*
X10736D01*
X10737Y6210D01*
D02*
G37*
G36*
X10744Y6175D02*
X10744Y6175D01*
X10744Y6174D01*
X10744Y6174D01*
X10744Y6174D01*
X10744Y6174D01*
X10745Y6173D01*
X10745Y6172D01*
X10746Y6171D01*
X10747Y6170D01*
X10748Y6169D01*
X10748Y6169D01*
X10748Y6169D01*
X10748Y6169D01*
X10748Y6169D01*
X10748Y6168D01*
X10749Y6168D01*
X10750Y6167D01*
X10750Y6166D01*
X10751Y6166D01*
X10752Y6165D01*
Y6163D01*
X10719D01*
Y6167D01*
X10745D01*
X10745Y6167D01*
X10745Y6167D01*
X10744Y6167D01*
X10744Y6168D01*
X10744Y6168D01*
X10743Y6169D01*
X10743Y6170D01*
X10742Y6171D01*
Y6171D01*
X10742Y6171D01*
X10742Y6171D01*
X10742Y6171D01*
X10741Y6172D01*
X10741Y6173D01*
X10741Y6173D01*
X10740Y6174D01*
X10740Y6175D01*
X10744D01*
Y6175D01*
D02*
G37*
G36*
X10728Y6149D02*
X10728D01*
X10728Y6149D01*
X10728Y6148D01*
X10728Y6148D01*
X10728Y6148D01*
X10727Y6148D01*
X10727Y6148D01*
X10726Y6148D01*
X10725Y6147D01*
X10724Y6147D01*
X10724Y6146D01*
X10723Y6146D01*
X10723Y6146D01*
X10723Y6146D01*
X10723Y6145D01*
X10723Y6145D01*
X10722Y6144D01*
X10722Y6143D01*
X10722Y6142D01*
Y6142D01*
X10722Y6142D01*
X10722Y6141D01*
X10722Y6141D01*
X10723Y6140D01*
X10723Y6139D01*
X10723Y6138D01*
X10724Y6137D01*
X10724Y6137D01*
X10724Y6137D01*
X10725Y6137D01*
X10725Y6136D01*
X10726Y6136D01*
X10727Y6136D01*
X10728Y6136D01*
X10729Y6135D01*
X10729D01*
X10729D01*
X10729D01*
X10729Y6136D01*
X10730Y6136D01*
X10730Y6136D01*
X10731Y6136D01*
X10732Y6136D01*
X10733Y6137D01*
X10733Y6137D01*
X10734Y6137D01*
X10734Y6138D01*
X10734Y6138D01*
X10734Y6139D01*
X10735Y6139D01*
X10735Y6140D01*
X10735Y6141D01*
X10735Y6142D01*
Y6142D01*
X10735Y6143D01*
X10735Y6143D01*
X10735Y6144D01*
X10735Y6144D01*
X10735Y6145D01*
X10738Y6144D01*
Y6144D01*
X10738Y6144D01*
Y6143D01*
X10738Y6143D01*
X10738Y6142D01*
X10739Y6141D01*
X10739Y6141D01*
X10739Y6140D01*
X10740Y6139D01*
Y6139D01*
X10740Y6139D01*
X10740Y6139D01*
X10740Y6138D01*
X10741Y6138D01*
X10741Y6138D01*
X10742Y6137D01*
X10743Y6137D01*
X10743Y6137D01*
X10744D01*
X10744D01*
X10744D01*
X10744D01*
X10744Y6137D01*
X10745Y6137D01*
X10745Y6137D01*
X10746Y6138D01*
X10747Y6138D01*
X10747Y6138D01*
X10747Y6138D01*
X10748Y6139D01*
X10748Y6139D01*
X10748Y6139D01*
X10748Y6140D01*
X10748Y6141D01*
X10749Y6141D01*
X10749Y6142D01*
Y6143D01*
X10749Y6143D01*
X10749Y6144D01*
X10748Y6144D01*
X10748Y6145D01*
X10748Y6146D01*
X10747Y6146D01*
X10747Y6146D01*
X10747Y6146D01*
X10747Y6147D01*
X10746Y6147D01*
X10746Y6147D01*
X10745Y6148D01*
X10744Y6148D01*
X10743Y6148D01*
X10744Y6152D01*
X10744D01*
X10744Y6152D01*
X10744Y6152D01*
X10744Y6152D01*
X10745Y6152D01*
X10745Y6152D01*
X10746Y6151D01*
X10747Y6151D01*
X10748Y6150D01*
X10749Y6150D01*
X10750Y6149D01*
X10750Y6149D01*
X10750Y6149D01*
X10750Y6149D01*
X10750Y6148D01*
X10750Y6148D01*
X10751Y6148D01*
X10751Y6147D01*
X10751Y6147D01*
X10751Y6146D01*
X10752Y6145D01*
X10752Y6144D01*
X10752Y6143D01*
Y6142D01*
X10752Y6141D01*
X10752Y6141D01*
X10752Y6140D01*
X10752Y6139D01*
X10751Y6138D01*
X10751Y6138D01*
Y6137D01*
X10751Y6137D01*
X10751Y6137D01*
X10750Y6137D01*
X10750Y6136D01*
X10750Y6136D01*
X10749Y6135D01*
X10748Y6135D01*
X10748Y6134D01*
X10748Y6134D01*
X10747Y6134D01*
X10747Y6134D01*
X10746Y6133D01*
X10746Y6133D01*
X10745Y6133D01*
X10744Y6133D01*
X10744Y6133D01*
X10743D01*
X10743D01*
X10743Y6133D01*
X10742Y6133D01*
X10742Y6133D01*
X10741Y6133D01*
X10740Y6134D01*
X10740Y6134D01*
X10740Y6134D01*
X10739Y6134D01*
X10739Y6135D01*
X10739Y6135D01*
X10738Y6135D01*
X10738Y6136D01*
X10737Y6137D01*
X10737Y6137D01*
Y6137D01*
X10737Y6137D01*
X10737Y6137D01*
X10737Y6137D01*
X10737Y6136D01*
X10736Y6136D01*
X10736Y6135D01*
X10736Y6134D01*
X10735Y6134D01*
X10734Y6133D01*
X10734Y6133D01*
X10734Y6133D01*
X10733Y6132D01*
X10733Y6132D01*
X10732Y6132D01*
X10731Y6131D01*
X10730Y6131D01*
X10729Y6131D01*
X10729D01*
X10729D01*
X10729D01*
X10728Y6131D01*
X10728Y6131D01*
X10727Y6131D01*
X10727Y6132D01*
X10726Y6132D01*
X10725Y6132D01*
X10725Y6132D01*
X10724Y6133D01*
X10724Y6133D01*
X10723Y6133D01*
X10722Y6134D01*
X10722Y6134D01*
X10722Y6134D01*
X10722Y6135D01*
X10721Y6135D01*
X10721Y6135D01*
X10721Y6135D01*
X10721Y6136D01*
X10721Y6136D01*
X10720Y6137D01*
X10720Y6137D01*
X10720Y6138D01*
X10720Y6138D01*
X10719Y6139D01*
X10719Y6140D01*
X10719Y6141D01*
X10719Y6141D01*
X10719Y6142D01*
Y6143D01*
X10719Y6143D01*
X10719Y6143D01*
X10719Y6144D01*
X10719Y6144D01*
X10719Y6145D01*
X10719Y6146D01*
X10720Y6147D01*
X10720Y6148D01*
X10720Y6148D01*
X10721Y6149D01*
X10721Y6149D01*
X10721Y6149D01*
X10721Y6149D01*
X10722Y6150D01*
X10722Y6150D01*
X10722Y6150D01*
X10722Y6150D01*
X10723Y6151D01*
X10723Y6151D01*
X10724Y6151D01*
X10724Y6151D01*
X10725Y6152D01*
X10727Y6152D01*
X10727Y6152D01*
X10728Y6153D01*
X10728Y6149D01*
D02*
G37*
G36*
X10521Y6210D02*
X10521D01*
X10522Y6210D01*
X10522Y6210D01*
X10523Y6210D01*
X10524Y6210D01*
X10526Y6210D01*
X10527Y6209D01*
X10529Y6208D01*
X10529Y6208D01*
X10529Y6208D01*
X10529Y6208D01*
X10529Y6208D01*
X10530Y6208D01*
X10530Y6208D01*
X10531Y6207D01*
X10532Y6206D01*
X10533Y6205D01*
X10534Y6204D01*
X10535Y6203D01*
X10535Y6203D01*
X10535Y6203D01*
X10535Y6203D01*
X10535Y6202D01*
X10535Y6202D01*
X10535Y6202D01*
X10535Y6201D01*
X10536Y6201D01*
X10536Y6200D01*
X10536Y6199D01*
X10536Y6198D01*
X10536Y6197D01*
X10537Y6195D01*
Y6195D01*
X10536Y6194D01*
X10536Y6194D01*
X10536Y6193D01*
X10536Y6193D01*
X10536Y6192D01*
X10536Y6191D01*
X10536Y6189D01*
X10535Y6189D01*
X10535Y6188D01*
X10534Y6187D01*
X10534Y6187D01*
X10534Y6187D01*
X10534Y6187D01*
X10534Y6186D01*
X10534Y6186D01*
X10533Y6186D01*
X10533Y6186D01*
X10533Y6185D01*
X10532Y6185D01*
X10532Y6185D01*
X10531Y6184D01*
X10531Y6184D01*
X10530Y6183D01*
X10529Y6183D01*
X10529Y6183D01*
X10528Y6182D01*
X10527Y6182D01*
X10526Y6186D01*
X10526D01*
X10526Y6186D01*
X10526Y6186D01*
X10527Y6187D01*
X10527Y6187D01*
X10527Y6187D01*
X10528Y6187D01*
X10529Y6188D01*
X10530Y6188D01*
X10531Y6189D01*
X10531Y6190D01*
X10531Y6190D01*
X10532Y6190D01*
X10532Y6191D01*
X10532Y6191D01*
X10532Y6192D01*
X10533Y6193D01*
X10533Y6194D01*
X10533Y6195D01*
Y6195D01*
X10533Y6196D01*
Y6196D01*
X10533Y6196D01*
X10533Y6197D01*
X10532Y6198D01*
X10532Y6199D01*
X10532Y6200D01*
X10531Y6201D01*
Y6201D01*
X10531Y6201D01*
X10531Y6202D01*
X10530Y6202D01*
X10530Y6203D01*
X10529Y6203D01*
X10528Y6204D01*
X10527Y6204D01*
X10526Y6205D01*
X10526D01*
X10526Y6205D01*
X10526Y6205D01*
X10526Y6205D01*
X10525Y6205D01*
X10525Y6205D01*
X10524Y6205D01*
X10523Y6206D01*
X10522Y6206D01*
X10521Y6206D01*
X10520Y6206D01*
X10520D01*
X10520D01*
X10520D01*
X10519D01*
X10519Y6206D01*
X10518D01*
X10518Y6206D01*
X10518Y6206D01*
X10516Y6206D01*
X10515Y6205D01*
X10514Y6205D01*
X10513Y6205D01*
X10513D01*
X10513Y6205D01*
X10512Y6205D01*
X10512Y6204D01*
X10512Y6204D01*
X10511Y6204D01*
X10510Y6203D01*
X10509Y6203D01*
X10509Y6202D01*
X10508Y6201D01*
Y6201D01*
X10508Y6201D01*
X10508Y6201D01*
X10508Y6200D01*
X10508Y6200D01*
X10508Y6200D01*
X10507Y6199D01*
X10507Y6198D01*
X10507Y6198D01*
X10507Y6196D01*
X10507Y6195D01*
Y6195D01*
X10507Y6195D01*
Y6194D01*
X10507Y6194D01*
X10507Y6193D01*
X10507Y6192D01*
X10507Y6191D01*
X10508Y6190D01*
X10508Y6190D01*
X10509Y6189D01*
X10509Y6189D01*
X10509Y6189D01*
X10509Y6189D01*
X10509Y6189D01*
X10509Y6189D01*
X10510Y6188D01*
X10510Y6188D01*
X10510Y6188D01*
X10511Y6188D01*
X10511Y6187D01*
X10512Y6187D01*
X10512Y6187D01*
X10513Y6187D01*
X10513Y6186D01*
X10514Y6186D01*
X10515Y6186D01*
X10514Y6182D01*
X10514D01*
X10514Y6182D01*
X10513Y6182D01*
X10513Y6182D01*
X10512Y6182D01*
X10512Y6182D01*
X10511Y6182D01*
X10511Y6183D01*
X10509Y6183D01*
X10508Y6184D01*
X10507Y6185D01*
X10507Y6185D01*
X10506Y6186D01*
X10506Y6186D01*
X10506Y6186D01*
X10506Y6187D01*
X10505Y6187D01*
X10505Y6187D01*
X10505Y6187D01*
X10505Y6188D01*
X10505Y6188D01*
X10504Y6189D01*
X10504Y6189D01*
X10504Y6190D01*
X10504Y6191D01*
X10503Y6192D01*
X10503Y6192D01*
X10503Y6193D01*
X10503Y6194D01*
X10503Y6195D01*
Y6196D01*
X10503Y6196D01*
Y6196D01*
X10503Y6197D01*
X10503Y6197D01*
X10503Y6198D01*
X10503Y6199D01*
X10504Y6201D01*
X10504Y6202D01*
X10505Y6203D01*
X10505Y6204D01*
X10505Y6204D01*
X10505Y6204D01*
X10505Y6204D01*
X10505Y6204D01*
X10506Y6204D01*
X10506Y6205D01*
X10506Y6205D01*
X10507Y6205D01*
X10507Y6206D01*
X10507Y6206D01*
X10509Y6207D01*
X10510Y6208D01*
X10511Y6209D01*
X10511D01*
X10511Y6209D01*
X10512Y6209D01*
X10512Y6209D01*
X10512Y6209D01*
X10513Y6209D01*
X10513Y6209D01*
X10514Y6209D01*
X10514Y6210D01*
X10515Y6210D01*
X10517Y6210D01*
X10518Y6210D01*
X10520Y6210D01*
X10520D01*
X10520D01*
X10520D01*
X10521Y6210D01*
D02*
G37*
G36*
X10528Y6175D02*
X10528Y6175D01*
X10528Y6174D01*
X10528Y6174D01*
X10528Y6174D01*
X10529Y6174D01*
X10529Y6173D01*
X10530Y6172D01*
X10530Y6171D01*
X10531Y6170D01*
X10532Y6169D01*
X10532Y6169D01*
X10532Y6169D01*
X10532Y6169D01*
X10532Y6169D01*
X10533Y6168D01*
X10533Y6168D01*
X10534Y6167D01*
X10535Y6166D01*
X10535Y6166D01*
X10536Y6165D01*
Y6163D01*
X10503D01*
Y6167D01*
X10529D01*
X10529Y6167D01*
X10529Y6167D01*
X10528Y6167D01*
X10528Y6168D01*
X10528Y6168D01*
X10527Y6169D01*
X10527Y6170D01*
X10526Y6171D01*
Y6171D01*
X10526Y6171D01*
X10526Y6171D01*
X10526Y6171D01*
X10525Y6172D01*
X10525Y6173D01*
X10525Y6173D01*
X10524Y6174D01*
X10524Y6175D01*
X10528D01*
Y6175D01*
D02*
G37*
G36*
X10536Y6139D02*
Y6136D01*
X10515D01*
Y6131D01*
X10511D01*
Y6136D01*
X10503D01*
Y6140D01*
X10511D01*
Y6154D01*
X10515D01*
X10536Y6139D01*
D02*
G37*
G36*
X9996Y6453D02*
X9996D01*
X9996Y6453D01*
X9997Y6453D01*
X9997Y6453D01*
X9999Y6452D01*
X10000Y6452D01*
X10001Y6452D01*
X10002Y6451D01*
X10002D01*
X10002Y6451D01*
X10003Y6451D01*
X10003Y6451D01*
X10003Y6451D01*
X10004Y6450D01*
X10005Y6449D01*
X10005Y6449D01*
X10006Y6448D01*
X10006Y6447D01*
Y6447D01*
X10006Y6447D01*
X10006Y6446D01*
X10007Y6446D01*
X10007Y6446D01*
X10007Y6445D01*
X10007Y6445D01*
X10007Y6445D01*
X10007Y6444D01*
X10007Y6443D01*
X10007Y6443D01*
X10007Y6442D01*
X10008Y6441D01*
X10008Y6440D01*
X10008Y6439D01*
Y6439D01*
Y6420D01*
X10003D01*
Y6439D01*
Y6439D01*
Y6439D01*
Y6439D01*
Y6439D01*
X10003Y6440D01*
Y6440D01*
X10003Y6441D01*
X10003Y6442D01*
X10003Y6443D01*
X10003Y6444D01*
X10003Y6444D01*
X10003Y6445D01*
X10002Y6445D01*
X10002Y6445D01*
X10002Y6445D01*
X10002Y6446D01*
X10002Y6446D01*
X10001Y6447D01*
X10001Y6447D01*
X10000Y6448D01*
X10000Y6448D01*
X10000Y6448D01*
X9999Y6448D01*
X9999Y6448D01*
X9998Y6449D01*
X9997Y6449D01*
X9996Y6449D01*
X9995Y6449D01*
X9995D01*
X9994Y6449D01*
X9994D01*
X9994Y6449D01*
X9993Y6449D01*
X9991Y6448D01*
X9990Y6448D01*
X9989Y6448D01*
X9989Y6447D01*
X9988Y6447D01*
X9988Y6447D01*
X9988Y6447D01*
X9988Y6447D01*
X9988Y6446D01*
X9988Y6446D01*
X9988Y6446D01*
X9988Y6445D01*
X9987Y6445D01*
X9987Y6444D01*
X9987Y6444D01*
X9987Y6443D01*
X9987Y6442D01*
X9987Y6442D01*
X9986Y6441D01*
X9986Y6440D01*
Y6439D01*
Y6420D01*
X9982D01*
Y6439D01*
Y6439D01*
Y6439D01*
Y6439D01*
Y6439D01*
X9982Y6440D01*
Y6440D01*
X9982Y6441D01*
X9982Y6441D01*
X9982Y6443D01*
X9983Y6444D01*
X9983Y6445D01*
X9983Y6446D01*
X9983Y6446D01*
Y6446D01*
X9983Y6447D01*
X9983Y6447D01*
X9983Y6447D01*
X9984Y6447D01*
X9984Y6448D01*
X9985Y6449D01*
X9985Y6450D01*
X9986Y6450D01*
X9987Y6451D01*
X9987D01*
X9987Y6451D01*
X9987Y6451D01*
X9988Y6451D01*
X9988Y6451D01*
X9988Y6452D01*
X9989Y6452D01*
X9989Y6452D01*
X9990Y6452D01*
X9990Y6452D01*
X9991Y6452D01*
X9992Y6453D01*
X9992Y6453D01*
X9993Y6453D01*
X9995Y6453D01*
X9995D01*
X9996Y6453D01*
D02*
G37*
G36*
X9965Y6427D02*
X9965Y6427D01*
X9966Y6427D01*
X9966Y6427D01*
X9966Y6428D01*
X9967Y6428D01*
X9968Y6429D01*
X9968Y6429D01*
X9969Y6430D01*
X9969D01*
X9969Y6430D01*
X9970Y6430D01*
X9970Y6430D01*
X9971Y6430D01*
X9971Y6431D01*
X9972Y6431D01*
X9973Y6431D01*
X9973Y6432D01*
Y6428D01*
X9973D01*
X9973Y6428D01*
X9973Y6428D01*
X9973Y6427D01*
X9973Y6427D01*
X9972Y6427D01*
X9971Y6427D01*
X9971Y6426D01*
X9970Y6426D01*
X9969Y6425D01*
X9968Y6424D01*
X9968Y6424D01*
X9968Y6424D01*
X9967Y6424D01*
X9967Y6424D01*
X9967Y6423D01*
X9966Y6423D01*
X9966Y6422D01*
X9965Y6421D01*
X9965Y6420D01*
X9964Y6420D01*
X9961D01*
Y6452D01*
X9965D01*
Y6427D01*
D02*
G37*
G36*
X10957Y7353D02*
X10957D01*
X10957Y7353D01*
X10958Y7353D01*
X10959Y7353D01*
X10960Y7352D01*
X10961Y7352D01*
X10962Y7352D01*
X10962Y7351D01*
X10962Y7351D01*
X10963Y7351D01*
X10963Y7351D01*
X10963Y7351D01*
X10963Y7351D01*
X10963Y7350D01*
X10964Y7350D01*
X10964Y7349D01*
X10965Y7348D01*
X10965Y7347D01*
X10965Y7345D01*
X10961Y7345D01*
Y7345D01*
X10961Y7345D01*
Y7345D01*
X10961Y7345D01*
X10961Y7346D01*
X10961Y7346D01*
X10961Y7347D01*
X10960Y7348D01*
X10960Y7348D01*
X10960Y7349D01*
X10960Y7349D01*
X10959Y7349D01*
X10959Y7349D01*
X10959Y7349D01*
X10958Y7350D01*
X10958Y7350D01*
X10957Y7350D01*
X10956Y7350D01*
X10956D01*
X10955Y7350D01*
X10955Y7350D01*
X10954Y7350D01*
X10954Y7350D01*
X10953Y7349D01*
X10953Y7349D01*
X10953Y7349D01*
X10953Y7349D01*
X10952Y7349D01*
X10952Y7349D01*
X10952Y7348D01*
X10951Y7348D01*
X10951Y7347D01*
X10951Y7347D01*
X10951Y7347D01*
X10950Y7347D01*
X10950Y7346D01*
X10950Y7346D01*
X10950Y7345D01*
X10950Y7345D01*
X10949Y7344D01*
X10949Y7343D01*
Y7343D01*
X10949Y7343D01*
Y7343D01*
X10949Y7343D01*
X10949Y7342D01*
X10949Y7342D01*
X10949Y7341D01*
X10949Y7340D01*
X10949Y7339D01*
X10949Y7338D01*
Y7338D01*
Y7338D01*
Y7338D01*
Y7337D01*
X10949Y7338D01*
X10949Y7338D01*
X10949Y7338D01*
X10949Y7339D01*
X10950Y7339D01*
X10950Y7340D01*
X10951Y7340D01*
X10952Y7341D01*
X10952Y7341D01*
X10952Y7341D01*
X10953Y7341D01*
X10953Y7341D01*
X10954Y7341D01*
X10955Y7342D01*
X10955Y7342D01*
X10956Y7342D01*
X10957D01*
X10957Y7342D01*
X10957Y7342D01*
X10958Y7342D01*
X10958Y7341D01*
X10959Y7341D01*
X10960Y7341D01*
X10960Y7341D01*
X10961Y7340D01*
X10961Y7340D01*
X10962Y7340D01*
X10963Y7339D01*
X10963Y7339D01*
X10963Y7339D01*
X10963Y7339D01*
X10963Y7338D01*
X10964Y7338D01*
X10964Y7338D01*
X10964Y7338D01*
X10964Y7337D01*
X10964Y7337D01*
X10965Y7336D01*
X10965Y7336D01*
X10965Y7335D01*
X10965Y7334D01*
X10966Y7334D01*
X10966Y7333D01*
X10966Y7332D01*
X10966Y7331D01*
Y7331D01*
Y7331D01*
Y7331D01*
X10966Y7330D01*
X10966Y7330D01*
X10966Y7329D01*
X10966Y7329D01*
X10966Y7328D01*
X10965Y7327D01*
X10965Y7326D01*
X10965Y7326D01*
X10964Y7325D01*
X10964Y7324D01*
X10964Y7324D01*
X10963Y7323D01*
X10963Y7323D01*
X10963Y7323D01*
X10963Y7323D01*
X10962Y7323D01*
X10962Y7322D01*
X10962Y7322D01*
X10961Y7322D01*
X10961Y7322D01*
X10960Y7321D01*
X10960Y7321D01*
X10959Y7321D01*
X10958Y7320D01*
X10957Y7320D01*
X10957Y7320D01*
X10956Y7320D01*
X10955D01*
X10955Y7320D01*
X10955D01*
X10955Y7320D01*
X10954Y7320D01*
X10953Y7321D01*
X10952Y7321D01*
X10951Y7321D01*
X10950Y7322D01*
X10950D01*
X10950Y7322D01*
X10950Y7322D01*
X10949Y7322D01*
X10949Y7323D01*
X10948Y7323D01*
X10948Y7324D01*
X10947Y7325D01*
X10946Y7326D01*
X10946Y7327D01*
Y7327D01*
X10946Y7327D01*
X10946Y7327D01*
X10946Y7327D01*
X10946Y7328D01*
X10945Y7328D01*
X10945Y7328D01*
X10945Y7329D01*
X10945Y7330D01*
X10945Y7330D01*
X10945Y7331D01*
X10945Y7332D01*
X10945Y7333D01*
X10945Y7334D01*
X10945Y7335D01*
Y7336D01*
Y7336D01*
Y7336D01*
Y7336D01*
Y7337D01*
X10945Y7337D01*
Y7338D01*
X10945Y7339D01*
X10945Y7339D01*
X10945Y7341D01*
X10945Y7343D01*
X10945Y7344D01*
X10946Y7345D01*
X10946Y7346D01*
Y7346D01*
X10946Y7346D01*
X10946Y7346D01*
X10946Y7346D01*
X10946Y7347D01*
X10946Y7347D01*
X10947Y7348D01*
X10947Y7349D01*
X10948Y7350D01*
X10949Y7351D01*
X10950Y7351D01*
X10950D01*
X10950Y7351D01*
X10950Y7352D01*
X10950Y7352D01*
X10951Y7352D01*
X10951Y7352D01*
X10951Y7352D01*
X10952Y7352D01*
X10953Y7353D01*
X10954Y7353D01*
X10955Y7353D01*
X10956Y7353D01*
X10957D01*
X10957Y7353D01*
D02*
G37*
G36*
X11009D02*
X11010D01*
X11010Y7353D01*
X11011Y7353D01*
X11011Y7353D01*
X11013Y7353D01*
X11014Y7352D01*
X11016Y7352D01*
X11016Y7352D01*
X11017Y7351D01*
X11017Y7351D01*
X11017Y7351D01*
X11017Y7351D01*
X11017Y7351D01*
X11018Y7351D01*
X11018Y7350D01*
X11018Y7350D01*
X11019Y7350D01*
X11019Y7349D01*
X11020Y7349D01*
X11020Y7348D01*
X11021Y7346D01*
X11022Y7345D01*
Y7345D01*
X11022Y7345D01*
X11022Y7345D01*
X11022Y7344D01*
X11022Y7344D01*
X11022Y7343D01*
X11023Y7343D01*
X11023Y7342D01*
X11023Y7342D01*
X11023Y7341D01*
X11023Y7340D01*
X11024Y7338D01*
X11024Y7336D01*
Y7336D01*
Y7336D01*
Y7336D01*
X11024Y7335D01*
Y7335D01*
X11024Y7334D01*
X11023Y7334D01*
X11023Y7333D01*
X11023Y7332D01*
X11023Y7330D01*
X11022Y7329D01*
X11022Y7327D01*
X11022Y7327D01*
X11022Y7327D01*
X11021Y7327D01*
X11021Y7327D01*
X11021Y7326D01*
X11021Y7326D01*
X11020Y7325D01*
X11019Y7324D01*
X11019Y7323D01*
X11017Y7322D01*
X11016Y7322D01*
X11016Y7322D01*
X11016Y7322D01*
X11016Y7321D01*
X11016Y7321D01*
X11015Y7321D01*
X11015Y7321D01*
X11014Y7321D01*
X11014Y7321D01*
X11013Y7320D01*
X11013Y7320D01*
X11011Y7320D01*
X11010Y7320D01*
X11008Y7320D01*
X11008D01*
X11007Y7320D01*
X11007Y7320D01*
X11007Y7320D01*
X11006Y7320D01*
X11005Y7320D01*
X11004Y7320D01*
X11003Y7321D01*
X11002Y7321D01*
X11001Y7321D01*
X11001Y7322D01*
X11000Y7322D01*
X11000Y7322D01*
X11000Y7322D01*
X11000Y7322D01*
X10999Y7323D01*
X10999Y7323D01*
X10999Y7323D01*
X10999Y7324D01*
X10998Y7324D01*
X10998Y7324D01*
X10997Y7325D01*
X10997Y7326D01*
X10997Y7326D01*
X10996Y7327D01*
X10996Y7328D01*
X10996Y7328D01*
X10995Y7329D01*
X11000Y7330D01*
Y7330D01*
X11000Y7330D01*
X11000Y7330D01*
X11000Y7330D01*
X11000Y7329D01*
X11000Y7329D01*
X11000Y7328D01*
X11001Y7327D01*
X11002Y7326D01*
X11002Y7326D01*
X11003Y7325D01*
X11003Y7325D01*
X11003Y7325D01*
X11004Y7324D01*
X11004Y7324D01*
X11005Y7324D01*
X11006Y7324D01*
X11007Y7323D01*
X11008Y7323D01*
X11009D01*
X11009Y7323D01*
X11009D01*
X11010Y7323D01*
X11011Y7324D01*
X11012Y7324D01*
X11013Y7324D01*
X11014Y7325D01*
X11015Y7325D01*
X11015D01*
X11015Y7325D01*
X11015Y7325D01*
X11016Y7326D01*
X11016Y7326D01*
X11017Y7327D01*
X11017Y7328D01*
X11018Y7329D01*
X11018Y7330D01*
Y7330D01*
X11018Y7330D01*
X11018Y7330D01*
X11018Y7331D01*
X11018Y7331D01*
X11019Y7331D01*
X11019Y7332D01*
X11019Y7333D01*
X11019Y7334D01*
X11019Y7335D01*
X11019Y7336D01*
Y7336D01*
Y7336D01*
Y7337D01*
Y7337D01*
X11019Y7337D01*
Y7338D01*
X11019Y7338D01*
X11019Y7339D01*
X11019Y7340D01*
X11019Y7341D01*
X11018Y7342D01*
X11018Y7343D01*
Y7344D01*
X11018Y7344D01*
X11018Y7344D01*
X11018Y7344D01*
X11017Y7345D01*
X11017Y7345D01*
X11017Y7346D01*
X11016Y7347D01*
X11015Y7347D01*
X11014Y7348D01*
X11014D01*
X11014Y7348D01*
X11014Y7348D01*
X11014Y7348D01*
X11014Y7348D01*
X11013Y7349D01*
X11013Y7349D01*
X11012Y7349D01*
X11011Y7349D01*
X11010Y7350D01*
X11009Y7350D01*
X11008D01*
X11008Y7350D01*
X11008D01*
X11007Y7350D01*
X11007Y7349D01*
X11006Y7349D01*
X11005Y7349D01*
X11004Y7348D01*
X11003Y7348D01*
X11003Y7348D01*
X11003Y7348D01*
X11003Y7347D01*
X11002Y7347D01*
X11002Y7347D01*
X11002Y7347D01*
X11002Y7347D01*
X11001Y7346D01*
X11001Y7346D01*
X11001Y7346D01*
X11001Y7345D01*
X11000Y7345D01*
X11000Y7344D01*
X11000Y7343D01*
X11000Y7343D01*
X10999Y7342D01*
X10999Y7341D01*
X10995Y7342D01*
Y7342D01*
X10995Y7343D01*
X10995Y7343D01*
X10995Y7343D01*
X10995Y7344D01*
X10995Y7344D01*
X10996Y7345D01*
X10996Y7345D01*
X10997Y7347D01*
X10997Y7348D01*
X10998Y7349D01*
X10999Y7349D01*
X10999Y7350D01*
X11000Y7351D01*
X11000Y7351D01*
X11000Y7351D01*
X11000Y7351D01*
X11000Y7351D01*
X11001Y7351D01*
X11001Y7351D01*
X11002Y7352D01*
X11002Y7352D01*
X11003Y7352D01*
X11003Y7352D01*
X11004Y7353D01*
X11005Y7353D01*
X11006Y7353D01*
X11006Y7353D01*
X11007Y7353D01*
X11008Y7353D01*
X11009D01*
X11009Y7353D01*
D02*
G37*
G36*
X10980Y7327D02*
X10980Y7327D01*
X10980Y7328D01*
X10981Y7328D01*
X10981Y7328D01*
X10982Y7329D01*
X10982Y7329D01*
X10983Y7330D01*
X10984Y7330D01*
X10984D01*
X10984Y7330D01*
X10984Y7330D01*
X10985Y7331D01*
X10985Y7331D01*
X10986Y7331D01*
X10987Y7331D01*
X10987Y7332D01*
X10988Y7332D01*
Y7328D01*
X10988D01*
X10988Y7328D01*
X10988Y7328D01*
X10988Y7328D01*
X10987Y7328D01*
X10987Y7328D01*
X10986Y7327D01*
X10985Y7327D01*
X10984Y7326D01*
X10983Y7325D01*
X10982Y7324D01*
X10982Y7324D01*
X10982Y7324D01*
X10982Y7324D01*
X10982Y7324D01*
X10981Y7324D01*
X10981Y7323D01*
X10980Y7322D01*
X10980Y7322D01*
X10979Y7321D01*
X10979Y7320D01*
X10976D01*
Y7353D01*
X10980D01*
Y7327D01*
D02*
G37*
G36*
X9955Y8153D02*
X9956D01*
X9956Y8153D01*
X9957Y8153D01*
X9957Y8153D01*
X9959Y8153D01*
X9960Y8153D01*
X9961Y8152D01*
X9962Y8152D01*
X9963Y8151D01*
X9963Y8151D01*
X9963Y8151D01*
X9963Y8151D01*
X9963Y8151D01*
X9964Y8151D01*
X9964Y8150D01*
X9964Y8150D01*
X9965Y8150D01*
X9965Y8149D01*
X9965Y8149D01*
X9966Y8148D01*
X9967Y8146D01*
X9968Y8145D01*
Y8145D01*
X9968Y8145D01*
X9968Y8145D01*
X9968Y8144D01*
X9968Y8144D01*
X9968Y8144D01*
X9969Y8143D01*
X9969Y8142D01*
X9969Y8142D01*
X9969Y8141D01*
X9969Y8140D01*
X9969Y8138D01*
X9970Y8136D01*
Y8136D01*
Y8136D01*
Y8136D01*
X9969Y8135D01*
Y8135D01*
X9969Y8135D01*
X9969Y8134D01*
X9969Y8133D01*
X9969Y8132D01*
X9969Y8130D01*
X9968Y8129D01*
X9968Y8128D01*
X9968Y8127D01*
X9967Y8127D01*
X9967Y8127D01*
X9967Y8127D01*
X9967Y8127D01*
X9967Y8126D01*
X9966Y8125D01*
X9965Y8124D01*
X9964Y8123D01*
X9963Y8123D01*
X9962Y8122D01*
X9962Y8122D01*
X9962Y8122D01*
X9962Y8122D01*
X9961Y8121D01*
X9961Y8121D01*
X9961Y8121D01*
X9960Y8121D01*
X9960Y8121D01*
X9959Y8121D01*
X9959Y8120D01*
X9957Y8120D01*
X9956Y8120D01*
X9954Y8120D01*
X9954D01*
X9953Y8120D01*
X9953Y8120D01*
X9952Y8120D01*
X9952Y8120D01*
X9951Y8120D01*
X9950Y8120D01*
X9949Y8121D01*
X9948Y8121D01*
X9947Y8121D01*
X9947Y8122D01*
X9946Y8122D01*
X9946Y8122D01*
X9946Y8122D01*
X9946Y8122D01*
X9945Y8123D01*
X9945Y8123D01*
X9945Y8123D01*
X9945Y8124D01*
X9944Y8124D01*
X9944Y8125D01*
X9943Y8125D01*
X9943Y8126D01*
X9943Y8126D01*
X9942Y8127D01*
X9942Y8128D01*
X9942Y8128D01*
X9941Y8129D01*
X9946Y8130D01*
Y8130D01*
X9946Y8130D01*
X9946Y8130D01*
X9946Y8130D01*
X9946Y8129D01*
X9946Y8129D01*
X9946Y8128D01*
X9947Y8127D01*
X9947Y8127D01*
X9948Y8126D01*
X9949Y8125D01*
X9949Y8125D01*
X9949Y8125D01*
X9950Y8125D01*
X9950Y8124D01*
X9951Y8124D01*
X9952Y8124D01*
X9953Y8123D01*
X9954Y8123D01*
X9955D01*
X9955Y8123D01*
X9955D01*
X9956Y8124D01*
X9956Y8124D01*
X9957Y8124D01*
X9959Y8124D01*
X9960Y8125D01*
X9961Y8125D01*
X9961D01*
X9961Y8125D01*
X9961Y8126D01*
X9961Y8126D01*
X9962Y8127D01*
X9963Y8127D01*
X9963Y8128D01*
X9964Y8129D01*
X9964Y8130D01*
Y8130D01*
X9964Y8130D01*
X9964Y8130D01*
X9964Y8131D01*
X9964Y8131D01*
X9964Y8131D01*
X9965Y8132D01*
X9965Y8133D01*
X9965Y8134D01*
X9965Y8135D01*
X9965Y8136D01*
Y8136D01*
Y8137D01*
Y8137D01*
Y8137D01*
X9965Y8137D01*
Y8138D01*
X9965Y8138D01*
X9965Y8139D01*
X9965Y8140D01*
X9965Y8141D01*
X9964Y8142D01*
X9964Y8144D01*
Y8144D01*
X9964Y8144D01*
X9964Y8144D01*
X9964Y8144D01*
X9963Y8145D01*
X9963Y8145D01*
X9962Y8146D01*
X9962Y8147D01*
X9961Y8148D01*
X9960Y8148D01*
X9960D01*
X9960Y8148D01*
X9960Y8148D01*
X9960Y8148D01*
X9959Y8149D01*
X9959Y8149D01*
X9959Y8149D01*
X9958Y8149D01*
X9957Y8150D01*
X9956Y8150D01*
X9955Y8150D01*
X9954D01*
X9954Y8150D01*
X9954D01*
X9953Y8150D01*
X9952Y8149D01*
X9952Y8149D01*
X9951Y8149D01*
X9949Y8148D01*
X9949Y8148D01*
X9948Y8148D01*
X9948Y8148D01*
X9948Y8148D01*
X9948Y8147D01*
X9948Y8147D01*
X9948Y8147D01*
X9948Y8147D01*
X9947Y8146D01*
X9947Y8146D01*
X9947Y8146D01*
X9947Y8145D01*
X9946Y8145D01*
X9946Y8144D01*
X9946Y8144D01*
X9945Y8143D01*
X9945Y8142D01*
X9945Y8141D01*
X9941Y8143D01*
Y8143D01*
X9941Y8143D01*
X9941Y8143D01*
X9941Y8143D01*
X9941Y8144D01*
X9941Y8144D01*
X9942Y8145D01*
X9942Y8146D01*
X9943Y8147D01*
X9943Y8148D01*
X9944Y8149D01*
X9944Y8150D01*
X9945Y8150D01*
X9946Y8151D01*
X9946Y8151D01*
X9946Y8151D01*
X9946Y8151D01*
X9946Y8151D01*
X9947Y8151D01*
X9947Y8152D01*
X9948Y8152D01*
X9948Y8152D01*
X9949Y8152D01*
X9949Y8153D01*
X9950Y8153D01*
X9951Y8153D01*
X9952Y8153D01*
X9952Y8153D01*
X9953Y8153D01*
X9954Y8153D01*
X9955D01*
X9955Y8153D01*
D02*
G37*
G36*
X9926Y8127D02*
X9926Y8127D01*
X9926Y8128D01*
X9927Y8128D01*
X9927Y8128D01*
X9928Y8129D01*
X9928Y8129D01*
X9929Y8130D01*
X9930Y8130D01*
X9930D01*
X9930Y8130D01*
X9930Y8130D01*
X9931Y8131D01*
X9931Y8131D01*
X9932Y8131D01*
X9933Y8132D01*
X9933Y8132D01*
X9934Y8132D01*
Y8128D01*
X9934D01*
X9934Y8128D01*
X9934Y8128D01*
X9933Y8128D01*
X9933Y8128D01*
X9933Y8128D01*
X9932Y8127D01*
X9931Y8127D01*
X9930Y8126D01*
X9929Y8125D01*
X9928Y8125D01*
X9928Y8125D01*
X9928Y8124D01*
X9928Y8124D01*
X9928Y8124D01*
X9927Y8124D01*
X9927Y8123D01*
X9926Y8122D01*
X9926Y8122D01*
X9925Y8121D01*
X9925Y8120D01*
X9922D01*
Y8153D01*
X9926D01*
Y8127D01*
D02*
G37*
G36*
X9902Y8153D02*
X9902Y8153D01*
X9903Y8153D01*
X9903Y8153D01*
X9904Y8153D01*
X9905Y8153D01*
X9906Y8152D01*
X9906Y8152D01*
X9907Y8152D01*
X9908Y8152D01*
X9908Y8151D01*
X9909Y8151D01*
X9909Y8151D01*
X9909Y8150D01*
X9909Y8150D01*
X9909Y8150D01*
X9910Y8150D01*
X9910Y8149D01*
X9910Y8149D01*
X9910Y8149D01*
X9911Y8148D01*
X9911Y8148D01*
X9911Y8146D01*
X9912Y8146D01*
X9912Y8145D01*
X9912Y8144D01*
X9912Y8143D01*
Y8143D01*
Y8143D01*
Y8143D01*
X9912Y8143D01*
Y8143D01*
X9912Y8142D01*
X9912Y8142D01*
X9911Y8141D01*
X9911Y8140D01*
X9911Y8139D01*
X9910Y8138D01*
Y8138D01*
X9910Y8138D01*
X9910Y8138D01*
X9910Y8137D01*
X9909Y8137D01*
X9908Y8137D01*
X9908Y8136D01*
X9907Y8136D01*
X9906Y8135D01*
X9906D01*
X9906Y8135D01*
X9906Y8135D01*
X9906Y8135D01*
X9906Y8135D01*
X9907Y8135D01*
X9908Y8134D01*
X9908Y8134D01*
X9909Y8133D01*
X9909Y8133D01*
X9909Y8133D01*
X9910Y8132D01*
X9910Y8132D01*
X9910Y8132D01*
X9910Y8131D01*
X9910Y8130D01*
X9910Y8129D01*
X9911Y8129D01*
Y8129D01*
Y8128D01*
Y8128D01*
X9910Y8128D01*
X9910Y8128D01*
X9910Y8127D01*
X9910Y8127D01*
X9910Y8126D01*
X9909Y8125D01*
X9909Y8124D01*
X9909Y8124D01*
X9908Y8123D01*
X9908Y8123D01*
X9908Y8123D01*
X9908Y8123D01*
X9908Y8122D01*
X9908Y8122D01*
X9907Y8122D01*
X9907Y8122D01*
X9907Y8122D01*
X9906Y8121D01*
X9906Y8121D01*
X9905Y8121D01*
X9905Y8121D01*
X9904Y8121D01*
X9903Y8120D01*
X9902Y8120D01*
X9901Y8120D01*
X9901D01*
X9901Y8120D01*
X9900Y8120D01*
X9900Y8120D01*
X9899Y8120D01*
X9899Y8121D01*
X9898Y8121D01*
X9897Y8121D01*
X9896Y8121D01*
X9895Y8122D01*
X9895Y8122D01*
X9894Y8123D01*
X9894Y8123D01*
X9894Y8123D01*
X9894Y8123D01*
X9894Y8123D01*
X9894Y8123D01*
X9894Y8124D01*
X9893Y8124D01*
X9893Y8125D01*
X9892Y8126D01*
X9892Y8127D01*
X9892Y8128D01*
X9892Y8129D01*
Y8129D01*
Y8129D01*
Y8129D01*
X9892Y8130D01*
X9892Y8130D01*
X9892Y8131D01*
X9892Y8131D01*
X9893Y8132D01*
X9893Y8133D01*
X9893Y8133D01*
X9893Y8133D01*
X9893Y8133D01*
X9894Y8134D01*
X9894Y8134D01*
X9895Y8134D01*
X9896Y8135D01*
X9897Y8135D01*
X9896D01*
X9896Y8135D01*
X9896Y8135D01*
X9896Y8135D01*
X9895Y8136D01*
X9895Y8136D01*
X9894Y8136D01*
X9893Y8137D01*
X9893Y8138D01*
X9892Y8138D01*
Y8138D01*
X9892Y8139D01*
X9892Y8139D01*
X9891Y8139D01*
X9891Y8140D01*
X9891Y8141D01*
X9891Y8142D01*
X9890Y8142D01*
X9890Y8144D01*
Y8144D01*
Y8144D01*
Y8144D01*
X9890Y8144D01*
X9891Y8145D01*
X9891Y8145D01*
X9891Y8146D01*
X9891Y8146D01*
X9891Y8147D01*
X9891Y8148D01*
X9892Y8148D01*
X9892Y8149D01*
X9892Y8149D01*
X9893Y8150D01*
X9893Y8151D01*
X9893Y8151D01*
X9894Y8151D01*
X9894Y8151D01*
X9894Y8151D01*
X9894Y8151D01*
X9895Y8151D01*
X9895Y8152D01*
X9895Y8152D01*
X9896Y8152D01*
X9897Y8153D01*
X9897Y8153D01*
X9898Y8153D01*
X9899Y8153D01*
X9899Y8153D01*
X9900Y8153D01*
X9901Y8153D01*
X9902D01*
X9902Y8153D01*
D02*
G37*
G36*
X9930Y7963D02*
X9931Y7963D01*
X9931Y7963D01*
X9932Y7963D01*
X9932Y7963D01*
X9933Y7962D01*
X9935Y7962D01*
X9935Y7962D01*
X9936Y7961D01*
X9936Y7961D01*
X9937Y7960D01*
X9937Y7960D01*
X9937Y7960D01*
X9937Y7960D01*
X9937Y7960D01*
X9938Y7960D01*
X9938Y7959D01*
X9938Y7959D01*
X9938Y7959D01*
X9939Y7958D01*
X9939Y7958D01*
X9939Y7957D01*
X9940Y7955D01*
X9940Y7955D01*
X9940Y7954D01*
X9936Y7954D01*
Y7954D01*
Y7954D01*
X9936Y7954D01*
X9936Y7954D01*
X9936Y7955D01*
X9935Y7955D01*
X9935Y7956D01*
X9935Y7957D01*
X9934Y7957D01*
X9934Y7958D01*
X9934Y7958D01*
X9933Y7958D01*
X9933Y7959D01*
X9933Y7959D01*
X9932Y7959D01*
X9931Y7959D01*
X9930Y7960D01*
X9930Y7960D01*
X9929D01*
X9929Y7960D01*
X9929Y7960D01*
X9928Y7959D01*
X9927Y7959D01*
X9926Y7959D01*
X9925Y7958D01*
X9925Y7958D01*
X9925Y7957D01*
X9925Y7957D01*
X9925Y7957D01*
X9925Y7957D01*
X9924Y7957D01*
X9924Y7957D01*
X9924Y7956D01*
X9923Y7955D01*
X9923Y7954D01*
X9923Y7953D01*
X9923Y7952D01*
Y7952D01*
Y7952D01*
Y7952D01*
Y7951D01*
X9923Y7951D01*
Y7951D01*
X9923Y7950D01*
X9923Y7950D01*
X9923Y7949D01*
X9923Y7948D01*
X9924Y7947D01*
X9925Y7946D01*
Y7946D01*
X9925Y7946D01*
X9925Y7946D01*
X9925Y7946D01*
X9926Y7945D01*
X9927Y7945D01*
X9928Y7945D01*
X9929Y7944D01*
X9929Y7944D01*
X9930D01*
X9930Y7944D01*
X9931Y7944D01*
X9931Y7945D01*
X9932Y7945D01*
X9933Y7945D01*
X9933Y7945D01*
X9933Y7945D01*
X9933Y7945D01*
X9934Y7946D01*
X9934Y7946D01*
X9934Y7946D01*
X9935Y7947D01*
X9935Y7947D01*
X9936Y7947D01*
X9939Y7947D01*
X9936Y7930D01*
X9920D01*
Y7934D01*
X9933D01*
X9935Y7943D01*
X9935Y7943D01*
X9935Y7943D01*
X9934Y7943D01*
X9934Y7943D01*
X9934Y7942D01*
X9934Y7942D01*
X9933Y7942D01*
X9932Y7941D01*
X9931Y7941D01*
X9930Y7941D01*
X9929Y7941D01*
X9928D01*
X9928Y7941D01*
X9928Y7941D01*
X9927Y7941D01*
X9927Y7941D01*
X9926Y7941D01*
X9925Y7941D01*
X9924Y7942D01*
X9924Y7942D01*
X9923Y7942D01*
X9923Y7943D01*
X9922Y7943D01*
X9921Y7944D01*
X9921Y7944D01*
X9921Y7944D01*
X9921Y7944D01*
X9921Y7944D01*
X9921Y7945D01*
X9920Y7945D01*
X9920Y7945D01*
X9920Y7946D01*
X9920Y7946D01*
X9919Y7947D01*
X9919Y7948D01*
X9919Y7948D01*
X9919Y7949D01*
X9919Y7950D01*
X9919Y7950D01*
X9918Y7951D01*
Y7951D01*
Y7952D01*
Y7952D01*
X9919Y7952D01*
X9919Y7952D01*
X9919Y7953D01*
X9919Y7953D01*
X9919Y7954D01*
X9919Y7955D01*
X9920Y7956D01*
X9920Y7957D01*
X9920Y7958D01*
X9921Y7958D01*
X9921Y7959D01*
X9921Y7959D01*
X9921Y7959D01*
X9921Y7959D01*
X9922Y7960D01*
X9922Y7960D01*
X9922Y7960D01*
X9923Y7961D01*
X9923Y7961D01*
X9924Y7961D01*
X9925Y7962D01*
X9925Y7962D01*
X9926Y7962D01*
X9927Y7963D01*
X9928Y7963D01*
X9929Y7963D01*
X9930Y7963D01*
X9930D01*
X9930Y7963D01*
D02*
G37*
G36*
X9958D02*
X9958D01*
X9959Y7963D01*
X9960Y7963D01*
X9960Y7963D01*
X9962Y7962D01*
X9963Y7962D01*
X9964Y7961D01*
X9965Y7961D01*
X9966Y7961D01*
X9966Y7961D01*
X9966Y7961D01*
X9966Y7961D01*
X9966Y7960D01*
X9967Y7960D01*
X9967Y7960D01*
X9967Y7960D01*
X9968Y7959D01*
X9968Y7959D01*
X9968Y7958D01*
X9969Y7957D01*
X9970Y7956D01*
X9971Y7955D01*
Y7955D01*
X9971Y7954D01*
X9971Y7954D01*
X9971Y7954D01*
X9971Y7954D01*
X9971Y7953D01*
X9971Y7953D01*
X9972Y7952D01*
X9972Y7951D01*
X9972Y7951D01*
X9972Y7949D01*
X9972Y7948D01*
X9972Y7946D01*
Y7946D01*
Y7946D01*
Y7945D01*
X9972Y7945D01*
Y7945D01*
X9972Y7944D01*
X9972Y7943D01*
X9972Y7943D01*
X9972Y7941D01*
X9972Y7940D01*
X9971Y7938D01*
X9971Y7937D01*
X9970Y7937D01*
X9970Y7937D01*
X9970Y7937D01*
X9970Y7936D01*
X9970Y7936D01*
X9970Y7936D01*
X9969Y7935D01*
X9968Y7934D01*
X9967Y7933D01*
X9966Y7932D01*
X9965Y7931D01*
X9965Y7931D01*
X9965Y7931D01*
X9965Y7931D01*
X9964Y7931D01*
X9964Y7931D01*
X9964Y7931D01*
X9963Y7930D01*
X9963Y7930D01*
X9962Y7930D01*
X9961Y7930D01*
X9960Y7930D01*
X9959Y7929D01*
X9957Y7929D01*
X9957D01*
X9956Y7929D01*
X9956Y7929D01*
X9955Y7929D01*
X9955Y7929D01*
X9954Y7930D01*
X9953Y7930D01*
X9952Y7930D01*
X9951Y7931D01*
X9950Y7931D01*
X9950Y7931D01*
X9949Y7932D01*
X9949Y7932D01*
X9949Y7932D01*
X9949Y7932D01*
X9948Y7932D01*
X9948Y7932D01*
X9948Y7933D01*
X9947Y7933D01*
X9947Y7934D01*
X9947Y7934D01*
X9946Y7935D01*
X9946Y7935D01*
X9946Y7936D01*
X9945Y7936D01*
X9945Y7937D01*
X9945Y7938D01*
X9944Y7939D01*
X9948Y7940D01*
Y7940D01*
X9949Y7940D01*
X9949Y7939D01*
X9949Y7939D01*
X9949Y7939D01*
X9949Y7939D01*
X9949Y7938D01*
X9950Y7937D01*
X9950Y7936D01*
X9951Y7935D01*
X9952Y7935D01*
X9952Y7934D01*
X9952Y7934D01*
X9953Y7934D01*
X9953Y7934D01*
X9954Y7933D01*
X9955Y7933D01*
X9956Y7933D01*
X9957Y7933D01*
X9958D01*
X9958Y7933D01*
X9958D01*
X9959Y7933D01*
X9959Y7933D01*
X9960Y7933D01*
X9961Y7934D01*
X9963Y7934D01*
X9964Y7935D01*
X9964D01*
X9964Y7935D01*
X9964Y7935D01*
X9964Y7935D01*
X9965Y7936D01*
X9965Y7937D01*
X9966Y7938D01*
X9967Y7939D01*
X9967Y7940D01*
Y7940D01*
X9967Y7940D01*
X9967Y7940D01*
X9967Y7940D01*
X9967Y7940D01*
X9967Y7941D01*
X9968Y7942D01*
X9968Y7942D01*
X9968Y7943D01*
X9968Y7945D01*
X9968Y7946D01*
Y7946D01*
Y7946D01*
Y7946D01*
Y7947D01*
X9968Y7947D01*
Y7947D01*
X9968Y7948D01*
X9968Y7948D01*
X9968Y7949D01*
X9968Y7951D01*
X9967Y7952D01*
X9967Y7953D01*
Y7953D01*
X9967Y7953D01*
X9967Y7953D01*
X9967Y7954D01*
X9966Y7954D01*
X9966Y7955D01*
X9965Y7956D01*
X9965Y7956D01*
X9964Y7957D01*
X9963Y7958D01*
X9963D01*
X9963Y7958D01*
X9963Y7958D01*
X9963Y7958D01*
X9962Y7958D01*
X9962Y7958D01*
X9961Y7958D01*
X9961Y7959D01*
X9960Y7959D01*
X9959Y7959D01*
X9958Y7959D01*
X9957D01*
X9957Y7959D01*
X9957D01*
X9956Y7959D01*
X9955Y7959D01*
X9954Y7959D01*
X9953Y7958D01*
X9952Y7958D01*
X9952Y7958D01*
X9951Y7957D01*
X9951Y7957D01*
X9951Y7957D01*
X9951Y7957D01*
X9951Y7957D01*
X9951Y7957D01*
X9951Y7956D01*
X9950Y7956D01*
X9950Y7956D01*
X9950Y7955D01*
X9949Y7955D01*
X9949Y7954D01*
X9949Y7954D01*
X9949Y7953D01*
X9948Y7952D01*
X9948Y7952D01*
X9948Y7951D01*
X9944Y7952D01*
Y7952D01*
X9944Y7952D01*
X9944Y7953D01*
X9944Y7953D01*
X9944Y7953D01*
X9944Y7954D01*
X9945Y7954D01*
X9945Y7955D01*
X9945Y7956D01*
X9946Y7958D01*
X9947Y7958D01*
X9947Y7959D01*
X9948Y7960D01*
X9949Y7960D01*
X9949Y7960D01*
X9949Y7960D01*
X9949Y7960D01*
X9949Y7961D01*
X9950Y7961D01*
X9950Y7961D01*
X9950Y7961D01*
X9951Y7961D01*
X9952Y7962D01*
X9952Y7962D01*
X9953Y7962D01*
X9954Y7962D01*
X9954Y7963D01*
X9955Y7963D01*
X9956Y7963D01*
X9957Y7963D01*
X9958D01*
X9958Y7963D01*
D02*
G37*
G36*
X10213Y8199D02*
X10213D01*
X10214Y8199D01*
X10215Y8199D01*
X10216Y8199D01*
X10217Y8198D01*
X10218Y8198D01*
X10218D01*
X10218Y8198D01*
X10218Y8198D01*
X10219Y8198D01*
X10219Y8197D01*
X10220Y8197D01*
X10220Y8197D01*
X10221Y8196D01*
X10222Y8195D01*
X10222Y8194D01*
Y8194D01*
X10222Y8194D01*
X10222Y8194D01*
X10222Y8194D01*
X10223Y8193D01*
X10223Y8193D01*
X10223Y8192D01*
X10223Y8191D01*
X10223Y8190D01*
X10224Y8189D01*
Y8189D01*
X10223Y8189D01*
Y8188D01*
X10223Y8188D01*
X10223Y8187D01*
X10223Y8187D01*
X10223Y8186D01*
X10223Y8186D01*
X10223Y8185D01*
X10222Y8184D01*
X10222Y8184D01*
X10222Y8183D01*
X10221Y8182D01*
X10220Y8182D01*
X10220Y8181D01*
X10220Y8181D01*
X10220Y8181D01*
X10219Y8181D01*
X10219Y8181D01*
X10219Y8180D01*
X10218Y8180D01*
X10218Y8180D01*
X10217Y8179D01*
X10216Y8179D01*
X10215Y8179D01*
X10214Y8179D01*
X10213Y8178D01*
X10212Y8178D01*
X10211Y8178D01*
X10209Y8178D01*
X10208Y8178D01*
X10208D01*
X10208D01*
X10208D01*
X10207D01*
X10207Y8178D01*
X10206D01*
X10205Y8178D01*
X10205Y8178D01*
X10204Y8178D01*
X10202Y8178D01*
X10201Y8178D01*
X10200Y8179D01*
X10199Y8179D01*
X10198Y8179D01*
X10197Y8180D01*
X10196Y8180D01*
X10195Y8181D01*
X10194Y8181D01*
X10194Y8181D01*
X10194Y8181D01*
X10194Y8182D01*
X10193Y8182D01*
X10193Y8182D01*
X10193Y8183D01*
X10192Y8183D01*
X10192Y8183D01*
X10192Y8184D01*
X10191Y8185D01*
X10191Y8185D01*
X10191Y8186D01*
X10191Y8187D01*
X10190Y8188D01*
X10190Y8189D01*
X10190Y8190D01*
Y8190D01*
X10190Y8190D01*
Y8191D01*
X10190Y8191D01*
X10191Y8192D01*
X10191Y8193D01*
X10191Y8194D01*
X10192Y8195D01*
X10192Y8195D01*
X10192Y8196D01*
X10192Y8196D01*
X10193Y8196D01*
X10193Y8196D01*
X10193Y8196D01*
X10193Y8196D01*
X10193Y8197D01*
X10194Y8197D01*
X10195Y8198D01*
X10196Y8198D01*
X10197Y8199D01*
X10198Y8199D01*
X10199Y8195D01*
X10199D01*
X10199Y8195D01*
X10198Y8195D01*
X10198Y8195D01*
X10197Y8194D01*
X10197Y8194D01*
X10196Y8194D01*
X10196Y8194D01*
X10195Y8193D01*
X10195Y8193D01*
X10195Y8193D01*
X10195Y8193D01*
X10194Y8192D01*
X10194Y8192D01*
X10194Y8191D01*
X10194Y8190D01*
X10194Y8189D01*
Y8189D01*
X10194Y8189D01*
X10194Y8188D01*
X10194Y8188D01*
X10194Y8187D01*
X10194Y8186D01*
X10195Y8186D01*
X10195Y8186D01*
X10195Y8186D01*
X10195Y8185D01*
X10196Y8185D01*
X10196Y8184D01*
X10197Y8184D01*
X10198Y8183D01*
X10199Y8183D01*
X10199D01*
X10199Y8183D01*
X10199Y8183D01*
X10199Y8183D01*
X10199Y8183D01*
X10200Y8183D01*
X10200Y8182D01*
X10201Y8182D01*
X10201Y8182D01*
X10202Y8182D01*
X10202Y8182D01*
X10203Y8182D01*
X10204Y8182D01*
X10204Y8182D01*
X10205Y8182D01*
X10206D01*
X10206Y8182D01*
X10206Y8182D01*
X10205Y8182D01*
X10205Y8183D01*
X10204Y8183D01*
X10204Y8184D01*
X10203Y8185D01*
X10203Y8185D01*
Y8185D01*
X10203Y8185D01*
X10203Y8186D01*
X10203Y8186D01*
X10202Y8187D01*
X10202Y8187D01*
X10202Y8188D01*
X10202Y8189D01*
X10202Y8190D01*
Y8190D01*
X10202Y8190D01*
X10202Y8191D01*
X10202Y8191D01*
X10202Y8192D01*
X10202Y8192D01*
X10203Y8193D01*
X10203Y8194D01*
X10203Y8194D01*
X10203Y8195D01*
X10204Y8195D01*
X10204Y8196D01*
X10205Y8197D01*
X10205Y8197D01*
X10205Y8197D01*
X10205Y8197D01*
X10205Y8197D01*
X10206Y8197D01*
X10206Y8197D01*
X10206Y8198D01*
X10207Y8198D01*
X10207Y8198D01*
X10208Y8198D01*
X10209Y8199D01*
X10209Y8199D01*
X10210Y8199D01*
X10211Y8199D01*
X10212Y8199D01*
X10212Y8199D01*
X10212D01*
X10213D01*
X10213D01*
X10213D01*
X10213Y8199D01*
D02*
G37*
G36*
X10213Y8174D02*
X10213Y8174D01*
X10214Y8174D01*
X10214Y8174D01*
X10214Y8174D01*
X10215Y8174D01*
X10216Y8173D01*
X10217Y8173D01*
X10218Y8172D01*
X10219Y8171D01*
X10220Y8171D01*
X10220Y8170D01*
X10221Y8169D01*
X10221Y8169D01*
X10221Y8169D01*
X10221Y8169D01*
X10221Y8169D01*
X10221Y8168D01*
X10222Y8168D01*
X10222Y8168D01*
X10222Y8167D01*
X10222Y8166D01*
X10223Y8166D01*
X10223Y8165D01*
X10223Y8164D01*
X10223Y8164D01*
X10223Y8163D01*
X10223Y8162D01*
X10224Y8161D01*
Y8160D01*
X10223Y8160D01*
Y8160D01*
X10223Y8159D01*
X10223Y8158D01*
X10223Y8158D01*
X10223Y8156D01*
X10223Y8155D01*
X10222Y8154D01*
X10222Y8153D01*
X10221Y8152D01*
X10221Y8152D01*
X10221Y8152D01*
X10221Y8152D01*
X10221Y8152D01*
X10221Y8152D01*
X10220Y8151D01*
X10220Y8151D01*
X10220Y8150D01*
X10219Y8150D01*
X10219Y8150D01*
X10218Y8149D01*
X10217Y8148D01*
X10215Y8147D01*
X10215D01*
X10215Y8147D01*
X10215Y8147D01*
X10214Y8147D01*
X10214Y8147D01*
X10214Y8147D01*
X10213Y8147D01*
X10213Y8146D01*
X10212Y8146D01*
X10211Y8146D01*
X10210Y8146D01*
X10208Y8146D01*
X10206Y8146D01*
X10206D01*
X10206D01*
X10206D01*
X10206Y8146D01*
X10205D01*
X10205Y8146D01*
X10204Y8146D01*
X10203Y8146D01*
X10202Y8146D01*
X10201Y8146D01*
X10199Y8147D01*
X10198Y8148D01*
X10198Y8148D01*
X10197Y8148D01*
X10197Y8148D01*
X10197Y8148D01*
X10197Y8148D01*
X10196Y8148D01*
X10195Y8149D01*
X10195Y8150D01*
X10194Y8151D01*
X10193Y8152D01*
X10192Y8153D01*
X10192Y8153D01*
X10192Y8153D01*
X10192Y8153D01*
X10192Y8154D01*
X10191Y8154D01*
X10191Y8154D01*
X10191Y8155D01*
X10191Y8155D01*
X10191Y8156D01*
X10190Y8157D01*
X10190Y8158D01*
X10190Y8159D01*
X10190Y8161D01*
Y8161D01*
X10190Y8162D01*
X10190Y8162D01*
X10190Y8163D01*
X10190Y8163D01*
X10190Y8164D01*
X10190Y8165D01*
X10191Y8166D01*
X10191Y8167D01*
X10192Y8168D01*
X10192Y8168D01*
X10192Y8169D01*
X10192Y8169D01*
X10192Y8169D01*
X10193Y8169D01*
X10193Y8170D01*
X10193Y8170D01*
X10193Y8170D01*
X10194Y8171D01*
X10194Y8171D01*
X10195Y8171D01*
X10195Y8172D01*
X10196Y8172D01*
X10196Y8173D01*
X10197Y8173D01*
X10198Y8173D01*
X10199Y8174D01*
X10199Y8174D01*
X10200Y8170D01*
X10200D01*
X10200Y8170D01*
X10200Y8169D01*
X10200Y8169D01*
X10199Y8169D01*
X10199Y8169D01*
X10198Y8169D01*
X10198Y8168D01*
X10197Y8168D01*
X10196Y8167D01*
X10195Y8166D01*
X10195Y8166D01*
X10195Y8166D01*
X10195Y8165D01*
X10194Y8165D01*
X10194Y8164D01*
X10194Y8163D01*
X10194Y8162D01*
X10194Y8161D01*
Y8160D01*
X10194Y8160D01*
Y8160D01*
X10194Y8160D01*
X10194Y8159D01*
X10194Y8158D01*
X10194Y8157D01*
X10195Y8156D01*
X10195Y8155D01*
Y8154D01*
X10195Y8154D01*
X10196Y8154D01*
X10196Y8154D01*
X10197Y8153D01*
X10197Y8153D01*
X10198Y8152D01*
X10199Y8151D01*
X10200Y8151D01*
X10200D01*
X10200Y8151D01*
X10200Y8151D01*
X10201Y8151D01*
X10201Y8151D01*
X10201Y8151D01*
X10202Y8151D01*
X10203Y8150D01*
X10204Y8150D01*
X10205Y8150D01*
X10206Y8150D01*
X10206D01*
X10207D01*
X10207D01*
X10207D01*
X10207Y8150D01*
X10208D01*
X10208Y8150D01*
X10209Y8150D01*
X10210Y8150D01*
X10211Y8151D01*
X10212Y8151D01*
X10214Y8151D01*
X10214D01*
X10214Y8151D01*
X10214Y8151D01*
X10214Y8151D01*
X10215Y8152D01*
X10215Y8152D01*
X10216Y8153D01*
X10217Y8153D01*
X10218Y8154D01*
X10218Y8155D01*
Y8155D01*
X10218Y8155D01*
X10218Y8155D01*
X10219Y8155D01*
X10219Y8156D01*
X10219Y8156D01*
X10219Y8157D01*
X10219Y8157D01*
X10220Y8158D01*
X10220Y8159D01*
X10220Y8160D01*
Y8161D01*
X10220Y8161D01*
Y8161D01*
X10220Y8162D01*
X10220Y8163D01*
X10219Y8164D01*
X10219Y8165D01*
X10218Y8166D01*
X10218Y8166D01*
X10218Y8167D01*
X10218Y8167D01*
X10218Y8167D01*
X10218Y8167D01*
X10217Y8167D01*
X10217Y8167D01*
X10217Y8167D01*
X10217Y8168D01*
X10216Y8168D01*
X10216Y8168D01*
X10215Y8169D01*
X10215Y8169D01*
X10214Y8169D01*
X10214Y8169D01*
X10213Y8170D01*
X10212Y8170D01*
X10212Y8170D01*
X10213Y8174D01*
X10213D01*
X10213Y8174D01*
D02*
G37*
G36*
X9317Y8632D02*
X9298D01*
X9298D01*
X9298D01*
X9298D01*
X9297D01*
X9297Y8632D01*
X9297D01*
X9296Y8632D01*
X9295Y8631D01*
X9294Y8631D01*
X9293Y8631D01*
X9292Y8631D01*
X9292Y8631D01*
X9292Y8631D01*
X9291Y8631D01*
X9291Y8631D01*
X9291Y8630D01*
X9290Y8630D01*
X9290Y8629D01*
X9289Y8629D01*
X9289Y8628D01*
X9289Y8628D01*
X9288Y8628D01*
X9288Y8627D01*
X9288Y8627D01*
X9288Y8626D01*
X9288Y8625D01*
X9288Y8625D01*
X9288Y8624D01*
Y8623D01*
X9288Y8623D01*
Y8622D01*
X9288Y8622D01*
X9288Y8621D01*
X9288Y8620D01*
X9288Y8619D01*
X9289Y8618D01*
X9289Y8617D01*
X9290Y8617D01*
X9290Y8617D01*
X9290Y8617D01*
X9290Y8617D01*
X9290Y8616D01*
X9290Y8616D01*
X9291Y8616D01*
X9291Y8616D01*
X9292Y8616D01*
X9292Y8616D01*
X9293Y8615D01*
X9293Y8615D01*
X9294Y8615D01*
X9295Y8615D01*
X9296Y8615D01*
X9297Y8615D01*
X9298D01*
X9317D01*
Y8610D01*
X9298D01*
X9298D01*
X9298D01*
X9298D01*
X9297D01*
X9297Y8610D01*
X9296D01*
X9296Y8611D01*
X9295Y8611D01*
X9294Y8611D01*
X9293Y8611D01*
X9291Y8611D01*
X9291Y8611D01*
X9290Y8612D01*
X9290D01*
X9290Y8612D01*
X9290Y8612D01*
X9290Y8612D01*
X9289Y8612D01*
X9288Y8613D01*
X9288Y8613D01*
X9287Y8614D01*
X9286Y8615D01*
X9285Y8616D01*
Y8616D01*
X9285Y8616D01*
X9285Y8616D01*
X9285Y8616D01*
X9285Y8616D01*
X9285Y8617D01*
X9285Y8617D01*
X9285Y8618D01*
X9284Y8618D01*
X9284Y8619D01*
X9284Y8619D01*
X9284Y8620D01*
X9284Y8621D01*
X9284Y8621D01*
X9284Y8623D01*
Y8624D01*
X9284Y8624D01*
Y8624D01*
X9284Y8625D01*
X9284Y8625D01*
X9284Y8626D01*
X9284Y8627D01*
X9284Y8628D01*
X9285Y8629D01*
X9285Y8631D01*
Y8631D01*
X9285Y8631D01*
X9285Y8631D01*
X9286Y8631D01*
X9286Y8632D01*
X9286Y8632D01*
X9287Y8633D01*
X9288Y8634D01*
X9289Y8634D01*
X9290Y8635D01*
X9290D01*
X9290Y8635D01*
X9290Y8635D01*
X9290Y8635D01*
X9291Y8635D01*
X9291Y8635D01*
X9291Y8635D01*
X9292Y8635D01*
X9293Y8635D01*
X9293Y8636D01*
X9294Y8636D01*
X9295Y8636D01*
X9295Y8636D01*
X9296Y8636D01*
X9297Y8636D01*
X9298D01*
X9317D01*
Y8632D01*
D02*
G37*
G36*
X9293Y8601D02*
X9293D01*
X9293Y8601D01*
X9293Y8601D01*
X9293Y8601D01*
X9293Y8601D01*
X9292Y8601D01*
X9291Y8600D01*
X9291Y8600D01*
X9290Y8600D01*
X9289Y8599D01*
X9288Y8599D01*
X9288Y8598D01*
X9288Y8598D01*
X9288Y8598D01*
X9288Y8597D01*
X9287Y8597D01*
X9287Y8596D01*
X9287Y8595D01*
X9287Y8595D01*
Y8594D01*
X9287Y8594D01*
X9287Y8594D01*
X9287Y8593D01*
X9287Y8592D01*
X9288Y8591D01*
X9288Y8591D01*
X9289Y8590D01*
X9289Y8590D01*
X9289Y8589D01*
X9290Y8589D01*
X9290Y8589D01*
X9291Y8588D01*
X9292Y8588D01*
X9293Y8588D01*
X9294Y8588D01*
X9294D01*
X9294D01*
X9294D01*
X9294Y8588D01*
X9295Y8588D01*
X9295Y8588D01*
X9296Y8588D01*
X9297Y8589D01*
X9298Y8589D01*
X9298Y8590D01*
X9298Y8590D01*
X9299Y8590D01*
X9299Y8590D01*
X9299Y8591D01*
X9300Y8592D01*
X9300Y8592D01*
X9300Y8593D01*
X9300Y8594D01*
Y8595D01*
X9300Y8595D01*
X9300Y8595D01*
X9300Y8596D01*
X9300Y8596D01*
X9300Y8597D01*
X9303Y8597D01*
Y8596D01*
X9303Y8596D01*
Y8595D01*
X9303Y8595D01*
X9303Y8594D01*
X9303Y8594D01*
X9304Y8593D01*
X9304Y8592D01*
X9304Y8591D01*
Y8591D01*
X9305Y8591D01*
X9305Y8591D01*
X9305Y8591D01*
X9305Y8590D01*
X9306Y8590D01*
X9307Y8590D01*
X9308Y8589D01*
X9308Y8589D01*
X9309D01*
X9309D01*
X9309D01*
X9309D01*
X9309Y8589D01*
X9310Y8589D01*
X9310Y8590D01*
X9311Y8590D01*
X9312Y8590D01*
X9312Y8591D01*
X9312Y8591D01*
X9312Y8591D01*
X9313Y8591D01*
X9313Y8592D01*
X9313Y8592D01*
X9313Y8593D01*
X9314Y8594D01*
X9314Y8595D01*
Y8595D01*
X9314Y8595D01*
X9313Y8596D01*
X9313Y8597D01*
X9313Y8597D01*
X9313Y8598D01*
X9312Y8598D01*
X9312Y8599D01*
X9312Y8599D01*
X9312Y8599D01*
X9311Y8599D01*
X9310Y8600D01*
X9310Y8600D01*
X9309Y8600D01*
X9308Y8600D01*
X9309Y8604D01*
X9309D01*
X9309Y8604D01*
X9309Y8604D01*
X9309Y8604D01*
X9309Y8604D01*
X9310Y8604D01*
X9311Y8604D01*
X9312Y8603D01*
X9313Y8603D01*
X9314Y8602D01*
X9315Y8601D01*
X9315Y8601D01*
X9315Y8601D01*
X9315Y8601D01*
X9315Y8601D01*
X9315Y8600D01*
X9315Y8600D01*
X9316Y8600D01*
X9316Y8599D01*
X9316Y8598D01*
X9317Y8597D01*
X9317Y8596D01*
X9317Y8595D01*
Y8594D01*
X9317Y8594D01*
X9317Y8593D01*
X9317Y8592D01*
X9316Y8592D01*
X9316Y8591D01*
X9316Y8590D01*
Y8590D01*
X9316Y8590D01*
X9316Y8589D01*
X9315Y8589D01*
X9315Y8589D01*
X9314Y8588D01*
X9314Y8587D01*
X9313Y8587D01*
X9313Y8586D01*
X9313Y8586D01*
X9312Y8586D01*
X9312Y8586D01*
X9311Y8586D01*
X9311Y8586D01*
X9310Y8585D01*
X9309Y8585D01*
X9308Y8585D01*
X9308D01*
X9308D01*
X9308Y8585D01*
X9307Y8585D01*
X9307Y8585D01*
X9306Y8586D01*
X9305Y8586D01*
X9305Y8586D01*
X9305Y8586D01*
X9304Y8587D01*
X9304Y8587D01*
X9304Y8587D01*
X9303Y8588D01*
X9303Y8588D01*
X9302Y8589D01*
X9302Y8590D01*
Y8590D01*
X9302Y8590D01*
X9302Y8589D01*
X9302Y8589D01*
X9302Y8589D01*
X9301Y8588D01*
X9301Y8587D01*
X9300Y8587D01*
X9300Y8586D01*
X9299Y8585D01*
X9299Y8585D01*
X9299Y8585D01*
X9298Y8585D01*
X9298Y8584D01*
X9297Y8584D01*
X9296Y8584D01*
X9295Y8584D01*
X9294Y8584D01*
X9294D01*
X9294D01*
X9293D01*
X9293Y8584D01*
X9293Y8584D01*
X9292Y8584D01*
X9292Y8584D01*
X9291Y8584D01*
X9290Y8584D01*
X9290Y8585D01*
X9289Y8585D01*
X9288Y8585D01*
X9288Y8586D01*
X9287Y8586D01*
X9287Y8587D01*
X9287Y8587D01*
X9287Y8587D01*
X9286Y8587D01*
X9286Y8587D01*
X9286Y8588D01*
X9286Y8588D01*
X9285Y8588D01*
X9285Y8589D01*
X9285Y8589D01*
X9285Y8590D01*
X9284Y8591D01*
X9284Y8591D01*
X9284Y8592D01*
X9284Y8593D01*
X9284Y8594D01*
X9284Y8595D01*
Y8595D01*
X9284Y8595D01*
X9284Y8596D01*
X9284Y8596D01*
X9284Y8597D01*
X9284Y8597D01*
X9284Y8598D01*
X9285Y8599D01*
X9285Y8600D01*
X9285Y8601D01*
X9286Y8601D01*
X9286Y8602D01*
X9286Y8602D01*
X9286Y8602D01*
X9287Y8602D01*
X9287Y8602D01*
X9287Y8602D01*
X9287Y8603D01*
X9288Y8603D01*
X9288Y8603D01*
X9288Y8603D01*
X9289Y8604D01*
X9290Y8604D01*
X9291Y8605D01*
X9292Y8605D01*
X9293Y8605D01*
X9293Y8601D01*
D02*
G37*
G36*
X9902Y8852D02*
X9902Y8852D01*
X9902Y8851D01*
X9903Y8851D01*
X9903Y8851D01*
X9903Y8851D01*
X9904Y8850D01*
X9904Y8850D01*
X9905Y8849D01*
X9905Y8849D01*
X9906Y8848D01*
X9907Y8848D01*
X9908Y8847D01*
X9909Y8847D01*
X9910Y8846D01*
X9911Y8846D01*
X9911Y8846D01*
X9911Y8845D01*
X9911Y8845D01*
X9912Y8845D01*
X9912Y8845D01*
X9913Y8845D01*
X9913Y8844D01*
X9914Y8844D01*
X9915Y8844D01*
X9916Y8843D01*
X9917Y8843D01*
X9918Y8842D01*
X9920Y8842D01*
X9922Y8841D01*
X9922D01*
X9922Y8841D01*
X9922Y8841D01*
X9923Y8841D01*
X9923Y8841D01*
X9923Y8841D01*
X9924Y8840D01*
X9925Y8840D01*
X9925Y8840D01*
X9926Y8840D01*
X9927Y8840D01*
X9929Y8840D01*
X9931Y8839D01*
Y8835D01*
X9931D01*
X9931D01*
X9930D01*
X9930Y8835D01*
X9930D01*
X9929Y8835D01*
X9929Y8835D01*
X9928Y8835D01*
X9928Y8836D01*
X9927Y8836D01*
X9926Y8836D01*
X9925Y8836D01*
X9924Y8836D01*
X9924Y8836D01*
X9922Y8837D01*
X9922D01*
X9921Y8837D01*
X9921Y8837D01*
X9921Y8837D01*
X9920Y8837D01*
X9920Y8837D01*
X9919Y8838D01*
X9918Y8838D01*
X9917Y8838D01*
X9917Y8838D01*
X9915Y8839D01*
X9913Y8840D01*
X9911Y8841D01*
X9911Y8841D01*
X9911Y8841D01*
X9911Y8841D01*
X9910Y8841D01*
X9910Y8842D01*
X9909Y8842D01*
X9909Y8842D01*
X9908Y8843D01*
X9907Y8844D01*
X9905Y8844D01*
X9904Y8846D01*
X9903Y8847D01*
Y8831D01*
X9899D01*
Y8852D01*
X9902D01*
X9902Y8852D01*
D02*
G37*
G36*
X9931Y8816D02*
X9905D01*
X9905Y8816D01*
X9906Y8816D01*
X9906Y8816D01*
X9906Y8815D01*
X9907Y8815D01*
X9907Y8814D01*
X9908Y8813D01*
X9908Y8812D01*
Y8812D01*
X9908Y8812D01*
X9908Y8812D01*
X9909Y8812D01*
X9909Y8811D01*
X9909Y8810D01*
X9910Y8810D01*
X9910Y8809D01*
X9910Y8808D01*
X9906D01*
Y8808D01*
X9906Y8808D01*
X9906Y8809D01*
X9906Y8809D01*
X9906Y8809D01*
X9906Y8809D01*
X9905Y8810D01*
X9905Y8811D01*
X9904Y8812D01*
X9903Y8813D01*
X9903Y8814D01*
X9903Y8814D01*
X9902Y8814D01*
X9902Y8814D01*
X9902Y8814D01*
X9902Y8815D01*
X9901Y8815D01*
X9900Y8816D01*
X9900Y8817D01*
X9899Y8817D01*
X9898Y8818D01*
Y8820D01*
X9931D01*
Y8816D01*
D02*
G37*
G36*
X9921Y8801D02*
X9921Y8801D01*
X9921Y8801D01*
X9922Y8801D01*
X9922Y8801D01*
X9923Y8801D01*
X9924Y8800D01*
X9925Y8800D01*
X9926Y8799D01*
X9927Y8798D01*
X9928Y8798D01*
X9928Y8797D01*
X9929Y8797D01*
X9929Y8797D01*
X9929Y8796D01*
X9929Y8796D01*
X9929Y8796D01*
X9929Y8796D01*
X9930Y8795D01*
X9930Y8795D01*
X9930Y8794D01*
X9930Y8794D01*
X9931Y8793D01*
X9931Y8792D01*
X9931Y8792D01*
X9931Y8791D01*
X9931Y8790D01*
X9931Y8789D01*
X9931Y8788D01*
Y8788D01*
X9931Y8787D01*
Y8787D01*
X9931Y8786D01*
X9931Y8786D01*
X9931Y8785D01*
X9931Y8784D01*
X9931Y8782D01*
X9930Y8781D01*
X9930Y8780D01*
X9929Y8779D01*
X9929Y8779D01*
X9929Y8779D01*
X9929Y8779D01*
X9929Y8779D01*
X9929Y8779D01*
X9928Y8778D01*
X9928Y8778D01*
X9928Y8778D01*
X9927Y8777D01*
X9927Y8777D01*
X9926Y8776D01*
X9924Y8775D01*
X9923Y8774D01*
X9923D01*
X9923Y8774D01*
X9923Y8774D01*
X9922Y8774D01*
X9922Y8774D01*
X9922Y8774D01*
X9921Y8774D01*
X9920Y8774D01*
X9920Y8773D01*
X9919Y8773D01*
X9918Y8773D01*
X9916Y8773D01*
X9914Y8773D01*
X9914D01*
X9914D01*
X9914D01*
X9913Y8773D01*
X9913D01*
X9913Y8773D01*
X9912Y8773D01*
X9911Y8773D01*
X9910Y8773D01*
X9908Y8774D01*
X9907Y8774D01*
X9906Y8775D01*
X9905Y8775D01*
X9905Y8775D01*
X9905Y8775D01*
X9905Y8775D01*
X9905Y8775D01*
X9904Y8775D01*
X9903Y8776D01*
X9902Y8777D01*
X9901Y8778D01*
X9901Y8779D01*
X9900Y8780D01*
X9900Y8780D01*
X9900Y8780D01*
X9900Y8781D01*
X9899Y8781D01*
X9899Y8781D01*
X9899Y8782D01*
X9899Y8782D01*
X9899Y8783D01*
X9899Y8783D01*
X9898Y8784D01*
X9898Y8785D01*
X9898Y8787D01*
X9898Y8788D01*
Y8789D01*
X9898Y8789D01*
X9898Y8789D01*
X9898Y8790D01*
X9898Y8790D01*
X9898Y8791D01*
X9898Y8792D01*
X9899Y8794D01*
X9899Y8794D01*
X9899Y8795D01*
X9900Y8796D01*
X9900Y8796D01*
X9900Y8796D01*
X9900Y8796D01*
X9900Y8797D01*
X9901Y8797D01*
X9901Y8797D01*
X9901Y8797D01*
X9902Y8798D01*
X9902Y8798D01*
X9903Y8799D01*
X9903Y8799D01*
X9904Y8799D01*
X9904Y8800D01*
X9905Y8800D01*
X9906Y8800D01*
X9906Y8801D01*
X9907Y8801D01*
X9908Y8797D01*
X9908D01*
X9908Y8797D01*
X9908Y8797D01*
X9908Y8796D01*
X9907Y8796D01*
X9907Y8796D01*
X9906Y8796D01*
X9905Y8795D01*
X9905Y8795D01*
X9904Y8794D01*
X9903Y8793D01*
X9903Y8793D01*
X9903Y8793D01*
X9903Y8793D01*
X9902Y8792D01*
X9902Y8791D01*
X9902Y8790D01*
X9901Y8789D01*
X9901Y8788D01*
Y8788D01*
X9901Y8787D01*
Y8787D01*
X9902Y8787D01*
X9902Y8786D01*
X9902Y8785D01*
X9902Y8784D01*
X9903Y8783D01*
X9903Y8782D01*
Y8782D01*
X9903Y8782D01*
X9904Y8781D01*
X9904Y8781D01*
X9905Y8780D01*
X9905Y8780D01*
X9906Y8779D01*
X9907Y8779D01*
X9908Y8778D01*
X9908D01*
X9908Y8778D01*
X9908Y8778D01*
X9909Y8778D01*
X9909Y8778D01*
X9909Y8778D01*
X9910Y8778D01*
X9911Y8778D01*
X9912Y8777D01*
X9913Y8777D01*
X9914Y8777D01*
X9914D01*
X9915D01*
X9915D01*
X9915D01*
X9915Y8777D01*
X9916D01*
X9916Y8777D01*
X9917Y8777D01*
X9918Y8777D01*
X9919Y8778D01*
X9920Y8778D01*
X9922Y8778D01*
X9922D01*
X9922Y8778D01*
X9922Y8778D01*
X9922Y8779D01*
X9923Y8779D01*
X9923Y8779D01*
X9924Y8780D01*
X9925Y8780D01*
X9926Y8781D01*
X9926Y8782D01*
Y8782D01*
X9926Y8782D01*
X9926Y8782D01*
X9926Y8783D01*
X9927Y8783D01*
X9927Y8783D01*
X9927Y8784D01*
X9927Y8785D01*
X9928Y8786D01*
X9928Y8787D01*
X9928Y8788D01*
Y8788D01*
X9928Y8788D01*
Y8789D01*
X9928Y8789D01*
X9927Y8790D01*
X9927Y8791D01*
X9927Y8792D01*
X9926Y8793D01*
X9926Y8793D01*
X9926Y8794D01*
X9926Y8794D01*
X9926Y8794D01*
X9925Y8794D01*
X9925Y8794D01*
X9925Y8794D01*
X9925Y8795D01*
X9924Y8795D01*
X9924Y8795D01*
X9924Y8795D01*
X9923Y8796D01*
X9923Y8796D01*
X9922Y8796D01*
X9922Y8797D01*
X9921Y8797D01*
X9920Y8797D01*
X9919Y8797D01*
X9921Y8802D01*
X9921D01*
X9921Y8801D01*
D02*
G37*
%LPC*%
G36*
X10136Y8848D02*
X10136D01*
X10136D01*
X10136D01*
X10136Y8848D01*
X10136D01*
X10135Y8848D01*
X10135Y8847D01*
X10134Y8847D01*
X10133Y8847D01*
X10132Y8846D01*
X10131Y8846D01*
X10131Y8846D01*
X10131Y8846D01*
X10131Y8845D01*
X10130Y8845D01*
X10130Y8844D01*
X10129Y8843D01*
X10129Y8842D01*
X10129Y8841D01*
Y8841D01*
X10129Y8841D01*
X10129Y8840D01*
X10129Y8840D01*
X10130Y8839D01*
X10130Y8838D01*
X10130Y8838D01*
X10131Y8837D01*
X10131Y8837D01*
X10131Y8836D01*
X10132Y8836D01*
X10132Y8836D01*
X10133Y8835D01*
X10134Y8835D01*
X10135Y8835D01*
X10136Y8835D01*
X10136D01*
X10137D01*
X10137Y8835D01*
X10137Y8835D01*
X10138Y8835D01*
X10139Y8835D01*
X10139Y8835D01*
X10140Y8836D01*
X10140Y8836D01*
X10140Y8836D01*
X10141Y8836D01*
X10141Y8836D01*
X10142Y8837D01*
X10142Y8837D01*
X10143Y8838D01*
X10143Y8838D01*
X10143Y8838D01*
X10143Y8838D01*
X10143Y8839D01*
X10143Y8839D01*
X10144Y8840D01*
X10144Y8840D01*
X10144Y8841D01*
X10144Y8842D01*
Y8842D01*
X10144Y8842D01*
X10144Y8842D01*
X10144Y8843D01*
X10143Y8844D01*
X10143Y8844D01*
X10143Y8845D01*
X10142Y8846D01*
X10142Y8846D01*
X10142D01*
X10142Y8846D01*
X10142Y8846D01*
X10141Y8846D01*
X10141Y8847D01*
X10140Y8847D01*
X10139Y8847D01*
X10138Y8848D01*
X10136Y8848D01*
D02*
G37*
G36*
X11197Y6672D02*
X11196D01*
X11196Y6672D01*
X11195Y6672D01*
X11195Y6672D01*
X11194Y6671D01*
X11193Y6671D01*
X11193Y6671D01*
X11193Y6670D01*
X11193Y6670D01*
X11192Y6670D01*
X11192Y6670D01*
X11192Y6669D01*
X11192Y6668D01*
X11191Y6668D01*
X11191Y6667D01*
Y6667D01*
Y6667D01*
X11191Y6667D01*
X11191Y6666D01*
X11192Y6666D01*
X11192Y6665D01*
X11192Y6664D01*
X11192Y6664D01*
X11193Y6663D01*
X11193Y6663D01*
X11193Y6663D01*
X11193Y6663D01*
X11194Y6663D01*
X11194Y6662D01*
X11195Y6662D01*
X11196Y6662D01*
X11197Y6662D01*
X11197D01*
X11197Y6662D01*
X11197Y6662D01*
X11198Y6662D01*
X11199Y6662D01*
X11199Y6662D01*
X11200Y6663D01*
X11200Y6663D01*
X11200Y6663D01*
X11201Y6664D01*
X11201Y6664D01*
X11201Y6664D01*
X11201Y6665D01*
X11202Y6665D01*
X11202Y6666D01*
X11202Y6667D01*
Y6667D01*
Y6667D01*
Y6667D01*
X11202Y6668D01*
X11202Y6668D01*
X11202Y6669D01*
X11201Y6669D01*
X11201Y6670D01*
X11200Y6671D01*
X11200Y6671D01*
X11200Y6671D01*
X11200Y6671D01*
X11199Y6671D01*
X11199Y6672D01*
X11198Y6672D01*
X11197Y6672D01*
X11197Y6672D01*
D02*
G37*
G36*
X11196Y6659D02*
X11196D01*
X11196Y6658D01*
X11196Y6658D01*
X11195Y6658D01*
X11194Y6658D01*
X11193Y6658D01*
X11193Y6657D01*
X11192Y6657D01*
X11192Y6657D01*
X11192Y6656D01*
X11191Y6656D01*
X11191Y6655D01*
X11191Y6655D01*
X11190Y6654D01*
X11190Y6653D01*
X11190Y6652D01*
Y6652D01*
Y6652D01*
X11190Y6651D01*
X11190Y6651D01*
X11190Y6650D01*
X11190Y6650D01*
X11191Y6649D01*
X11191Y6649D01*
X11191Y6649D01*
X11191Y6648D01*
X11191Y6648D01*
X11191Y6648D01*
X11192Y6647D01*
X11192Y6647D01*
X11193Y6647D01*
X11193Y6646D01*
X11193Y6646D01*
X11193Y6646D01*
X11194Y6646D01*
X11194Y6646D01*
X11195Y6646D01*
X11195Y6646D01*
X11196Y6645D01*
X11197Y6645D01*
X11197D01*
X11197Y6645D01*
X11198Y6645D01*
X11198Y6646D01*
X11199Y6646D01*
X11200Y6646D01*
X11201Y6647D01*
X11201Y6647D01*
X11201Y6647D01*
X11202Y6648D01*
X11202Y6648D01*
X11202Y6648D01*
X11203Y6649D01*
X11203Y6650D01*
X11203Y6651D01*
X11203Y6652D01*
Y6652D01*
Y6652D01*
Y6652D01*
X11203Y6652D01*
X11203Y6653D01*
X11203Y6654D01*
X11203Y6654D01*
X11202Y6655D01*
X11202Y6656D01*
X11201Y6657D01*
X11201Y6657D01*
X11201Y6657D01*
X11201Y6657D01*
X11200Y6658D01*
X11199Y6658D01*
X11198Y6658D01*
X11198Y6658D01*
X11196Y6659D01*
D02*
G37*
G36*
X10515Y6150D02*
Y6140D01*
X10529D01*
X10515Y6150D01*
D02*
G37*
G36*
X10955Y7338D02*
X10955D01*
X10955Y7338D01*
X10954Y7338D01*
X10954Y7338D01*
X10953Y7338D01*
X10952Y7337D01*
X10951Y7337D01*
X10951Y7336D01*
X10951Y7336D01*
X10950Y7336D01*
X10950Y7335D01*
X10950Y7335D01*
X10949Y7334D01*
X10949Y7333D01*
X10949Y7332D01*
X10949Y7331D01*
Y7331D01*
Y7331D01*
Y7331D01*
X10949Y7330D01*
Y7330D01*
X10949Y7330D01*
X10949Y7329D01*
X10949Y7328D01*
X10950Y7327D01*
X10950Y7326D01*
X10951Y7325D01*
Y7325D01*
X10951Y7325D01*
X10951Y7325D01*
X10951Y7325D01*
X10952Y7324D01*
X10953Y7324D01*
X10953Y7324D01*
X10954Y7323D01*
X10955Y7323D01*
X10955D01*
X10956Y7323D01*
X10956Y7323D01*
X10957Y7324D01*
X10958Y7324D01*
X10958Y7324D01*
X10959Y7325D01*
X10960Y7325D01*
X10960Y7326D01*
Y7326D01*
X10960Y7326D01*
X10960Y7326D01*
X10960Y7326D01*
X10960Y7326D01*
X10961Y7327D01*
X10961Y7328D01*
X10962Y7329D01*
X10962Y7330D01*
X10962Y7331D01*
Y7331D01*
Y7331D01*
Y7331D01*
X10962Y7332D01*
Y7332D01*
X10962Y7332D01*
X10962Y7333D01*
X10961Y7334D01*
X10961Y7335D01*
X10961Y7335D01*
X10960Y7336D01*
X10960Y7336D01*
X10960Y7337D01*
X10959Y7337D01*
X10959Y7337D01*
X10958Y7338D01*
X10957Y7338D01*
X10956Y7338D01*
X10955Y7338D01*
D02*
G37*
G36*
X9901Y8150D02*
X9901D01*
X9901Y8150D01*
X9900Y8150D01*
X9899Y8150D01*
X9899Y8150D01*
X9898Y8149D01*
X9897Y8149D01*
X9896Y8148D01*
X9896Y8148D01*
X9896Y8148D01*
X9896Y8148D01*
X9895Y8147D01*
X9895Y8146D01*
X9895Y8146D01*
X9895Y8145D01*
X9895Y8144D01*
Y8144D01*
Y8143D01*
Y8143D01*
X9895Y8143D01*
X9895Y8143D01*
X9895Y8142D01*
X9895Y8141D01*
X9895Y8140D01*
X9896Y8140D01*
X9896Y8139D01*
X9897Y8139D01*
X9897Y8139D01*
X9897Y8138D01*
X9898Y8138D01*
X9898Y8138D01*
X9899Y8137D01*
X9900Y8137D01*
X9901Y8137D01*
X9902D01*
X9902Y8137D01*
X9902Y8137D01*
X9903Y8137D01*
X9904Y8137D01*
X9904Y8138D01*
X9905Y8138D01*
X9906Y8139D01*
X9906Y8139D01*
X9906Y8139D01*
X9906Y8140D01*
X9907Y8140D01*
X9907Y8141D01*
X9907Y8142D01*
X9908Y8142D01*
X9908Y8143D01*
Y8144D01*
Y8144D01*
X9908Y8144D01*
X9908Y8145D01*
X9908Y8145D01*
X9907Y8146D01*
X9907Y8146D01*
X9907Y8147D01*
X9907Y8147D01*
X9907Y8147D01*
X9907Y8147D01*
X9906Y8148D01*
X9906Y8148D01*
X9906Y8149D01*
X9905Y8149D01*
X9905Y8149D01*
X9905Y8149D01*
X9904Y8149D01*
X9904Y8150D01*
X9904Y8150D01*
X9903Y8150D01*
X9902Y8150D01*
X9902Y8150D01*
X9901Y8150D01*
D02*
G37*
G36*
Y8134D02*
X9901D01*
X9901Y8134D01*
X9900Y8134D01*
X9900Y8134D01*
X9899Y8133D01*
X9899Y8133D01*
X9898Y8133D01*
X9897Y8132D01*
X9897Y8132D01*
X9897Y8132D01*
X9897Y8132D01*
X9897Y8131D01*
X9896Y8131D01*
X9896Y8130D01*
X9896Y8129D01*
X9896Y8129D01*
Y8129D01*
Y8129D01*
Y8128D01*
X9896Y8128D01*
X9896Y8127D01*
X9896Y8127D01*
X9896Y8126D01*
X9897Y8126D01*
X9897Y8125D01*
X9897Y8125D01*
X9898Y8125D01*
X9898Y8125D01*
X9898Y8124D01*
X9899Y8124D01*
X9900Y8124D01*
X9900Y8124D01*
X9901Y8123D01*
X9902D01*
X9902Y8124D01*
X9902Y8124D01*
X9903Y8124D01*
X9904Y8124D01*
X9904Y8124D01*
X9905Y8125D01*
X9905Y8125D01*
X9905Y8125D01*
X9905Y8126D01*
X9906Y8126D01*
X9906Y8126D01*
X9906Y8127D01*
X9906Y8128D01*
X9906Y8128D01*
Y8129D01*
Y8129D01*
X9906Y8129D01*
X9906Y8129D01*
X9906Y8130D01*
X9906Y8130D01*
X9906Y8131D01*
X9905Y8132D01*
X9905Y8132D01*
X9905Y8132D01*
X9905Y8132D01*
X9904Y8133D01*
X9904Y8133D01*
X9903Y8133D01*
X9903Y8133D01*
X9902Y8134D01*
X9901Y8134D01*
D02*
G37*
G36*
X10213Y8195D02*
X10213D01*
X10213D01*
X10212D01*
X10212Y8195D01*
X10212D01*
X10211Y8195D01*
X10211Y8195D01*
X10210Y8195D01*
X10209Y8195D01*
X10208Y8194D01*
X10207Y8193D01*
X10207Y8193D01*
X10207Y8193D01*
X10207Y8193D01*
X10206Y8192D01*
X10206Y8192D01*
X10206Y8191D01*
X10205Y8190D01*
X10205Y8189D01*
Y8189D01*
X10205Y8188D01*
X10205Y8188D01*
X10206Y8187D01*
X10206Y8187D01*
X10206Y8186D01*
X10207Y8185D01*
X10207Y8184D01*
X10207Y8184D01*
X10208Y8184D01*
X10208Y8184D01*
X10209Y8183D01*
X10209Y8183D01*
X10210Y8183D01*
X10211Y8183D01*
X10212Y8182D01*
X10213D01*
X10213D01*
X10213Y8182D01*
X10214Y8183D01*
X10214Y8183D01*
X10215Y8183D01*
X10216Y8183D01*
X10216Y8183D01*
X10216Y8183D01*
X10217Y8183D01*
X10217Y8184D01*
X10217Y8184D01*
X10218Y8184D01*
X10218Y8185D01*
X10219Y8185D01*
X10219Y8186D01*
X10219Y8186D01*
X10219Y8186D01*
X10220Y8186D01*
X10220Y8187D01*
X10220Y8187D01*
X10220Y8188D01*
X10220Y8188D01*
X10220Y8189D01*
Y8189D01*
X10220Y8189D01*
X10220Y8190D01*
X10220Y8191D01*
X10220Y8191D01*
X10219Y8192D01*
X10219Y8193D01*
X10219Y8193D01*
X10218Y8193D01*
X10218D01*
X10218Y8194D01*
X10218Y8194D01*
X10217Y8194D01*
X10217Y8194D01*
X10216Y8195D01*
X10215Y8195D01*
X10214Y8195D01*
X10213Y8195D01*
D02*
G37*
%LPD*%
D12*
X8523Y8570D02*
X8724D01*
X8523Y8189D02*
Y8570D01*
Y8189D02*
X8724D01*
Y8570D01*
X10094Y8669D02*
Y8876D01*
X10201D01*
Y8669D02*
Y8876D01*
X10094Y8669D02*
X10201D01*
X8757Y5945D02*
Y6545D01*
X9136D01*
Y5945D02*
Y6545D01*
X8757Y5945D02*
X9136D01*
X9350Y5862D02*
Y6070D01*
X9243Y5862D02*
X9350D01*
X9243D02*
Y6070D01*
X9350D01*
X10827Y6945D02*
X11312D01*
Y6745D02*
Y6945D01*
X10827Y6745D02*
X11312D01*
X10827D02*
Y6945D01*
X11050Y6696D02*
X11257D01*
Y6588D02*
Y6696D01*
X11050Y6588D02*
X11257D01*
X11050D02*
Y6696D01*
X10988Y6497D02*
Y6705D01*
X10881Y6497D02*
X10988D01*
X10881D02*
Y6705D01*
X10988D01*
Y6237D02*
Y6444D01*
X10881Y6237D02*
X10988D01*
X10881D02*
Y6444D01*
X10988D01*
X10772Y6107D02*
Y6314D01*
X10665Y6107D02*
X10772D01*
X10665D02*
Y6314D01*
X10772D01*
X10557Y6107D02*
Y6314D01*
X10449Y6107D02*
X10557D01*
X10449D02*
Y6314D01*
X10557D01*
X9661Y5840D02*
X10354D01*
X9661D02*
Y7029D01*
X10354D01*
Y5840D02*
Y7029D01*
X10589Y6988D02*
X11459D01*
X10589D02*
Y7718D01*
X11459D01*
Y6988D02*
Y7718D01*
X9866Y8100D02*
X10073D01*
X9866D02*
Y8207D01*
X10073D01*
Y8100D02*
Y8207D01*
X9869Y7909D02*
X10076D01*
X9869D02*
Y8017D01*
X10076D01*
Y7909D02*
Y8017D01*
X10124Y7903D02*
Y8388D01*
X10324D01*
Y7903D02*
Y8388D01*
X10124Y7903D02*
X10324D01*
X9794Y8246D02*
Y9026D01*
X8774Y8246D02*
X9794D01*
X8774D02*
Y9026D01*
X9794D01*
X9878Y8669D02*
Y8876D01*
X9985D01*
Y8669D02*
Y8876D01*
X9878Y8669D02*
X9985D01*
M02*
