G04*
G04 #@! TF.GenerationSoftware,Altium Limited,Altium Designer,22.10.1 (41)*
G04*
G04 Layer_Color=8388736*
%FSLAX42Y42*%
%MOMM*%
G71*
G04*
G04 #@! TF.SameCoordinates,D2B3F530-26F6-4905-BC13-EF821CD2D141*
G04*
G04*
G04 #@! TF.FilePolarity,Positive*
G04*
G01*
G75*
%ADD12C,0.20*%
D12*
X8583Y8460D02*
X8663D01*
X8583Y8300D02*
Y8460D01*
Y8300D02*
X8663D01*
Y8460D01*
X10122Y8723D02*
Y8823D01*
X10172D01*
Y8723D02*
Y8823D01*
X10122Y8723D02*
X10172D01*
X8782Y5990D02*
Y6500D01*
X9111D01*
Y5990D02*
Y6500D01*
X8782Y5990D02*
X9111D01*
X9321Y5916D02*
Y6016D01*
X9271Y5916D02*
X9321D01*
X9271D02*
Y6016D01*
X9321D01*
X10900Y6935D02*
X11239D01*
Y6755D02*
Y6935D01*
X10900Y6755D02*
X11239D01*
X10900D02*
Y6935D01*
X11104Y6667D02*
X11204D01*
Y6617D02*
Y6667D01*
X11104Y6617D02*
X11204D01*
X11104D02*
Y6667D01*
X10960Y6551D02*
Y6651D01*
X10910Y6551D02*
X10960D01*
X10910D02*
Y6651D01*
X10960D01*
Y6290D02*
Y6390D01*
X10910Y6290D02*
X10960D01*
X10910D02*
Y6390D01*
X10960D01*
X10744Y6160D02*
Y6260D01*
X10694Y6160D02*
X10744D01*
X10694D02*
Y6260D01*
X10744D01*
X10528Y6160D02*
Y6260D01*
X10478Y6160D02*
X10528D01*
X10478D02*
Y6260D01*
X10528D01*
X9671Y6045D02*
X10344D01*
X9671D02*
Y6667D01*
X10344D01*
Y6045D02*
Y6667D01*
X10684Y7013D02*
X11364D01*
X10684D02*
Y7693D01*
X11364D01*
Y7013D02*
Y7693D01*
X9919Y8128D02*
X10019D01*
X9919D02*
Y8178D01*
X10019D01*
Y8128D02*
Y8178D01*
X9922Y7938D02*
X10022D01*
X9922D02*
Y7988D01*
X10022D01*
Y7938D02*
Y7988D01*
X10133Y7976D02*
Y8316D01*
X10314D01*
Y7976D02*
Y8316D01*
X10133Y7976D02*
X10314D01*
X9769Y8416D02*
Y8856D01*
X8799Y8416D02*
X9769D01*
X8799D02*
Y8856D01*
X9769D01*
X9906Y8723D02*
Y8823D01*
X9956D01*
Y8723D02*
Y8823D01*
X9906Y8723D02*
X9956D01*
M02*
